<svg id="Layer_1" data-name="Layer 1" xmlns="http://www.w3.org/2000/svg" viewBox="0 0 1026.06 161"><defs><style>.cls-1{fill:#ecc1b9;}.cls-2{fill:#f39f94;}.cls-3{fill:#83ccc3;}.cls-4{fill:none;}.cls-5{fill:#b57d48;}.cls-6{fill:#f1b263;}.cls-7{fill:#dd9758;}.cls-8{fill:#8bc53f;}.cls-9{fill:#1d1d1b;}.cls-10{fill:#c0eae6;}.cls-11{fill:#ff734d;}.cls-12{fill:#ff9773;}.cls-13{fill:#706159;}.cls-14{fill:#d7d3bc;}.cls-15{fill:#fffae3;}.cls-16{fill:#ffa95c;}.cls-17{fill:#ffe85f;}.cls-18{fill:#3f3f3f;}.cls-19{fill:#707070;}.cls-20{fill:#184054;}.cls-21{fill:#3b6b89;}.cls-22{fill:#b4bdc1;}.cls-23{fill:#7c7c7c;}.cls-24{fill:#adadad;}.cls-25{fill:#fcc0c0;}.cls-26{fill:#ffe0e0;}</style></defs><title>koty</title><path class="cls-1" d="M706.67,698l-.32.77c0,.09.2.13.25,0L707,698c0-.11-.24-.15-.28,0Z" transform="translate(2.06 -607)"/><path class="cls-2" d="M704.72,698.31a2.82,2.82,0,0,0,.2,1.78,14.62,14.62,0,0,0,.86,2.21c.33.68.7,1.36,1.11,2a2.81,2.81,0,0,0,1.57,1.51c2.32.77,3.58-1.29,4.37-2.12,1.34-1.39,2.7-2.77,3.89-4.2.74-.89-1.46-1.66-2.37-.78s-2,2-2.93,3.07L710,703.36l-.71.78-.3.33c.68.12.88.07.58-.14,0-.16-.42-.47-.55-.63s-.47-.57-.69-.86q-.62-.81-1.14-1.62c-.34-.53-.67-1.05-1-1.58a4.33,4.33,0,0,0-1-1.37c-.13-.11-.48-.11-.54,0Z" transform="translate(2.06 -607)"/><path class="cls-2" d="M740.47,698.57a10.94,10.94,0,0,0,2.17,4c.49.67,1,1.35,1.56,2a3.68,3.68,0,0,0,2,1.2,3.41,3.41,0,0,0,4-1.79,23.39,23.39,0,0,0,2.51-4.46c.24-.76-1.68-1.37-2.37-.56a18.18,18.18,0,0,0-2,3.2c-.3.55-.61,1.1-.92,1.64,0,.08-.21.56-.37.61s-.07.08,0,0a2.52,2.52,0,0,1-.43-.24,15,15,0,0,1-2.87-2.79,33.12,33.12,0,0,0-2.79-2.93c-.13-.11-.53-.08-.49.08Z" transform="translate(2.06 -607)"/><path class="cls-3" d="M595,690.71a27.2,27.2,0,0,0,.07,3.61c0,.8-.27,2.14,1,2.66,1.47.59,2.72-.6,3.52-1.2a22.8,22.8,0,0,0,3.26-2.85c.62-.7-1-1.25-1.69-.62s-1.55,1.42-2.36,2.1c-.42.36-.86.7-1.3,1a6.64,6.64,0,0,1-.66.49l.14.07a.65.65,0,0,1-.15-.23,10.35,10.35,0,0,1-.58-2.49,20.8,20.8,0,0,0-.69-2.63c-.07-.21-.55-.15-.57.05Z" transform="translate(2.06 -607)"/><path class="cls-3" d="M623.39,693.18a16.11,16.11,0,0,0,2.12,4.06c.48.78,1.26,2.77,3.28,2.08a2.13,2.13,0,0,0,1.22-1.19,15.9,15.9,0,0,0,.69-1.67,6,6,0,0,1,2-3.14c.89-.64-.57-1.58-1.5-.94-2.12,1.45-2.31,3.37-3.09,5.18,0,.1-.35.5-.3.58s.24.11.26,0-.29-.32-.37-.41c-.43-.51-.85-1-1.25-1.54-.83-1.06-1.36-2.21-2.2-3.26-.27-.34-1-.08-.9.23Z" transform="translate(2.06 -607)"/><path class="cls-4" d="M541.57,709.49l-.35.2Z" transform="translate(2.06 -607)"/><rect class="cls-5" x="21.75" y="98.44" width="474.72" height="9.3"/><rect class="cls-5" x="21.75" y="141.13" width="474.72" height="10.6"/><path class="cls-6" d="M22,686.28c-8.09,0-14.64,2.23-14.64,5v74.36H36.69V691.25C36.69,688.51,30.13,686.28,22,686.28Z" transform="translate(2.06 -607)"/><path class="cls-7" d="M36.69,765.61V691.25c0-2.74-6.56-5-14.65-5a38.65,38.65,0,0,0-7.22.65s13.3-1.14,16.19,3.59,2.31,62.47,0,67.69-18.89,2.94-23.61-2.77v10.17Z" transform="translate(2.06 -607)"/><path class="cls-5" d="M25.51,710.09c0,1.08-1.55,2-3.47,2s-3.46-.88-3.46-2,1.55-2,3.46-2S25.51,709,25.51,710.09Z" transform="translate(2.06 -607)"/><path class="cls-5" d="M25.51,754.3c0,1.08-1.55,2-3.47,2s-3.46-.88-3.46-2,1.55-2,3.46-2S25.51,753.22,25.51,754.3Z" transform="translate(2.06 -607)"/><path class="cls-6" d="M58.18,695.33c-8.09,0-14.64,2-14.64,4.41v65.87H72.83V699.74C72.83,697.31,66.27,695.33,58.18,695.33Z" transform="translate(2.06 -607)"/><path class="cls-7" d="M72.83,765.61V699.74c0-2.43-6.56-4.41-14.65-4.41a43.81,43.81,0,0,0-7.22.58s13.3-1,16.19,3.18,2.31,55.34,0,60-18.89,2.6-23.61-2.46v9Z" transform="translate(2.06 -607)"/><path class="cls-5" d="M61.65,710.09c0,1.08-1.55,2-3.47,2s-3.47-.88-3.47-2,1.56-2,3.47-2S61.65,709,61.65,710.09Z" transform="translate(2.06 -607)"/><path class="cls-5" d="M61.65,754.3c0,1.08-1.55,2-3.47,2s-3.47-.88-3.47-2,1.56-2,3.47-2S61.65,753.22,61.65,754.3Z" transform="translate(2.06 -607)"/><path class="cls-6" d="M94.32,686.28c-8.09,0-14.64,2.23-14.64,5v74.36H109V691.25C109,688.51,102.41,686.28,94.32,686.28Z" transform="translate(2.06 -607)"/><path class="cls-7" d="M109,765.61V691.25c0-2.74-6.56-5-14.65-5a38.65,38.65,0,0,0-7.22.65s13.3-1.14,16.19,3.59,2.31,62.47,0,67.69-18.89,2.94-23.61-2.77v10.17Z" transform="translate(2.06 -607)"/><path class="cls-5" d="M97.79,710.09c0,1.08-1.55,2-3.47,2s-3.46-.88-3.46-2,1.55-2,3.46-2S97.79,709,97.79,710.09Z" transform="translate(2.06 -607)"/><path class="cls-5" d="M97.79,754.3c0,1.08-1.55,2-3.47,2s-3.46-.88-3.46-2,1.55-2,3.46-2S97.79,753.22,97.79,754.3Z" transform="translate(2.06 -607)"/><path class="cls-6" d="M130.46,695.33c-8.09,0-14.64,2-14.64,4.41v65.87h29.29V699.74C145.11,697.31,138.55,695.33,130.46,695.33Z" transform="translate(2.06 -607)"/><path class="cls-7" d="M145.11,765.61V699.74c0-2.43-6.56-4.41-14.65-4.41a43.81,43.81,0,0,0-7.22.58s13.3-1,16.19,3.18,2.31,55.34,0,60-18.89,2.6-23.61-2.46v9Z" transform="translate(2.06 -607)"/><path class="cls-5" d="M133.93,710.09c0,1.08-1.55,2-3.47,2s-3.47-.88-3.47-2,1.56-2,3.47-2S133.93,709,133.93,710.09Z" transform="translate(2.06 -607)"/><path class="cls-5" d="M133.93,754.3c0,1.08-1.55,2-3.47,2s-3.47-.88-3.47-2,1.56-2,3.47-2S133.93,753.22,133.93,754.3Z" transform="translate(2.06 -607)"/><path class="cls-6" d="M166.6,686.28c-8.09,0-14.64,2.23-14.64,5v74.36h29.29V691.25C181.25,688.51,174.69,686.28,166.6,686.28Z" transform="translate(2.06 -607)"/><path class="cls-7" d="M181.25,765.61V691.25c0-2.74-6.56-5-14.65-5a38.65,38.65,0,0,0-7.22.65s13.3-1.14,16.19,3.59,2.31,62.47,0,67.69-18.89,2.94-23.61-2.77v10.17Z" transform="translate(2.06 -607)"/><path class="cls-5" d="M170.07,710.09c0,1.08-1.55,2-3.47,2s-3.46-.88-3.46-2,1.55-2,3.46-2S170.07,709,170.07,710.09Z" transform="translate(2.06 -607)"/><path class="cls-5" d="M170.07,754.3c0,1.08-1.55,2-3.47,2s-3.46-.88-3.46-2,1.55-2,3.46-2S170.07,753.22,170.07,754.3Z" transform="translate(2.06 -607)"/><path class="cls-6" d="M202.74,695.33c-8.09,0-14.64,2-14.64,4.41v65.87h29.29V699.74C217.39,697.31,210.83,695.33,202.74,695.33Z" transform="translate(2.06 -607)"/><path class="cls-7" d="M217.39,765.61V699.74c0-2.43-6.56-4.41-14.65-4.41a43.81,43.81,0,0,0-7.22.58s13.3-1,16.19,3.18,2.31,55.34,0,60-18.89,2.6-23.61-2.46v9Z" transform="translate(2.06 -607)"/><path class="cls-5" d="M206.21,710.09c0,1.08-1.55,2-3.47,2s-3.47-.88-3.47-2,1.56-2,3.47-2S206.21,709,206.21,710.09Z" transform="translate(2.06 -607)"/><path class="cls-5" d="M206.21,754.3c0,1.08-1.55,2-3.47,2s-3.47-.88-3.47-2,1.56-2,3.47-2S206.21,753.22,206.21,754.3Z" transform="translate(2.06 -607)"/><path class="cls-6" d="M238.88,686.28c-8.09,0-14.64,2.23-14.64,5v74.36h29.29V691.25C253.53,688.51,247,686.28,238.88,686.28Z" transform="translate(2.06 -607)"/><path class="cls-7" d="M253.53,765.61V691.25c0-2.74-6.56-5-14.65-5a38.65,38.65,0,0,0-7.22.65s13.3-1.14,16.19,3.59,2.31,62.47,0,67.69-18.89,2.94-23.61-2.77v10.17Z" transform="translate(2.06 -607)"/><path class="cls-5" d="M242.35,710.09c0,1.08-1.55,2-3.47,2s-3.46-.88-3.46-2,1.55-2,3.46-2S242.35,709,242.35,710.09Z" transform="translate(2.06 -607)"/><path class="cls-5" d="M242.35,754.3c0,1.08-1.55,2-3.47,2s-3.46-.88-3.46-2,1.55-2,3.46-2S242.35,753.22,242.35,754.3Z" transform="translate(2.06 -607)"/><path class="cls-6" d="M275,695.33c-8.09,0-14.64,2-14.64,4.41v65.87h29.29V699.74C289.67,697.31,283.11,695.33,275,695.33Z" transform="translate(2.06 -607)"/><path class="cls-7" d="M289.67,765.61V699.74c0-2.43-6.56-4.41-14.65-4.41a43.81,43.81,0,0,0-7.22.58s13.3-1,16.19,3.18,2.31,55.34,0,60-18.89,2.6-23.61-2.46v9Z" transform="translate(2.06 -607)"/><path class="cls-5" d="M278.49,710.09c0,1.08-1.55,2-3.47,2s-3.47-.88-3.47-2,1.56-2,3.47-2S278.49,709,278.49,710.09Z" transform="translate(2.06 -607)"/><path class="cls-5" d="M278.49,754.3c0,1.08-1.55,2-3.47,2s-3.47-.88-3.47-2,1.56-2,3.47-2S278.49,753.22,278.49,754.3Z" transform="translate(2.06 -607)"/><path class="cls-6" d="M311.16,686.28c-8.09,0-14.64,2.23-14.64,5v74.36h29.29V691.25C325.81,688.51,319.25,686.28,311.16,686.28Z" transform="translate(2.06 -607)"/><path class="cls-7" d="M325.81,765.61V691.25c0-2.74-6.56-5-14.65-5a38.65,38.65,0,0,0-7.22.65s13.3-1.14,16.19,3.59,2.31,62.47,0,67.69-18.89,2.94-23.61-2.77v10.17Z" transform="translate(2.06 -607)"/><path class="cls-5" d="M314.63,710.09c0,1.08-1.55,2-3.47,2s-3.47-.88-3.47-2,1.56-2,3.47-2S314.63,709,314.63,710.09Z" transform="translate(2.06 -607)"/><path class="cls-5" d="M314.63,754.3c0,1.08-1.55,2-3.47,2s-3.47-.88-3.47-2,1.56-2,3.47-2S314.63,753.22,314.63,754.3Z" transform="translate(2.06 -607)"/><path class="cls-6" d="M347.3,695.33c-8.09,0-14.64,2-14.64,4.41v65.87H362V699.74C362,697.31,355.39,695.33,347.3,695.33Z" transform="translate(2.06 -607)"/><path class="cls-7" d="M362,765.61V699.74c0-2.43-6.56-4.41-14.65-4.41a43.81,43.81,0,0,0-7.22.58s13.3-1,16.19,3.18,2.31,55.34,0,60-18.89,2.6-23.61-2.46v9Z" transform="translate(2.06 -607)"/><path class="cls-5" d="M350.77,710.09c0,1.08-1.55,2-3.47,2s-3.47-.88-3.47-2,1.56-2,3.47-2S350.77,709,350.77,710.09Z" transform="translate(2.06 -607)"/><path class="cls-5" d="M350.77,754.3c0,1.08-1.55,2-3.47,2s-3.47-.88-3.47-2,1.56-2,3.47-2S350.77,753.22,350.77,754.3Z" transform="translate(2.06 -607)"/><path class="cls-6" d="M383.44,686.28c-8.09,0-14.64,2.23-14.64,5v74.36h29.29V691.25C398.09,688.51,391.53,686.28,383.44,686.28Z" transform="translate(2.06 -607)"/><path class="cls-7" d="M398.09,765.61V691.25c0-2.74-6.56-5-14.65-5a38.65,38.65,0,0,0-7.22.65s13.3-1.14,16.19,3.59,2.31,62.47,0,67.69-18.89,2.94-23.61-2.77v10.17Z" transform="translate(2.06 -607)"/><path class="cls-5" d="M386.91,710.09c0,1.08-1.55,2-3.47,2s-3.47-.88-3.47-2,1.56-2,3.47-2S386.91,709,386.91,710.09Z" transform="translate(2.06 -607)"/><path class="cls-5" d="M386.91,754.3c0,1.08-1.55,2-3.47,2s-3.47-.88-3.47-2,1.56-2,3.47-2S386.91,753.22,386.91,754.3Z" transform="translate(2.06 -607)"/><path class="cls-6" d="M419.58,695.33c-8.09,0-14.64,2-14.64,4.41v65.87h29.29V699.74C434.23,697.31,427.67,695.33,419.58,695.33Z" transform="translate(2.06 -607)"/><path class="cls-7" d="M434.23,765.61V699.74c0-2.43-6.56-4.41-14.65-4.41a43.81,43.81,0,0,0-7.22.58s13.3-1,16.19,3.18,2.31,55.34,0,60-18.89,2.6-23.61-2.46v9Z" transform="translate(2.06 -607)"/><path class="cls-5" d="M423.05,710.09c0,1.08-1.55,2-3.47,2s-3.47-.88-3.47-2,1.56-2,3.47-2S423.05,709,423.05,710.09Z" transform="translate(2.06 -607)"/><path class="cls-5" d="M423.05,754.3c0,1.08-1.55,2-3.47,2s-3.47-.88-3.47-2,1.56-2,3.47-2S423.05,753.22,423.05,754.3Z" transform="translate(2.06 -607)"/><path class="cls-6" d="M455.72,686.28c-8.09,0-14.64,2.23-14.64,5v74.36h29.29V691.25C470.37,688.51,463.81,686.28,455.72,686.28Z" transform="translate(2.06 -607)"/><path class="cls-7" d="M470.37,765.61V691.25c0-2.74-6.56-5-14.65-5a38.65,38.65,0,0,0-7.22.65s13.3-1.14,16.19,3.59,2.31,62.47,0,67.69-18.89,2.94-23.61-2.77v10.17Z" transform="translate(2.06 -607)"/><path class="cls-5" d="M459.19,710.09c0,1.08-1.55,2-3.47,2s-3.47-.88-3.47-2,1.56-2,3.47-2S459.19,709,459.19,710.09Z" transform="translate(2.06 -607)"/><path class="cls-5" d="M459.19,754.3c0,1.08-1.55,2-3.47,2s-3.47-.88-3.47-2,1.56-2,3.47-2S459.19,753.22,459.19,754.3Z" transform="translate(2.06 -607)"/><path class="cls-6" d="M491.86,695.33c-8.09,0-14.64,2-14.64,4.41v65.87h29.29V699.74C506.51,697.31,500,695.33,491.86,695.33Z" transform="translate(2.06 -607)"/><path class="cls-7" d="M506.51,765.61V699.74c0-2.43-6.56-4.41-14.65-4.41a43.81,43.81,0,0,0-7.22.58s13.3-1,16.19,3.18,2.31,55.34,0,60-18.89,2.6-23.61-2.46v9Z" transform="translate(2.06 -607)"/><path class="cls-5" d="M495.33,710.09c0,1.08-1.55,2-3.47,2s-3.47-.88-3.47-2,1.56-2,3.47-2S495.33,709,495.33,710.09Z" transform="translate(2.06 -607)"/><path class="cls-5" d="M495.33,754.3c0,1.08-1.55,2-3.47,2s-3.47-.88-3.47-2,1.56-2,3.47-2S495.33,753.22,495.33,754.3Z" transform="translate(2.06 -607)"/><path class="cls-8" d="M516.15,768H-2.06s1.3-3.59,9.65-6.85c0,0-2.59,1.79-2.31,3.42A156.9,156.9,0,0,1,28,761.15a59.05,59.05,0,0,0-6.34,2.45s18.72.49,29.66-4.08c0,0,1.15,2.77-3.74,4.24,0,0,25-.33,32.53-3.26A10.45,10.45,0,0,1,75,763.76s23,2.45,27.35-2.77c0,0,.28,2-2,3.58,0,0,18.14-4.89,28.21-4.07a32.43,32.43,0,0,0-6.33,2.28s26.49.82,34-2.12a13.36,13.36,0,0,1-5.76,3.1s28.51-.16,34.55-2.94a4.67,4.67,0,0,1-3.16,2.94s27.54-2.5,35.41-2.28c0,0-5,.76-6.91,1.84,0,0,26.29.55,33.39-2.61a5.83,5.83,0,0,1-4,2.51s26.3-2.18,33.21-1.74c0,0-4.42,1-6.91,1.84,0,0,22.45-.32,25.72-2.93a3.21,3.21,0,0,1-1.92,2.93S315.25,763,321,761a12.29,12.29,0,0,1-6.91,3.37s25.15-.22,27.06-3.37c0,0,.77,2.07-1.91,3.15,0,0,23.79-2.28,31.47-2.06,0,0-4.22.54-5.76,1.63,0,0,23.61,1,29.56-1.74a6,6,0,0,1-3.45,2.61s25.33,0,27.83-4c0,0-.2,2.71,3.84,3.69s22.45-2.61,22.45-2.61a24.92,24.92,0,0,1-7.48,2.94s21.88-.33,24.18-2.83c0,0,1.34,1-1.54,2.61,0,0,19.2-2.28,25.72-2.06a23.51,23.51,0,0,0-5,1.41s17.28.43,21.5-2.28a11.43,11.43,0,0,1-4.22,2.71s8.82-.43,12.86,1.42a22.15,22.15,0,0,0-4-1.85S516.15,764.52,516.15,768Z" transform="translate(2.06 -607)"/><path class="cls-4" d="M541.57,709.49l-.35.2Z" transform="translate(2.06 -607)"/><rect class="cls-5" x="21.75" y="98.44" width="474.72" height="9.3"/><rect class="cls-5" x="21.75" y="141.13" width="474.72" height="10.6"/><path class="cls-6" d="M22,686.28c-8.09,0-14.64,2.23-14.64,5v74.36H36.69V691.25C36.69,688.51,30.13,686.28,22,686.28Z" transform="translate(2.06 -607)"/><path class="cls-7" d="M36.69,765.61V691.25c0-2.74-6.56-5-14.65-5a38.65,38.65,0,0,0-7.22.65s13.3-1.14,16.19,3.59,2.31,62.47,0,67.69-18.89,2.94-23.61-2.77v10.17Z" transform="translate(2.06 -607)"/><path class="cls-5" d="M25.51,710.09c0,1.08-1.55,2-3.47,2s-3.46-.88-3.46-2,1.55-2,3.46-2S25.51,709,25.51,710.09Z" transform="translate(2.06 -607)"/><path class="cls-5" d="M25.51,754.3c0,1.08-1.55,2-3.47,2s-3.46-.88-3.46-2,1.55-2,3.46-2S25.51,753.22,25.51,754.3Z" transform="translate(2.06 -607)"/><path class="cls-6" d="M58.18,695.33c-8.09,0-14.64,2-14.64,4.41v65.87H72.83V699.74C72.83,697.31,66.27,695.33,58.18,695.33Z" transform="translate(2.06 -607)"/><path class="cls-7" d="M72.83,765.61V699.74c0-2.43-6.56-4.41-14.65-4.41a43.81,43.81,0,0,0-7.22.58s13.3-1,16.19,3.18,2.31,55.34,0,60-18.89,2.6-23.61-2.46v9Z" transform="translate(2.06 -607)"/><path class="cls-5" d="M61.65,710.09c0,1.08-1.55,2-3.47,2s-3.47-.88-3.47-2,1.56-2,3.47-2S61.65,709,61.65,710.09Z" transform="translate(2.06 -607)"/><path class="cls-5" d="M61.65,754.3c0,1.08-1.55,2-3.47,2s-3.47-.88-3.47-2,1.56-2,3.47-2S61.65,753.22,61.65,754.3Z" transform="translate(2.06 -607)"/><path class="cls-6" d="M94.32,686.28c-8.09,0-14.64,2.23-14.64,5v74.36H109V691.25C109,688.51,102.41,686.28,94.32,686.28Z" transform="translate(2.06 -607)"/><path class="cls-7" d="M109,765.61V691.25c0-2.74-6.56-5-14.65-5a38.65,38.65,0,0,0-7.22.65s13.3-1.14,16.19,3.59,2.31,62.47,0,67.69-18.89,2.94-23.61-2.77v10.17Z" transform="translate(2.06 -607)"/><path class="cls-5" d="M97.79,710.09c0,1.08-1.55,2-3.47,2s-3.46-.88-3.46-2,1.55-2,3.46-2S97.79,709,97.79,710.09Z" transform="translate(2.06 -607)"/><path class="cls-5" d="M97.79,754.3c0,1.08-1.55,2-3.47,2s-3.46-.88-3.46-2,1.55-2,3.46-2S97.79,753.22,97.79,754.3Z" transform="translate(2.06 -607)"/><path class="cls-6" d="M130.46,695.33c-8.09,0-14.64,2-14.64,4.41v65.87h29.29V699.74C145.11,697.31,138.55,695.33,130.46,695.33Z" transform="translate(2.06 -607)"/><path class="cls-7" d="M145.11,765.61V699.74c0-2.43-6.56-4.41-14.65-4.41a43.81,43.81,0,0,0-7.22.58s13.3-1,16.19,3.18,2.31,55.34,0,60-18.89,2.6-23.61-2.46v9Z" transform="translate(2.06 -607)"/><path class="cls-5" d="M133.93,710.09c0,1.08-1.55,2-3.47,2s-3.47-.88-3.47-2,1.56-2,3.47-2S133.93,709,133.93,710.09Z" transform="translate(2.06 -607)"/><path class="cls-5" d="M133.93,754.3c0,1.08-1.55,2-3.47,2s-3.47-.88-3.47-2,1.56-2,3.47-2S133.93,753.22,133.93,754.3Z" transform="translate(2.06 -607)"/><path class="cls-6" d="M166.6,686.28c-8.09,0-14.64,2.23-14.64,5v74.36h29.29V691.25C181.25,688.51,174.69,686.28,166.6,686.28Z" transform="translate(2.06 -607)"/><path class="cls-7" d="M181.25,765.61V691.25c0-2.74-6.56-5-14.65-5a38.65,38.65,0,0,0-7.22.65s13.3-1.14,16.19,3.59,2.31,62.47,0,67.69-18.89,2.94-23.61-2.77v10.17Z" transform="translate(2.06 -607)"/><path class="cls-5" d="M170.07,710.09c0,1.08-1.55,2-3.47,2s-3.46-.88-3.46-2,1.55-2,3.46-2S170.07,709,170.07,710.09Z" transform="translate(2.06 -607)"/><path class="cls-5" d="M170.07,754.3c0,1.08-1.55,2-3.47,2s-3.46-.88-3.46-2,1.55-2,3.46-2S170.07,753.22,170.07,754.3Z" transform="translate(2.06 -607)"/><path class="cls-6" d="M202.74,695.33c-8.09,0-14.64,2-14.64,4.41v65.87h29.29V699.74C217.39,697.31,210.83,695.33,202.74,695.33Z" transform="translate(2.06 -607)"/><path class="cls-7" d="M217.39,765.61V699.74c0-2.43-6.56-4.41-14.65-4.41a43.81,43.81,0,0,0-7.22.58s13.3-1,16.19,3.18,2.31,55.34,0,60-18.89,2.6-23.61-2.46v9Z" transform="translate(2.06 -607)"/><path class="cls-5" d="M206.21,710.09c0,1.08-1.55,2-3.47,2s-3.47-.88-3.47-2,1.56-2,3.47-2S206.21,709,206.21,710.09Z" transform="translate(2.06 -607)"/><path class="cls-5" d="M206.21,754.3c0,1.08-1.55,2-3.47,2s-3.47-.88-3.47-2,1.56-2,3.47-2S206.21,753.22,206.21,754.3Z" transform="translate(2.06 -607)"/><path class="cls-6" d="M238.88,686.28c-8.09,0-14.64,2.23-14.64,5v74.36h29.29V691.25C253.53,688.51,247,686.28,238.88,686.28Z" transform="translate(2.06 -607)"/><path class="cls-7" d="M253.53,765.61V691.25c0-2.74-6.56-5-14.65-5a38.65,38.65,0,0,0-7.22.65s13.3-1.14,16.19,3.59,2.31,62.47,0,67.69-18.89,2.94-23.61-2.77v10.17Z" transform="translate(2.06 -607)"/><path class="cls-5" d="M242.35,710.09c0,1.08-1.55,2-3.47,2s-3.46-.88-3.46-2,1.55-2,3.46-2S242.35,709,242.35,710.09Z" transform="translate(2.06 -607)"/><path class="cls-5" d="M242.35,754.3c0,1.08-1.55,2-3.47,2s-3.46-.88-3.46-2,1.55-2,3.46-2S242.35,753.22,242.35,754.3Z" transform="translate(2.06 -607)"/><path class="cls-6" d="M275,695.33c-8.09,0-14.64,2-14.64,4.41v65.87h29.29V699.74C289.67,697.31,283.11,695.33,275,695.33Z" transform="translate(2.06 -607)"/><path class="cls-7" d="M289.67,765.61V699.74c0-2.43-6.56-4.41-14.65-4.41a43.81,43.81,0,0,0-7.22.58s13.3-1,16.19,3.18,2.31,55.34,0,60-18.89,2.6-23.61-2.46v9Z" transform="translate(2.06 -607)"/><path class="cls-5" d="M278.49,710.09c0,1.08-1.55,2-3.47,2s-3.47-.88-3.47-2,1.56-2,3.47-2S278.49,709,278.49,710.09Z" transform="translate(2.06 -607)"/><path class="cls-5" d="M278.49,754.3c0,1.08-1.55,2-3.47,2s-3.47-.88-3.47-2,1.56-2,3.47-2S278.49,753.22,278.49,754.3Z" transform="translate(2.06 -607)"/><path class="cls-6" d="M311.16,686.28c-8.09,0-14.64,2.23-14.64,5v74.36h29.29V691.25C325.81,688.51,319.25,686.28,311.16,686.28Z" transform="translate(2.06 -607)"/><path class="cls-7" d="M325.81,765.61V691.25c0-2.74-6.56-5-14.65-5a38.65,38.65,0,0,0-7.22.65s13.3-1.14,16.19,3.59,2.31,62.47,0,67.69-18.89,2.94-23.61-2.77v10.17Z" transform="translate(2.06 -607)"/><path class="cls-5" d="M314.63,710.09c0,1.08-1.55,2-3.47,2s-3.47-.88-3.47-2,1.56-2,3.47-2S314.63,709,314.63,710.09Z" transform="translate(2.06 -607)"/><path class="cls-5" d="M314.63,754.3c0,1.08-1.55,2-3.47,2s-3.47-.88-3.47-2,1.56-2,3.47-2S314.63,753.22,314.63,754.3Z" transform="translate(2.06 -607)"/><path class="cls-6" d="M347.3,695.33c-8.09,0-14.64,2-14.64,4.41v65.87H362V699.74C362,697.31,355.39,695.33,347.3,695.33Z" transform="translate(2.06 -607)"/><path class="cls-7" d="M362,765.61V699.74c0-2.43-6.56-4.41-14.65-4.41a43.81,43.81,0,0,0-7.22.58s13.3-1,16.19,3.18,2.31,55.34,0,60-18.89,2.6-23.61-2.46v9Z" transform="translate(2.06 -607)"/><path class="cls-5" d="M350.77,710.09c0,1.08-1.55,2-3.47,2s-3.47-.88-3.47-2,1.56-2,3.47-2S350.77,709,350.77,710.09Z" transform="translate(2.06 -607)"/><path class="cls-5" d="M350.77,754.3c0,1.08-1.55,2-3.47,2s-3.47-.88-3.47-2,1.56-2,3.47-2S350.77,753.22,350.77,754.3Z" transform="translate(2.06 -607)"/><path class="cls-6" d="M383.44,686.28c-8.09,0-14.64,2.23-14.64,5v74.36h29.29V691.25C398.09,688.51,391.53,686.28,383.44,686.28Z" transform="translate(2.06 -607)"/><path class="cls-7" d="M398.09,765.61V691.25c0-2.74-6.56-5-14.65-5a38.65,38.65,0,0,0-7.22.65s13.3-1.14,16.19,3.59,2.31,62.47,0,67.69-18.89,2.94-23.61-2.77v10.17Z" transform="translate(2.06 -607)"/><path class="cls-5" d="M386.91,710.09c0,1.08-1.55,2-3.47,2s-3.47-.88-3.47-2,1.56-2,3.47-2S386.91,709,386.91,710.09Z" transform="translate(2.06 -607)"/><path class="cls-5" d="M386.91,754.3c0,1.08-1.55,2-3.47,2s-3.47-.88-3.47-2,1.56-2,3.47-2S386.91,753.22,386.91,754.3Z" transform="translate(2.06 -607)"/><path class="cls-6" d="M419.58,695.33c-8.09,0-14.64,2-14.64,4.41v65.87h29.29V699.74C434.23,697.31,427.67,695.33,419.58,695.33Z" transform="translate(2.06 -607)"/><path class="cls-7" d="M434.23,765.61V699.74c0-2.43-6.56-4.41-14.65-4.41a43.81,43.81,0,0,0-7.22.58s13.3-1,16.19,3.18,2.31,55.34,0,60-18.89,2.6-23.61-2.46v9Z" transform="translate(2.06 -607)"/><path class="cls-5" d="M423.05,710.09c0,1.08-1.55,2-3.47,2s-3.47-.88-3.47-2,1.56-2,3.47-2S423.05,709,423.05,710.09Z" transform="translate(2.06 -607)"/><path class="cls-5" d="M423.05,754.3c0,1.08-1.55,2-3.47,2s-3.47-.88-3.47-2,1.56-2,3.47-2S423.05,753.22,423.05,754.3Z" transform="translate(2.06 -607)"/><path class="cls-6" d="M455.72,686.28c-8.09,0-14.64,2.23-14.64,5v74.36h29.29V691.25C470.37,688.51,463.81,686.28,455.72,686.28Z" transform="translate(2.06 -607)"/><path class="cls-7" d="M470.37,765.61V691.25c0-2.74-6.56-5-14.65-5a38.65,38.65,0,0,0-7.22.65s13.3-1.14,16.19,3.59,2.31,62.47,0,67.69-18.89,2.94-23.61-2.77v10.17Z" transform="translate(2.06 -607)"/><path class="cls-5" d="M459.19,710.09c0,1.08-1.55,2-3.47,2s-3.47-.88-3.47-2,1.56-2,3.47-2S459.19,709,459.19,710.09Z" transform="translate(2.06 -607)"/><path class="cls-5" d="M459.19,754.3c0,1.08-1.55,2-3.47,2s-3.47-.88-3.47-2,1.56-2,3.47-2S459.19,753.22,459.19,754.3Z" transform="translate(2.06 -607)"/><path class="cls-6" d="M491.86,695.33c-8.09,0-14.64,2-14.64,4.41v65.87h29.29V699.74C506.51,697.31,500,695.33,491.86,695.33Z" transform="translate(2.06 -607)"/><path class="cls-7" d="M506.51,765.61V699.74c0-2.43-6.56-4.41-14.65-4.41a43.81,43.81,0,0,0-7.22.58s13.3-1,16.19,3.18,2.31,55.34,0,60-18.89,2.6-23.61-2.46v9Z" transform="translate(2.06 -607)"/><path class="cls-5" d="M495.33,710.09c0,1.08-1.55,2-3.47,2s-3.47-.88-3.47-2,1.56-2,3.47-2S495.33,709,495.33,710.09Z" transform="translate(2.06 -607)"/><path class="cls-5" d="M495.33,754.3c0,1.08-1.55,2-3.47,2s-3.47-.88-3.47-2,1.56-2,3.47-2S495.33,753.22,495.33,754.3Z" transform="translate(2.06 -607)"/><path class="cls-8" d="M516.15,768H-2.06s1.3-3.59,9.65-6.85c0,0-2.59,1.79-2.31,3.42A156.9,156.9,0,0,1,28,761.15a59.05,59.05,0,0,0-6.34,2.45s18.72.49,29.66-4.08c0,0,1.15,2.77-3.74,4.24,0,0,25-.33,32.53-3.26A10.45,10.45,0,0,1,75,763.76s23,2.45,27.35-2.77c0,0,.28,2-2,3.58,0,0,18.14-4.89,28.21-4.07a32.43,32.43,0,0,0-6.33,2.28s26.49.82,34-2.12a13.36,13.36,0,0,1-5.76,3.1s28.51-.16,34.55-2.94a4.67,4.67,0,0,1-3.16,2.94s27.54-2.5,35.41-2.28c0,0-5,.76-6.91,1.84,0,0,26.29.55,33.39-2.61a5.83,5.83,0,0,1-4,2.51s26.3-2.18,33.21-1.74c0,0-4.42,1-6.91,1.84,0,0,22.45-.32,25.72-2.93a3.21,3.21,0,0,1-1.92,2.93S315.25,763,321,761a12.29,12.29,0,0,1-6.91,3.37s25.15-.22,27.06-3.37c0,0,.77,2.07-1.91,3.15,0,0,23.79-2.28,31.47-2.06,0,0-4.22.54-5.76,1.63,0,0,23.61,1,29.56-1.74a6,6,0,0,1-3.45,2.61s25.33,0,27.83-4c0,0-.2,2.71,3.84,3.69s22.45-2.61,22.45-2.61a24.92,24.92,0,0,1-7.48,2.94s21.88-.33,24.18-2.83c0,0,1.34,1-1.54,2.61,0,0,19.2-2.28,25.72-2.06a23.51,23.51,0,0,0-5,1.41s17.28.43,21.5-2.28a11.43,11.43,0,0,1-4.22,2.71s8.82-.43,12.86,1.42a22.15,22.15,0,0,0-4-1.85S516.15,764.52,516.15,768Z" transform="translate(2.06 -607)"/><rect class="cls-5" x="507.72" y="142.22" width="474.72" height="10.6"/><rect class="cls-5" x="507.54" y="101.18" width="496.77" height="6.28"/><path class="cls-6" d="M529.89,686c-8.09,0-14.65,2.23-14.65,5v74.35h29.3V691C544.54,688.23,538,686,529.89,686Z" transform="translate(2.06 -607)"/><path class="cls-7" d="M544.54,765.33V691c0-2.75-6.56-5-14.65-5a38.84,38.84,0,0,0-7.23.65s13.31-1.14,16.2,3.59,2.31,62.47,0,67.69-18.89,2.94-23.62-2.77v10.17Z" transform="translate(2.06 -607)"/><path class="cls-5" d="M533.36,709.81c0,1.09-1.55,2-3.47,2s-3.47-.87-3.47-2,1.56-1.95,3.47-1.95S533.36,708.73,533.36,709.81Z" transform="translate(2.06 -607)"/><path class="cls-5" d="M533.36,754c0,1.08-1.55,2-3.47,2s-3.47-.88-3.47-2,1.56-2,3.47-2S533.36,752.94,533.36,754Z" transform="translate(2.06 -607)"/><path class="cls-6" d="M566,695.06c-8.09,0-14.65,2-14.65,4.4v65.87h29.3V699.46C580.68,697,574.12,695.06,566,695.06Z" transform="translate(2.06 -607)"/><path class="cls-7" d="M580.68,765.33V699.46c0-2.43-6.56-4.4-14.65-4.4a44.09,44.09,0,0,0-7.23.57s13.31-1,16.2,3.18,2.31,55.34,0,60-18.89,2.6-23.62-2.46v9Z" transform="translate(2.06 -607)"/><path class="cls-5" d="M569.5,709.81c0,1.09-1.55,2-3.47,2s-3.47-.87-3.47-2,1.56-1.95,3.47-1.95S569.5,708.73,569.5,709.81Z" transform="translate(2.06 -607)"/><path class="cls-5" d="M569.5,754c0,1.08-1.55,2-3.47,2s-3.47-.88-3.47-2,1.56-2,3.47-2S569.5,752.94,569.5,754Z" transform="translate(2.06 -607)"/><path class="cls-6" d="M602.17,686c-8.09,0-14.65,2.23-14.65,5v74.35h29.3V691C616.82,688.23,610.26,686,602.17,686Z" transform="translate(2.06 -607)"/><path class="cls-7" d="M616.82,765.33V691c0-2.75-6.56-5-14.65-5a38.84,38.84,0,0,0-7.23.65s13.31-1.14,16.2,3.59,2.31,62.47,0,67.69-18.89,2.94-23.62-2.77v10.17Z" transform="translate(2.06 -607)"/><path class="cls-5" d="M605.64,709.81c0,1.09-1.55,2-3.47,2s-3.47-.87-3.47-2,1.56-1.95,3.47-1.95S605.64,708.73,605.64,709.81Z" transform="translate(2.06 -607)"/><path class="cls-5" d="M605.64,754c0,1.08-1.55,2-3.47,2s-3.47-.88-3.47-2,1.56-2,3.47-2S605.64,752.94,605.64,754Z" transform="translate(2.06 -607)"/><path class="cls-6" d="M638.31,695.06c-8.09,0-14.65,2-14.65,4.4v65.87H653V699.46C653,697,646.4,695.06,638.31,695.06Z" transform="translate(2.06 -607)"/><path class="cls-7" d="M653,765.33V699.46c0-2.43-6.56-4.4-14.65-4.4a44.09,44.09,0,0,0-7.23.57s13.31-1,16.2,3.18,2.31,55.34,0,60-18.89,2.6-23.62-2.46v9Z" transform="translate(2.06 -607)"/><path class="cls-5" d="M641.78,709.81c0,1.09-1.55,2-3.47,2s-3.47-.87-3.47-2,1.56-1.95,3.47-1.95S641.78,708.73,641.78,709.81Z" transform="translate(2.06 -607)"/><path class="cls-5" d="M641.78,754c0,1.08-1.55,2-3.47,2s-3.47-.88-3.47-2,1.56-2,3.47-2S641.78,752.94,641.78,754Z" transform="translate(2.06 -607)"/><path class="cls-6" d="M674.45,686c-8.09,0-14.65,2.23-14.65,5v74.35h29.3V691C689.1,688.23,682.54,686,674.45,686Z" transform="translate(2.06 -607)"/><path class="cls-7" d="M689.1,765.33V691c0-2.75-6.56-5-14.65-5a38.84,38.84,0,0,0-7.23.65s13.31-1.14,16.2,3.59,2.31,62.47,0,67.69-18.89,2.94-23.62-2.77v10.17Z" transform="translate(2.06 -607)"/><path class="cls-5" d="M677.92,709.81c0,1.09-1.55,2-3.47,2s-3.47-.87-3.47-2,1.56-1.95,3.47-1.95S677.92,708.73,677.92,709.81Z" transform="translate(2.06 -607)"/><path class="cls-5" d="M677.92,754c0,1.08-1.55,2-3.47,2s-3.47-.88-3.47-2,1.56-2,3.47-2S677.92,752.94,677.92,754Z" transform="translate(2.06 -607)"/><path class="cls-6" d="M710.59,695.06c-8.09,0-14.65,2-14.65,4.4v65.87h29.3V699.46C725.24,697,718.68,695.06,710.59,695.06Z" transform="translate(2.06 -607)"/><path class="cls-7" d="M725.24,765.33V699.46c0-2.43-6.56-4.4-14.65-4.4a44.09,44.09,0,0,0-7.23.57s13.31-1,16.2,3.18,2.31,55.34,0,60-18.89,2.6-23.62-2.46v9Z" transform="translate(2.06 -607)"/><path class="cls-5" d="M714.06,709.81c0,1.09-1.55,2-3.47,2s-3.47-.87-3.47-2,1.56-1.95,3.47-1.95S714.06,708.73,714.06,709.81Z" transform="translate(2.06 -607)"/><path class="cls-5" d="M714.06,754c0,1.08-1.55,2-3.47,2s-3.47-.88-3.47-2,1.56-2,3.47-2S714.06,752.94,714.06,754Z" transform="translate(2.06 -607)"/><path class="cls-6" d="M746.73,686c-8.09,0-14.65,2.23-14.65,5v74.35h29.3V691C761.38,688.23,754.82,686,746.73,686Z" transform="translate(2.06 -607)"/><path class="cls-7" d="M761.38,765.33V691c0-2.75-6.56-5-14.65-5a38.84,38.84,0,0,0-7.23.65s13.31-1.14,16.2,3.59,2.31,62.47,0,67.69-18.89,2.94-23.62-2.77v10.17Z" transform="translate(2.06 -607)"/><path class="cls-5" d="M750.2,709.81c0,1.09-1.55,2-3.47,2s-3.47-.87-3.47-2,1.56-1.95,3.47-1.95S750.2,708.73,750.2,709.81Z" transform="translate(2.06 -607)"/><path class="cls-5" d="M750.2,754c0,1.08-1.55,2-3.47,2s-3.47-.88-3.47-2,1.56-2,3.47-2S750.2,752.94,750.2,754Z" transform="translate(2.06 -607)"/><path class="cls-6" d="M782.87,695.06c-8.09,0-14.65,2-14.65,4.4v65.87h29.3V699.46C797.52,697,791,695.06,782.87,695.06Z" transform="translate(2.06 -607)"/><path class="cls-7" d="M797.52,765.33V699.46c0-2.43-6.56-4.4-14.65-4.4a44.09,44.09,0,0,0-7.23.57s13.31-1,16.2,3.18,2.31,55.34,0,60-18.89,2.6-23.62-2.46v9Z" transform="translate(2.06 -607)"/><path class="cls-5" d="M786.34,709.81c0,1.09-1.55,2-3.47,2s-3.47-.87-3.47-2,1.56-1.95,3.47-1.95S786.34,708.73,786.34,709.81Z" transform="translate(2.06 -607)"/><path class="cls-5" d="M786.34,754c0,1.08-1.55,2-3.47,2s-3.47-.88-3.47-2,1.56-2,3.47-2S786.34,752.94,786.34,754Z" transform="translate(2.06 -607)"/><path class="cls-6" d="M819,686c-8.09,0-14.65,2.23-14.65,5v74.35h29.3V691C833.66,688.23,827.1,686,819,686Z" transform="translate(2.06 -607)"/><path class="cls-7" d="M833.66,765.33V691c0-2.75-6.56-5-14.65-5a38.84,38.84,0,0,0-7.23.65s13.31-1.14,16.2,3.59,2.31,62.47,0,67.69-18.89,2.94-23.62-2.77v10.17Z" transform="translate(2.06 -607)"/><path class="cls-5" d="M822.48,709.81c0,1.09-1.55,2-3.47,2s-3.47-.87-3.47-2,1.56-1.95,3.47-1.95S822.48,708.73,822.48,709.81Z" transform="translate(2.06 -607)"/><path class="cls-5" d="M822.48,754c0,1.08-1.55,2-3.47,2s-3.47-.88-3.47-2,1.56-2,3.47-2S822.48,752.94,822.48,754Z" transform="translate(2.06 -607)"/><path class="cls-6" d="M855.15,695.06c-8.09,0-14.65,2-14.65,4.4v65.87h29.3V699.46C869.8,697,863.24,695.06,855.15,695.06Z" transform="translate(2.06 -607)"/><path class="cls-7" d="M869.8,765.33V699.46c0-2.43-6.56-4.4-14.65-4.4a44.09,44.09,0,0,0-7.23.57s13.3-1,16.2,3.18,2.31,55.34,0,60-18.89,2.6-23.62-2.46v9Z" transform="translate(2.06 -607)"/><path class="cls-5" d="M858.62,709.81c0,1.09-1.55,2-3.47,2s-3.47-.87-3.47-2,1.56-1.95,3.47-1.95S858.62,708.73,858.62,709.81Z" transform="translate(2.06 -607)"/><path class="cls-5" d="M858.62,754c0,1.08-1.55,2-3.47,2s-3.47-.88-3.47-2,1.56-2,3.47-2S858.62,752.94,858.62,754Z" transform="translate(2.06 -607)"/><path class="cls-6" d="M891.29,686c-8.09,0-14.65,2.23-14.65,5v74.35h29.3V691C905.94,688.23,899.38,686,891.29,686Z" transform="translate(2.06 -607)"/><path class="cls-7" d="M905.94,765.33V691c0-2.75-6.56-5-14.65-5a38.84,38.84,0,0,0-7.23.65s13.3-1.14,16.2,3.59,2.31,62.47,0,67.69-18.89,2.94-23.62-2.77v10.17Z" transform="translate(2.06 -607)"/><path class="cls-5" d="M894.76,709.81c0,1.09-1.55,2-3.47,2s-3.47-.87-3.47-2,1.56-1.95,3.47-1.95S894.76,708.73,894.76,709.81Z" transform="translate(2.06 -607)"/><path class="cls-5" d="M894.76,754c0,1.08-1.55,2-3.47,2s-3.47-.88-3.47-2,1.56-2,3.47-2S894.76,752.94,894.76,754Z" transform="translate(2.06 -607)"/><path class="cls-6" d="M927.43,695.06c-8.09,0-14.65,2-14.65,4.4v65.87h29.3V699.46C942.08,697,935.52,695.06,927.43,695.06Z" transform="translate(2.06 -607)"/><path class="cls-7" d="M942.08,765.33V699.46c0-2.43-6.56-4.4-14.65-4.4a44.09,44.09,0,0,0-7.23.57s13.3-1,16.2,3.18,2.31,55.34,0,60-18.89,2.6-23.62-2.46v9Z" transform="translate(2.06 -607)"/><path class="cls-5" d="M930.9,709.81c0,1.09-1.55,2-3.47,2s-3.47-.87-3.47-2,1.56-1.95,3.47-1.95S930.9,708.73,930.9,709.81Z" transform="translate(2.06 -607)"/><path class="cls-5" d="M930.9,754c0,1.08-1.55,2-3.47,2s-3.47-.88-3.47-2,1.56-2,3.47-2S930.9,752.94,930.9,754Z" transform="translate(2.06 -607)"/><path class="cls-6" d="M963.57,686c-8.09,0-14.65,2.23-14.65,5v74.35h29.3V691C978.22,688.23,971.66,686,963.57,686Z" transform="translate(2.06 -607)"/><path class="cls-7" d="M978.22,765.33V691c0-2.75-6.56-5-14.65-5a38.84,38.84,0,0,0-7.23.65s13.3-1.14,16.2,3.59,2.31,62.47,0,67.69-18.89,2.94-23.62-2.77v10.17Z" transform="translate(2.06 -607)"/><path class="cls-5" d="M967,709.81c0,1.09-1.55,2-3.47,2s-3.47-.87-3.47-2,1.56-1.95,3.47-1.95S967,708.73,967,709.81Z" transform="translate(2.06 -607)"/><path class="cls-5" d="M967,754c0,1.08-1.55,2-3.47,2s-3.47-.88-3.47-2,1.56-2,3.47-2S967,752.94,967,754Z" transform="translate(2.06 -607)"/><path class="cls-6" d="M999.71,695.06c-8.09,0-14.65,2-14.65,4.4v65.87h29.3V699.46C1014.36,697,1007.8,695.06,999.71,695.06Z" transform="translate(2.06 -607)"/><path class="cls-7" d="M1014.36,765.33V699.46c0-2.43-6.56-4.4-14.65-4.4a44.09,44.09,0,0,0-7.23.57s13.3-1,16.2,3.18,2.31,55.34,0,60-18.89,2.6-23.62-2.46v9Z" transform="translate(2.06 -607)"/><path class="cls-5" d="M1003.18,709.81c0,1.09-1.55,2-3.47,2s-3.47-.87-3.47-2,1.56-1.95,3.47-1.95S1003.18,708.73,1003.18,709.81Z" transform="translate(2.06 -607)"/><path class="cls-5" d="M1003.18,754c0,1.08-1.55,2-3.47,2s-3.47-.88-3.47-2,1.56-2,3.47-2S1003.18,752.94,1003.18,754Z" transform="translate(2.06 -607)"/><path class="cls-8" d="M1024,767.72H505.79s1.3-3.59,9.65-6.85c0,0-2.59,1.79-2.31,3.43a156.18,156.18,0,0,1,22.75-3.43,61.45,61.45,0,0,0-6.34,2.45s18.72.49,29.66-4.08c0,0,1.15,2.77-3.75,4.24,0,0,25-.33,32.54-3.26a10.45,10.45,0,0,1-5.19,3.26s23,2.45,27.35-2.77c0,0,.29,1.95-2,3.59,0,0,18.14-4.9,28.21-4.08A32.43,32.43,0,0,0,630,762.5s26.49.82,34-2.12a13.36,13.36,0,0,1-5.76,3.1s28.51-.16,34.55-2.94a4.68,4.68,0,0,1-3.17,2.94S717.16,761,725,761.2c0,0-5,.76-6.91,1.85,0,0,26.29.54,33.39-2.61a5.84,5.84,0,0,1-4,2.5s26.3-2.18,33.21-1.74c0,0-4.42,1-6.91,1.85,0,0,22.45-.33,25.72-2.94a3.23,3.23,0,0,1-1.92,2.94s25.52-.33,31.28-2.29a12.29,12.29,0,0,1-6.91,3.37s25.14-.21,27.06-3.37c0,0,.77,2.07-1.92,3.16,0,0,23.8-2.29,31.48-2.07,0,0-4.22.54-5.76,1.63,0,0,23.61,1,29.56-1.74a6,6,0,0,1-3.45,2.61s25.33,0,27.83-4c0,0-.2,2.72,3.83,3.69S953,761.41,953,761.41a24.91,24.91,0,0,1-7.49,2.94s21.89-.33,24.19-2.83c0,0,1.34,1-1.54,2.61,0,0,19.2-2.28,25.72-2.06a23.35,23.35,0,0,0-5,1.41s17.28.44,21.5-2.28a11.51,11.51,0,0,1-4.22,2.72s8.82-.44,12.85,1.41a21.78,21.78,0,0,0-4-1.85S1024,764.24,1024,767.72Z" transform="translate(2.06 -607)"/><path class="cls-2" d="M650.79,634.3a16.26,16.26,0,0,0-5.2,10.5c-.46,5.3,1.7,10.45,2.45,15.72a22.45,22.45,0,0,1-2.64,14.92,16.16,16.16,0,0,1-5.08,5.13,13.6,13.6,0,0,1-7.72,2.2l0-5.44a11.44,11.44,0,0,0,9.65-11c0-3.26-1.4-6.26-2.83-9.24h0c-.52-1.08-1-2.16-1.5-3.26a30.28,30.28,0,0,1-2.34-11.42c0-.8,0-1.59.09-2.39a27,27,0,0,1,.9-5.13c.23-.8.49-1.58.79-2.36l.09-.23a15.64,15.64,0,0,1,6.45-8c3-1.7,7.17-1.75,9.84.52a4.64,4.64,0,0,1,1.65,2.64C655.85,630.31,652.91,632.36,650.79,634.3Z" transform="translate(2.06 -607)"/><path class="cls-1" d="M610.1,631.18a21.5,21.5,0,0,1,7.83-8.15,2.52,2.52,0,0,1,2.06-.47c1,.36,1.18,1.68,1.19,2.75a39,39,0,0,1-.66,9.29,13.21,13.21,0,0,1-4.73,7.81Z" transform="translate(2.06 -607)"/><path class="cls-1" d="M584.72,635.69a23.56,23.56,0,0,1-3.8-14.06,3.23,3.23,0,0,1,2.43.17,23.7,23.7,0,0,1,11.19,8.47Z" transform="translate(2.06 -607)"/><path class="cls-1" d="M640.32,680.57a23,23,0,0,1-3.81,5.57c-4.44,4.78-10.58,7.49-17,9-.88.22-1.76.41-2.65.58l-.88.16c-.7.13-1.4.24-2.1.35h0a129.23,129.23,0,0,1-18.13,1A40.44,40.44,0,0,1,587,696c-.81-.17-1.63-.33-2.48-.46l-.49-.07h0c-.77-.1-1.53-.24-2.29-.41-8.65-1.9-16.85-7.67-19-16.56a33.88,33.88,0,0,1,.74-17.19c3.28-11.51,10.64-21.87,18.92-30.37l.37-.39c.91-.92,1.8-1.8,2.7-2.64h0l.79-.72h0a31.23,31.23,0,0,1,2.89-2.32,20.42,20.42,0,0,1,4.33-2.38,17.75,17.75,0,0,1,2.13-.72l.51-.13.8-.17.6-.11,1.23-.18c.62-.07,1.22-.11,1.82-.13q.63,0,1.23,0h.39a18,18,0,0,1,2,.19h.07c.44.07.87.15,1.3.25a17.72,17.72,0,0,1,2.08.58,24.09,24.09,0,0,1,6.8,3.73c.62.47,1.22,1,1.82,1.5h0c.48.42,1,.86,1.41,1.31h0c.87.84,1.72,1.73,2.55,2.66l.83.93a178.23,178.23,0,0,1,15.42,20.05c1.06,1.61,2.1,3.24,3,4.93v0h0a30.26,30.26,0,0,1,2.41,5.54A24.42,24.42,0,0,1,640.32,680.57Z" transform="translate(2.06 -607)"/><path class="cls-9" d="M597.21,632.21c-2.27.86-1.68,4,.38,4.74,2.7.95,4.85-1.68,4.63-4.21-.07-.86-1.42-.87-1.35,0,.14,1.91.6,4.31,2.85,4.72,1.85.33,3.12-1.51,3.51-3.1.18-.75-.94-1.31-1.31-.55s-.75,2.32-1.91,2.2c-1.47-.14-1.68-2.15-1.79-3.27h-1.35c.16,1.51-.64,3.24-2.38,3.16a1.83,1.83,0,0,1-1-3.28c.17-.16,0-.5-.24-.41Z" transform="translate(2.06 -607)"/><path class="cls-9" d="M609.77,627.21a5.36,5.36,0,0,0-.4.43,2.1,2.1,0,0,0-.26.64,3.94,3.94,0,0,0-.14,1.32,1,1,0,0,0,1.07.93.93.93,0,0,0,.78-1.18,3.57,3.57,0,0,1-.19-.86c0-.14,0-.28,0-.42a4.81,4.81,0,0,1-.07-.53.47.47,0,0,0-.8-.33Z" transform="translate(2.06 -607)"/><path class="cls-9" d="M593.89,627.09l-.06.11.26-.19a1.15,1.15,0,0,0-.72.81c-.13.32-.25.63-.36.95a1,1,0,1,0,1.92.26c0-.31,0-.62,0-.94a2.4,2.4,0,0,0,0-.46.94.94,0,0,0-.1-.28.55.55,0,0,0-.14-.17.39.39,0,0,0-.71-.09Z" transform="translate(2.06 -607)"/><path class="cls-1" d="M581.91,686.75l-.27,1.17a.11.11,0,0,0,.21.05l.31-1.15c0-.16-.21-.23-.25-.07Z" transform="translate(2.06 -607)"/><path class="cls-2" d="M580.24,687.25a7.24,7.24,0,0,0,.17,2.7c.19,1.13.44,2.24.74,3.34s.6,2.07,1,3.09a3.89,3.89,0,0,0,1.35,2.27c2,1.18,3.07-1.95,3.75-3.21,1.15-2.1,2.32-4.18,3.34-6.35.63-1.36-1.25-2.52-2-1.19-.9,1.52-1.7,3.08-2.51,4.65-.41.78-.81,1.57-1.21,2.35l-.61,1.18-.26.5c.59.18.75.11.5-.21,0-.25-.36-.71-.48-1-.2-.43-.4-.87-.59-1.3-.35-.81-.67-1.63-1-2.46s-.58-1.58-.84-2.38a8,8,0,0,0-.82-2.08c-.12-.16-.42-.16-.47.06Z" transform="translate(2.06 -607)"/><path class="cls-2" d="M610.92,687.64a23,23,0,0,0,1.86,6.09c.42,1,.86,2,1.34,3a3.49,3.49,0,0,0,1.71,1.8c2,.82,2.94-1.2,3.45-2.7a49,49,0,0,0,2.15-6.75c.21-1.16-1.44-2.08-2-.86a35.24,35.24,0,0,0-1.7,4.85c-.26.83-.52,1.66-.79,2.49,0,.12-.18.85-.32.92s-.06.12,0,0a1.8,1.8,0,0,1-.37-.36,21.73,21.73,0,0,1-2.46-4.23,48.45,48.45,0,0,0-2.4-4.43c-.11-.17-.45-.13-.42.11Z" transform="translate(2.06 -607)"/><path class="cls-9" d="M607.52,622a7.74,7.74,0,0,1-1.74,4.35,1.39,1.39,0,0,1-2.35-1c.09-.87.11-1.74.25-2.6,0-.1,0-.21.05-.31a1.24,1.24,0,0,1,.09-.59l0-.08a2.85,2.85,0,0,1,.22-.64h.07c.44.07.87.15,1.3.25A17.72,17.72,0,0,1,607.52,622Z" transform="translate(2.06 -607)"/><path class="cls-9" d="M601.81,624.58a1.43,1.43,0,0,1-2.45,0,6.08,6.08,0,0,1-.72-3.16c0-.1,0-.21,0-.31.62-.07,1.22-.11,1.82-.13q.63,0,1.23,0h.39a5.93,5.93,0,0,1,.22.82A3.71,3.71,0,0,1,601.81,624.58Z" transform="translate(2.06 -607)"/><path class="cls-9" d="M597.4,625.44c-.86.86-2,.36-2.74-.39a4.87,4.87,0,0,1-1.27-2.6v0a17.75,17.75,0,0,1,2.13-.72l.51-.13.8-.17a7.76,7.76,0,0,1,.6,1.31C597.74,623.54,598.13,624.72,597.4,625.44Z" transform="translate(2.06 -607)"/><path class="cls-9" d="M640.25,637.49a5.91,5.91,0,0,1-3.57-2.41l-.14-.15c.23-.8.49-1.58.79-2.36.41.19.85.31,1.26.47,1.28.5,2.75,1,3.11,2.54C641.92,636.43,641.27,637.61,640.25,637.49Z" transform="translate(2.06 -607)"/><path class="cls-9" d="M640.28,642.15a1.62,1.62,0,0,1-2,1.34,6.08,6.08,0,0,1-2.73-1c0-.8,0-1.59.09-2.39a17.69,17.69,0,0,0,3.07.27A1.6,1.6,0,0,1,640.28,642.15Z" transform="translate(2.06 -607)"/><path class="cls-2" d="M618,627.41a4.28,4.28,0,0,0,.59-.53l.26-.22s.2-.09,0,0l-1.52-1.52a3.18,3.18,0,0,0-.09,1.23v.45a2.18,2.18,0,0,1,0,.25.86.86,0,0,1,.24-.56l.59-.34.16,0,.68.18c-.12-.07-.14-.07,0,0l-.23-.19-.46-.37a1.3,1.3,0,1,0-1.84,1.83,7,7,0,0,0,1.17,1,1.58,1.58,0,0,0,2.14-.5,2.33,2.33,0,0,0,.27-1.42,5,5,0,0,0-.32-1.83,1.22,1.22,0,0,0-1.23-.59,1.28,1.28,0,0,0-1,.89c.06-.17-.1.15-.11.18a4.23,4.23,0,0,0-.23.48,2.18,2.18,0,0,0-.25,1,.81.81,0,0,0,1.21.7Z" transform="translate(2.06 -607)"/><path class="cls-2" d="M584.53,628.13a2.91,2.91,0,0,0,.19-1.71c0-.73-.08-1.46-.09-2.19l-1.9.51a8.46,8.46,0,0,0,.9,1,4.3,4.3,0,0,1,.82.83l-.15-.56v.18l.16-.56c-.11.21-.39.35-.54.54a1.44,1.44,0,0,0-.34,1,1,1,0,0,0,1,1,2.16,2.16,0,0,0,1.94-2.25,2.4,2.4,0,0,0-.94-1.3,11.75,11.75,0,0,0-1.44-1.2c-.7-.46-1.81.32-1.49,1.15s.52,1.5.8,2.24a2.71,2.71,0,0,0,.81,1.47.23.23,0,0,0,.29-.08Z" transform="translate(2.06 -607)"/><path class="cls-2" d="M611.91,637.78c1.23.72,4,1.33,4.79-.3a1.66,1.66,0,0,0-.9-2.2,3.45,3.45,0,0,0-2.64.07,1.53,1.53,0,0,0-1.08,1.42,1.47,1.47,0,0,0,1.08,1.41,5.2,5.2,0,0,0,1.67,0c1.39-.21,1.32-2.45,0-2.73a4,4,0,0,0-1.28-.12l.75,2.74c.14-.09.46-.17.57-.26s.13.13-.13-.17l-.32-.54V637l.16-.6c0-.1.3-.12-.16,0a5.81,5.81,0,0,1-.71.11,11.71,11.71,0,0,1-1.45,0,.7.7,0,0,0-.35,1.3Z" transform="translate(2.06 -607)"/><path class="cls-2" d="M587.65,634.45a1.62,1.62,0,0,0-.87,2.26,2.12,2.12,0,0,0,2.69,1,2.56,2.56,0,0,0,1.38-1,1.74,1.74,0,0,0-.21-2.05,2,2,0,0,0-1.9-.61,3.2,3.2,0,0,0-1.52.87,1.48,1.48,0,0,0,0,2.08,1.5,1.5,0,0,0,2.08,0c.11-.14.23-.27.35-.4s-.11.08-.17.1a.83.83,0,0,1-.58-.08c-.2-.11-.22-1.18-.22-1.18h0l-.11.12c.08-.08,0,0,0,0l-.1.05h0l-.11,0c.14,0-.23,0,0,0,.07,0,.07.08,0,0s.18.18.1.08.07,0,0,0,0-.06,0,0v-.08c0,.05,0,.08,0,0s-.09.11,0-.08c.41-.54-.26-1.31-.86-1.12Z" transform="translate(2.06 -607)"/><path class="cls-9" d="M602.39,631.79a.67.67,0,0,0-.44-.62,1,1,0,0,0-1.16.23,1.17,1.17,0,0,0-.25,1.25,2.15,2.15,0,0,0,.94,1.08,1.2,1.2,0,0,0,1.59-.51,1.58,1.58,0,0,0,.18-1.37,1.62,1.62,0,0,0-2.63-.62,1,1,0,0,0,1.18,1.53l.15-.09-.08,0h-.08c.2,0-.22-.05,0,0l-.06,0a.37.37,0,0,1-.18-.17c.12.15,0-.2,0,0,0-.15,0-.17,0-.07,0-.15,0-.17,0-.07l0-.11c0,.09,0,.07,0,0l-.08.08c.11-.07.12-.09,0,0l.66-.09c-.22-.07.16.08-.06,0,0,0-.27-.17-.13-.07l-.1-.09c.05.07.05.07,0,0,0,.08,0,.08,0,0s0-.09,0,0-.09.24,0,.13c-.08.14,0,0,.05,0s.13-.17,0-.08c.09-.07,0,0-.16.06h.08q-.15-.06-.06,0a.35.35,0,0,0,.51-.3Z" transform="translate(2.06 -607)"/><path class="cls-3" d="M531.66,672.67c2.24-1.78,5.09-2.35,7.85-2.66,3-.34,6.15-.38,8.71,1.3,2.21,1.45,3.62,4,4.88,6.44a13.15,13.15,0,0,1,1.56,4.14,11.34,11.34,0,0,1-.74,5.18c-1,3-2.64,6.22-5,8.14-1.51,1.24-5,3.24-6.78,1.7-3.17-2.81,1.76-7.83,2.89-10.21a13.39,13.39,0,0,0,1.24-6.28c-.07-1.49-.55-3.18-1.8-3.75a3.49,3.49,0,0,0-1.5-.25,21.56,21.56,0,0,0-8.34,1.56c-1.69.67-3.4,1.57-5.18,1.34Z" transform="translate(2.06 -607)"/><path class="cls-10" d="M512.89,642.14l0,.08.67-.55h-.11l.51.23-.07-.09.12,1,.1-.17-.46.4c1.2-.45,2.39-.88,3.57-1.41s2.41-1.09,3.63-1.58c1.79-.72,4.53-2,6.36-.83l-.3-2.55q-5.29,6-11,11.45l2.56,1.64a13.49,13.49,0,0,1,3.84-5.25,54.42,54.42,0,0,0,5-5c1.17-1.46-.28-3.5-1.87-2.66q-5.32,2.85-10.48,6.07c-1.73,1.09-.19,4,1.57,2.94a46.63,46.63,0,0,0,7.31-5.36c1.42-1.26-.4-3.56-1.89-2.68l-7.64,4.48,1.9,2.7,3.87-3.6a1.83,1.83,0,0,0,.12-2.26,1.5,1.5,0,0,0-2-.45,11,11,0,0,0-4,3.87,1.82,1.82,0,0,0,.4,2.23,1.5,1.5,0,0,0,2.07-.13c1.37-1.23,2.79-2.88,4.45-3.63a4.45,4.45,0,0,1,2.05-.22,3.88,3.88,0,0,0,2.79-1,1.8,1.8,0,0,0-.69-2.88c-2.45-.44-4.21,1.72-5.81,3.45a46.58,46.58,0,0,0-4.33,5.52,1.82,1.82,0,0,0,.4,2.22,1.48,1.48,0,0,0,2.06-.14,27.5,27.5,0,0,0,4.58-6.35c.86-1.64-1.27-3.6-2.45-2.08l-3.23,4.12,2.6.75a2.79,2.79,0,0,0-4-1.83c-1.39.73-2.87,3-2,4.68a1.4,1.4,0,0,0,2.52-1.17l-.06-.19v.81c.05-.32.51-.7.74-.93s0,.13-.14-.46a1.52,1.52,0,0,0,2.6.76l3.23-4.12-2.45-2.07a24.1,24.1,0,0,1-4.1,5.66l2.46,2.08a42.93,42.93,0,0,1,3.26-4.18c.58-.65,1.18-1.29,1.8-1.9a11.26,11.26,0,0,1,.93-.9,2.8,2.8,0,0,1,.35-.25c.15-.09.38-.13.27-.16l-.69-2.87c.24-.21,0,0-.12,0h-.46c-.44,0-.87,0-1.31,0a6.37,6.37,0,0,0-2.77,1,33.65,33.65,0,0,0-4.65,3.92c.83.69,1.65,1.39,2.47,2.09a7.69,7.69,0,0,1,2.92-2.64L517.82,639,514,642.6c-1.39,1.3.39,3.59,1.9,2.7l7.63-4.5-1.89-2.69a42.28,42.28,0,0,1-6.67,4.84c.53,1,1.05,2,1.57,2.94q5.14-3.23,10.47-6.09l-1.87-2.65c-3.21,4-7.84,6.46-9.61,11.7a1.56,1.56,0,0,0,2.55,1.64Q523.74,645,529,639a1.74,1.74,0,0,0-.3-2.55c-2.74-1.54-5.79-.23-8.39,1-1.43.67-2.81,1.42-4.21,2.17-.71.38-1.44.75-2.15,1.17-.53.32-1.19.71-1.3,1.42a.88.88,0,0,0,.34.92.81.81,0,0,0,1.24-.87l0-.08a.66.66,0,0,0-1.29,0Z" transform="translate(2.06 -607)"/><path class="cls-10" d="M486.17,640.39a6.15,6.15,0,0,1-.79-1.21c-.26-.39-.58-.75-.84-1.14a21.65,21.65,0,0,1-1.41-2.43,13.14,13.14,0,0,1-.94-2.37c-.13-.46-.25-.91-.34-1.38,0-.18-.07-.36-.09-.54l0-.29c0-.22,0-.26,0-.13l-.39.74.12-.12-.67.43.24,0h-.82a19.27,19.27,0,0,1,5.87,3.18,15.76,15.76,0,0,1,4.32,4.95l2.55-2.16a44.4,44.4,0,0,0-12.22-7.72c-1.56-.65-2.79,1.87-1.61,3a28.14,28.14,0,0,1,4.74,7.24c1.07,2.06,3.81.25,2.87-1.83l-2.25-5-2.27,2.49,4.3,3.18,1.28-3.33a11.35,11.35,0,0,1-2.19-1.25c-1.59-1.13-3.35,1.42-2,2.86a26.07,26.07,0,0,0,3.4,3.17c1.51,1.13,3.36-1.47,2-2.8-1-1-2.06-1.91-3-3l-2,2.87a14.64,14.64,0,0,0,3,1.61,1.61,1.61,0,0,0,2-1.05,2,2,0,0,0-.68-2.28l-4.3-3.18c-1.48-1.09-2.95,1-2.27,2.49q1.11,2.5,2.24,5l2.87-1.83a31.25,31.25,0,0,0-5.27-8l-1.61,3a40.75,40.75,0,0,1,10.8,6.73,1.54,1.54,0,0,0,2.13.14,1.88,1.88,0,0,0,.42-2.3,21.41,21.41,0,0,0-11.69-9.43c-1.67-.57-3,.56-2.81,2.51a14.14,14.14,0,0,0,3.4,7.65,13.19,13.19,0,0,0,1.42,1.38,19.94,19.94,0,0,0,1.86,1.12c.6.42,1.3-.56.76-1.08Z" transform="translate(2.06 -607)"/><path class="cls-10" d="M519.42,643.36c-11.91-8.58-33.44-9.58-44.44,1.47-6.85,6.87-10.48,17.41-9.5,27.54a29.73,29.73,0,0,0,3.28,11.22c5,9.27,15.14,13.82,24.91,14.95A51.92,51.92,0,0,0,511,697.6c7.73-1.74,15.59-5.7,19.61-13.15,3.5-6.47,3.54-14.65,1.55-21.85C530,654.86,525.59,647.8,519.42,643.36Z" transform="translate(2.06 -607)"/><path class="cls-3" d="M520.81,660.74c-.75-2.85-3.73-4.67-6.34-3.76a3.17,3.17,0,0,0-2.06,4,4.41,4.41,0,0,0,3.76,2.85c1.62.28,4,.81,5.18-.76a3.6,3.6,0,0,0-.82-4.84c-1.4-1.16-3.56-1.58-4.9-.08s-1,3.91.85,4.48a2.26,2.26,0,0,0,2.36-.67,1.93,1.93,0,0,0-.32-2.88,1.8,1.8,0,0,0-2.59.69,2.14,2.14,0,0,0,.76,2.85c1.62.75,2.77-1.4,1.37-2.58l-.12-.1.49.54-.15,1-.62.39-.67-.18-.36-1.48c0-.17.33-.53.56-.48.45.08.23.33.41.46,0,.17,0,.21,0,.13a.06.06,0,0,1,0,0s.24-.1.25-.1a1.58,1.58,0,0,1,1.48,1c0,.2,0,.09-.08.1a4.09,4.09,0,0,1-1.44,0,6.2,6.2,0,0,1-2.55-.46c-.47-.24-1-.89-.63-1.45a2.28,2.28,0,0,1,1.84-.64,3.75,3.75,0,0,1,3.31,2.5c.26.66,1.23.19,1-.49Z" transform="translate(2.06 -607)"/><path class="cls-3" d="M481.25,651.81c-.69-2.32-3.82-2.37-5.09-.67a1.18,1.18,0,0,0,0,1.53c2,1.8,4.74,3,7.31,2.2a3,3,0,0,0,2.4-2.88,3.73,3.73,0,0,0-2.21-3c-1.89-.91-6-1.47-6.66,1.48-.72,3.24,4.14,4.46,6.19,3.71,1.6-.58,1.85-2.74.81-4-1.19-1.49-3-.95-4.37-.19-1.61.88-.2,3.53,1.41,2.65a6.81,6.81,0,0,0,.94-.38c.13-.13-.09,0-.06-.06l0-.21.38-.64a7.47,7.47,0,0,0-1,0,5.61,5.61,0,0,1-1.19-.3c-.3-.11-.66-.5-.53.05s-.09.11.25.17a2,2,0,0,0,.42,0,7.93,7.93,0,0,1,1.94.18c.3.08,1.16.38,1.23.66,0,0,.12-.14-.07,0a1.57,1.57,0,0,1-.49.23,3.77,3.77,0,0,1-1,.21,8.19,8.19,0,0,1-4.44-1.59l.35,1.48c.6-1.19,2-1,2.82-.18a.44.44,0,0,0,.73-.46Z" transform="translate(2.06 -607)"/><path class="cls-3" d="M481,686.52c-.09,2,0,3.9.07,5.85,0,1.29-.26,3.46.92,4.29,1.35,1,2.49-1,3.22-1.93a30.94,30.94,0,0,0,3-4.62.92.92,0,1,0-1.55-1c-.72,1.13-1.41,2.28-2.16,3.39-.38.57-.78,1.13-1.19,1.68a7.9,7.9,0,0,1-.61.79l.14.11a1.2,1.2,0,0,1-.15-.37,28.33,28.33,0,0,1-.52-4c-.18-1.42-.35-2.85-.64-4.25-.06-.34-.5-.24-.52.07Z" transform="translate(2.06 -607)"/><path class="cls-3" d="M507,690.52a36.25,36.25,0,0,0,1.94,6.55c.44,1.26,1.16,4.49,3,3.37a3.11,3.11,0,0,0,1.12-1.93c.26-.88.44-1.79.63-2.69a12.22,12.22,0,0,1,1.87-5.08c.81-1-.52-2.54-1.38-1.51-1.93,2.34-2.1,5.44-2.82,8.36a3.75,3.75,0,0,0-.28.95c0,.11.22.18.24,0s-.26-.51-.33-.66c-.4-.82-.79-1.65-1.15-2.48-.76-1.72-1.24-3.58-2-5.28-.25-.54-.9-.13-.83.38Z" transform="translate(2.06 -607)"/><path class="cls-9" d="M493.05,652.88a2.5,2.5,0,0,0,2.16,3.47c2.2.1,3.61-2.23,4.41-4.16l-1.56-.72c-.58,2.26.65,4.92,2.82,5.43s4.43-1.5,4.54-3.94c.05-1.11-1.45-1.07-1.55,0-.14,1.37-1.5,2.57-2.75,2.17A2.54,2.54,0,0,1,499.7,652c.33-1-1.12-1.66-1.55-.72-.52,1.16-1,2.49-2,3.2s-2.87.37-2.63-1.35c0-.28-.31-.5-.44-.21Z" transform="translate(2.06 -607)"/><path class="cls-9" d="M514.18,646.5a6.7,6.7,0,0,0-.45.6l-.17.26-.11.17c-.07.11-.07.12,0,0a.85.85,0,0,0-.26,1.09.7.7,0,0,0,1,.29,7.18,7.18,0,0,0,1.19-1.32,1.11,1.11,0,0,0-.1-1.55.9.9,0,0,0-1.39.29,7.75,7.75,0,0,0-.77,1.68l1.43.21c0,.11,0,.11,0,0l.08-.19.13-.29c.1-.24.18-.48.26-.73.15-.52-.51-.94-.84-.53Z" transform="translate(2.06 -607)"/><path class="cls-9" d="M488,643.63a1.59,1.59,0,0,0-.39,1c-.06.41-.11.82-.16,1.24a1,1,0,0,0,.81,1,.94.94,0,0,0,1-.73,5.5,5.5,0,0,0,.16-1.15,8.74,8.74,0,0,0,.07-1,1.15,1.15,0,0,0-1.08-1.19,1.17,1.17,0,0,0-1.09,1.19c0,.34,0,.69,0,1a6.32,6.32,0,0,0,.12,1.15l1.8-.54c-.08-.35-.16-.69-.23-1a1.6,1.6,0,0,0-.4-1,.44.44,0,0,0-.65,0Z" transform="translate(2.06 -607)"/><path class="cls-3" d="M520.35,644.32c0-.17,0-.34,0-.51l-.2.54a14.82,14.82,0,0,1,4.84-4l-1.36-2a7.54,7.54,0,0,1-1.62,2.39c-.69.67-1.63,1-2.27,1.71a1.13,1.13,0,0,0,.7,1.86c1.13.09,2.34-.88,3.16-1.64a9.22,9.22,0,0,0,2.11-3c.54-1.19-.55-2.43-1.65-1.81a11.22,11.22,0,0,0-5,5.49.83.83,0,0,0,.25,1.05l.45.24a.42.42,0,0,0,.63-.39Z" transform="translate(2.06 -607)"/><path class="cls-3" d="M485.74,637.68a7.58,7.58,0,0,0-1.39-3.51,31.84,31.84,0,0,0-2.3-3.3c-.86-1.07-2.68.06-2.22,1.42a12.38,12.38,0,0,0,3.6,5.72c1.22,1,2.46-1.08,1.55-2.2a13.56,13.56,0,0,1-2.59-4.29l-2.22,1.42a31.38,31.38,0,0,1,2.46,2.68,11.37,11.37,0,0,0,2.3,2.57.55.55,0,0,0,.81-.51Z" transform="translate(2.06 -607)"/><path class="cls-9" d="M499.51,650.48a1.85,1.85,0,0,0-2.56.3,1,1,0,0,0-.14,1.08,1.91,1.91,0,0,0,1.81,1.15,1.79,1.79,0,0,0,1.65-1.68,1.55,1.55,0,1,0-3.1-.15,1.11,1.11,0,0,0,1.1,1.1,1.12,1.12,0,0,0,1.1-1.1.69.69,0,0,1-.32.58s-.43.08-.24.08c-.39,0-.74-.35-.57-.72-.08.17,0,0,.09-.06-.13.1.08,0,.18,0s-.08,0-.11-.08l-.06,0-.14-.15.23.87a.83.83,0,0,1,.83-.56.36.36,0,0,0,.25-.61Z" transform="translate(2.06 -607)"/><path class="cls-11" d="M235.88,632.17c1.81-3.63,3-10.42,6.44-12.86,6.59-4.68,4.43,10.64,4,15Z" transform="translate(2.06 -607)"/><path class="cls-11" d="M215.48,656.87c-3.33-2.31-9.87-4.48-11.79-8.23-3.67-7.2,11.17-2.84,15.4-1.75Z" transform="translate(2.06 -607)"/><path class="cls-11" d="M316.14,655.61a20.2,20.2,0,0,1-.46,4.1,22.12,22.12,0,0,1-4.33,9.12,21.2,21.2,0,0,1-3,3,18.76,18.76,0,0,1-6.89,3.72c-4.86,1.41-10.05.95-15.07.33l8.18-5a14.13,14.13,0,0,0,8.12-4.58,15.67,15.67,0,0,0,1.72-2.26,15.42,15.42,0,0,0,2.41-7.49,13,13,0,0,0-.22-3.11c0-.28-.12-.56-.19-.83a25.18,25.18,0,0,0-4.42-8.25c-.51-.71-1-1.41-1.56-2.11-.87-1.17-1.73-2.34-2.5-3.55-2.93-4.62-4.45-11.18-.75-15.2,2.07-2.24,5.28-3.07,8.32-3.12,2.65,0,5.87,1,6.34,3.57.34,1.88-1,3.6-1.68,5.37a12.47,12.47,0,0,0-.16,7.9,23,23,0,0,0,1,2.87c.12.28.23.56.36.84,1.36,3.11,3.09,6.06,4,9.32A17.94,17.94,0,0,1,316.14,655.61Z" transform="translate(2.06 -607)"/><path class="cls-12" d="M297.85,664.48c-.43,7.09-2.86,14.33-8.05,19.18-9.86,9.24-27.56,9.52-40.26,7.91-12.86-1.62-26.71-6.65-34.45-17.65-6.28-8.93-5.5-20.09-1.86-29.89,1.64-4.4,3.47-9,6.88-12.32,4.53-4.46,7.34-3.75,12.41-4.11a119.83,119.83,0,0,1,13.13-.26q3.28.12,6.55.4c2.25.2,4.48.46,6.72.78q3.6.53,7.19,1.26c1.4.28,2.81.6,4.21.94l2.66.63c2.24.54,4.48,1.09,6.65,1.75a45.37,45.37,0,0,1,4.91,1.79,25.24,25.24,0,0,1,5.88,3.55,19.47,19.47,0,0,1,5.63,7.63C298.21,651.19,298.19,659,297.85,664.48Z" transform="translate(2.06 -607)"/><path class="cls-11" d="M234.68,681.66c2.52-6-3.66-9.08-8-5.09-3.7,3.4-4,6.87-9.83,4.53a1.69,1.69,0,0,0-1.15-.19,1.11,1.11,0,0,0-.54,1.43,2.88,2.88,0,0,0,1.12,1.25C222.72,688.34,231,690.44,234.68,681.66Z" transform="translate(2.06 -607)"/><path class="cls-11" d="M286.34,697.63c3.9-1.43-1.74-5.55-2.75-7.17-1.42-2.27-1.45-6.47-4-7.83s-7.1-.85-8.7,2c-3.61,6.45,7.61,11.85,12.24,13.1a4.4,4.4,0,0,0,1.8.22A7.3,7.3,0,0,0,286.34,697.63Z" transform="translate(2.06 -607)"/><path class="cls-11" d="M290.42,638.44a22.23,22.23,0,0,1-2.79,6.11c-.4.62-1,1.3-1.75,1.07-.52-.16-.77-.75-.93-1.28a18.44,18.44,0,0,1-.73-6.44c.06-1,.2-2,.32-3A25.24,25.24,0,0,1,290.42,638.44Z" transform="translate(2.06 -607)"/><path class="cls-11" d="M266.1,629.78c-.84,3.68-2.14,8.19-4.67,9.62-1.76,1-2.6-1.49-2.88-2.76a12.67,12.67,0,0,1,0-4c.14-1.36.27-2.72.41-4.09C261.32,628.87,263.72,629.29,266.1,629.78Z" transform="translate(2.06 -607)"/><path class="cls-11" d="M279.63,633.1a19.8,19.8,0,0,1-1.85,5.55c-.59,1.07-2.87,2.68-4.2,2s-1.18-3.9-1.19-5.31a15.62,15.62,0,0,1,.59-4C275.22,631.89,277.46,632.44,279.63,633.1Z" transform="translate(2.06 -607)"/><path class="cls-12" d="M311.35,668.83a21.2,21.2,0,0,1-3,3c-.87-.67-1.71-1.38-2.51-2.12a27.3,27.3,0,0,1-3.15-3.37,15.67,15.67,0,0,0,1.72-2.26c1.26.94,2.49,2,3.81,2.83C309.27,667.61,310.3,668.24,311.35,668.83Z" transform="translate(2.06 -607)"/><path class="cls-12" d="M316.14,655.61a20.2,20.2,0,0,1-.46,4.1,19.85,19.85,0,0,1-4.9-1.2,21.8,21.8,0,0,1-3.91-1.88,13,13,0,0,0-.22-3.11c.66.28,1.31.61,2,.84a24.23,24.23,0,0,0,3.24.88A20.43,20.43,0,0,0,316.14,655.61Z" transform="translate(2.06 -607)"/><path class="cls-12" d="M311.38,641a33.58,33.58,0,0,0-6.71,2.13c-.84.38-1.72.93-2.63,1.3-.51-.71-1-1.41-1.56-2.11.32-.23.63-.48,1-.73a24.32,24.32,0,0,1,3.26-2,30.81,30.81,0,0,1,5.35-2.27,23,23,0,0,0,1,2.87C311.14,640.45,311.25,640.73,311.38,641Z" transform="translate(2.06 -607)"/><path class="cls-9" d="M222.27,649.92a5.55,5.55,0,0,0,7.34.12c2-1.61,2.89-5.83.72-7.65a.66.66,0,0,0-1.1.63,10.29,10.29,0,0,1,.67,2.94,4.61,4.61,0,0,1-1.09,2.92c-1.51,1.83-4.4,1.89-6.34.77a.17.17,0,0,0-.2.27Z" transform="translate(2.06 -607)"/><path class="cls-9" d="M237.8,640.62c1,2-2,3-3.44,3.12a3.46,3.46,0,0,1-3.58-1.84c-.53-1.06-2.06-.13-1.57.92,1.06,2.3,4.07,2.72,6.28,2.23a4.75,4.75,0,0,0,3.09-2,1.94,1.94,0,0,0-.57-2.61c-.14-.1-.28.08-.21.21Z" transform="translate(2.06 -607)"/><path class="cls-9" d="M229.2,641.2c.1-.8-1-1.17-1.58-.84a1.42,1.42,0,0,0-.7,1.21,1.69,1.69,0,0,0,.78,1.37,1.67,1.67,0,0,0,1.65,0,1.89,1.89,0,0,0,1-1.28,1.56,1.56,0,0,0-.05-.91,1.33,1.33,0,0,0-.91-.9,1.49,1.49,0,0,0-1.13.18,1.3,1.3,0,0,0-.62,1.17,1.24,1.24,0,0,0,.34.84,1.21,1.21,0,0,0,1.15.3,1.19,1.19,0,0,0,.7-.54,1.26,1.26,0,0,0,0-1.19l0-.06.16.59v.18l-.3.51c.13-.15,0-.1-.26.15h-.59a.79.79,0,0,1-.46-.47c0-.06,0-.37,0-.17.05-.11.05-.11,0,0,.11-.2-.13.06.05-.07-.1.06-.09.06,0,0h.09c-.12,0-.11,0,0,0-.16,0,0,0,.07.06-.16-.14.06.12,0-.06,0,.08,0,.08,0,0s0,0,0,.05a.16.16,0,0,1-.06.08c.1-.12-.07,0,.07,0l.1-.07s-.08,0,0,0l.11,0c.25,0,0-.07.07,0a.23.23,0,0,0,.39-.17Z" transform="translate(2.06 -607)"/><path class="cls-9" d="M233.15,631.62a1.56,1.56,0,0,0,.13.9c.12.28.22.58.32.87a.91.91,0,0,0,.86.66.9.9,0,0,0,.86-.66,2.92,2.92,0,0,0-.76-2.66,1.15,1.15,0,0,0-1.35-.17,1.13,1.13,0,0,0-.41,1.53c.12.16.23.34.36.49a.71.71,0,0,0,.15.15c-.05-.09,0-.08,0,0s.18.34.13.23a3.17,3.17,0,0,1,.14.4l1.49-.87a7.08,7.08,0,0,1-.59-.63,1.74,1.74,0,0,0-.77-.6.46.46,0,0,0-.58.33Z" transform="translate(2.06 -607)"/><path class="cls-9" d="M220,640.91a1.07,1.07,0,0,0-.12-.66l-.28-.46-1.39.81,0,0-.08-.63a1.74,1.74,0,0,0,.28,1.49,1.18,1.18,0,0,0,.74.57,1.24,1.24,0,0,0,1.2-.31,1.25,1.25,0,0,0-.25-1.95l-.3-.2a1.73,1.73,0,0,0-.39-.18,1.15,1.15,0,0,0-.71,0l.78.21,0,0a.8.8,0,0,0-1.13,0,.79.79,0,0,0,0,1.13l.35.34a1,1,0,0,0,.44.27l.21,0a.53.53,0,0,0,.66-.5Z" transform="translate(2.06 -607)"/><path class="cls-9" d="M230.12,648.43a6.71,6.71,0,0,0,.69,1.58,4.64,4.64,0,0,0,1.22,1.2,3.14,3.14,0,0,0,3.42,0c2.14-1.49,1.27-5.51-.44-7a.54.54,0,0,0-.85.66c.62,1.31,1.59,3.51.51,4.87-.51.65-1.57.37-2.16,0a5.24,5.24,0,0,1-1-.73c-.35-.32-.78-.54-1.12-.85-.12-.11-.38,0-.3.18Z" transform="translate(2.06 -607)"/><path class="cls-9" d="M238.71,635.19c.44,0,.84-.39,1.26-.54s1-.24,1.55-.37a.75.75,0,0,0-.2-1.47,3.33,3.33,0,0,0-1.82.72c-.41.29-1,.91-1,1.46a.21.21,0,0,0,.2.2Z" transform="translate(2.06 -607)"/><path class="cls-9" d="M240.48,636.7a1.37,1.37,0,0,0,1,.09l1.35-.13c.81-.09.61-1.29-.15-1.08l-1.32.35a1.43,1.43,0,0,0-.92.46.24.24,0,0,0,.08.31Z" transform="translate(2.06 -607)"/><path class="cls-9" d="M218.36,647c-.88-.44-2.09.47-2.66,1.07-.72.76.59,1.75,1.12.86a2.91,2.91,0,0,1,.76-.84,3.73,3.73,0,0,0,.88-.69.29.29,0,0,0-.1-.4Z" transform="translate(2.06 -607)"/><path class="cls-9" d="M218.77,649.87c-.37,0-.66.36-.9.58s-.64.59-.94.9c-.47.48.31,1.23.73.73.27-.34.53-.67.79-1s.6-.65.51-1a.2.2,0,0,0-.19-.14Z" transform="translate(2.06 -607)"/><path class="cls-13" d="M126,661.6c-3.19-2.73-7.79-3.94-9.79-7.81a27.47,27.47,0,0,1-2.89-11.91c.08-5.78,2.65-11.18,4.39-16.69,1.42-4.5,2.18-9.78-.56-13.61a8.73,8.73,0,0,0-15.55,2.89,3.63,3.63,0,0,0,0,2.21c.72,1.82,3.2,1.92,4.93,2.83a6.83,6.83,0,0,1,3.23,5.73,21.76,21.76,0,0,1-1.07,6.76c-2,7.89-3.47,16.28-1.25,24.12s9,14.9,17.14,15Z" transform="translate(2.06 -607)"/><path class="cls-13" d="M139.26,624.35c-2.77-.89-6-2.34-9-2.55-3.32-.25-3,.36-2.05,3.76.8,2.79,2.4,10.33,5.56,10.94Z" transform="translate(2.06 -607)"/><path class="cls-13" d="M167,622.48a41.21,41.21,0,0,1,7.62-3.69,1.12,1.12,0,0,1,.82-.06c.37.17.43.65.43,1,0,7.25-4.54,13.61-8.88,19.42Z" transform="translate(2.06 -607)"/><path class="cls-14" d="M173.21,693c-12.42,5.48-24.57,6.34-37.45,1.82-5.25-1.84-10.24-4.85-13.61-9.28-6.41-8.43-8.63-22.92-6.7-33.13,2.42-12.75,9.83-25,21.69-30.92,10.77-5.38,24.25-4,34.48,2.35s17.27,17.14,20.38,28.77c2.85,10.68,2.2,23.16-5.17,31.41C183.18,688.05,178.23,690.74,173.21,693Z" transform="translate(2.06 -607)"/><path class="cls-9" d="M143.89,634.36a3.58,3.58,0,0,0,4,3.92,4,4,0,0,0,3-5c-.27-.93-1.75-.53-1.45.4a2.66,2.66,0,0,1-1.76,3.3c-1.6.53-3.36-1.09-3.5-2.62a.15.15,0,0,0-.29,0Z" transform="translate(2.06 -607)"/><path class="cls-9" d="M157,635.49a2.29,2.29,0,0,1-1.23,1.72,2.39,2.39,0,0,1-2.19-.1c-1.52-.75-1.8-2.46-2.38-3.87-.23-.56-1.28-.57-1.18.16a5.74,5.74,0,0,0,3.91,4.94,2.9,2.9,0,0,0,2.57-.57,2.23,2.23,0,0,0,.79-2.28c0-.18-.29-.19-.29,0Z" transform="translate(2.06 -607)"/><path class="cls-9" d="M162.68,625.7a2.77,2.77,0,0,0-.63,3.27.78.78,0,0,0,1.07.28,2.47,2.47,0,0,0,1.1-2.58c-.18-1.22-2.28-.71-1.88.51a.75.75,0,0,1-.17.84h1.11a2,2,0,0,1-.19-2,.26.26,0,0,0-.41-.32Z" transform="translate(2.06 -607)"/><path class="cls-9" d="M140.46,625.78a3.5,3.5,0,0,0-.42,2.52.78.78,0,0,0,1.14.46,2.3,2.3,0,0,0,.54-3.39,1,1,0,0,0-1.43,0,1.93,1.93,0,0,0,0,2.85,1,1,0,1,0,1.42-1.42.21.21,0,0,1,0,.11s-.05-.31,0-.12,0,.09,0,0c0,.06-.14.17,0,0h-1.43a.39.39,0,0,1,.12.34.5.5,0,0,1-.17.41l1.21.16a5.4,5.4,0,0,1-.31-.79c-.07-.32,0-.66-.11-1a.34.34,0,0,0-.57-.15Z" transform="translate(2.06 -607)"/><path class="cls-13" d="M166.55,698.43c.16.55.46,1.2,1,1.21s.89-.63,1.07-1.17a105.34,105.34,0,0,0,3.09-11.33c.4-1.87.55-4.25-1.08-5.25-2-1.26-5.12.15-6.28,2C162.3,687.18,165.55,695,166.55,698.43Z" transform="translate(2.06 -607)"/><path class="cls-13" d="M140.63,698.43c-.17.55-.51,1.2-1.14,1.21s-1-.63-1.17-1.17a96.38,96.38,0,0,1-3.41-11.33c-.44-1.87-.61-4.25,1.19-5.25,2.25-1.26,5.65.15,6.93,2C145.33,687.18,141.74,695,140.63,698.43Z" transform="translate(2.06 -607)"/><path class="cls-9" d="M151.22,631.08a1.49,1.49,0,0,0-.54-.14,3.73,3.73,0,0,0-.58.12,2.23,2.23,0,0,0-1,.7c-.31.36-.69,1-.39,1.44a2.58,2.58,0,0,0,1.19,1,1.57,1.57,0,0,0,2.17-1,1.66,1.66,0,0,0-.12-1.18,1.39,1.39,0,0,0-1.14-.7c-.48-.07-.9.46-.9.9a.92.92,0,0,0,.9.9.43.43,0,0,1-.41-.38c0,.22,0-.13,0,.08a.24.24,0,0,1,.13-.15c.06,0,0,0-.09,0a1.75,1.75,0,0,1-.47-.39l.21.78a1.23,1.23,0,0,1,.31-.66,2.52,2.52,0,0,1,.3-.27,2.16,2.16,0,0,1,.45-.29.37.37,0,0,0,0-.71Z" transform="translate(2.06 -607)"/><path class="cls-15" d="M164,633.59a26,26,0,0,0,3.31.75,18,18,0,0,1,3.54,1.4.78.78,0,1,0,.6-1.44,15.89,15.89,0,0,0-3.82-1.09,7.57,7.57,0,0,0-3.57,0c-.16.06-.26.33-.06.41Z" transform="translate(2.06 -607)"/><path class="cls-15" d="M165.51,636.71a11.37,11.37,0,0,0,1.88,1.25,20.53,20.53,0,0,1,2.14,1.56.67.67,0,1,0,.81-1.06c-1.3-.88-3-2.12-4.61-2.29-.28,0-.4.36-.22.54Z" transform="translate(2.06 -607)"/><path class="cls-15" d="M164,639.56a12.35,12.35,0,0,0,1.88,3,.67.67,0,1,0,1.06-.82,12.34,12.34,0,0,0-2.31-2.62.43.43,0,0,0-.63.48Z" transform="translate(2.06 -607)"/><path class="cls-15" d="M136.77,631.6a31.83,31.83,0,0,0-6-.48.74.74,0,0,0,0,1.47,31.83,31.83,0,0,0,6-.48.26.26,0,0,0,0-.51Z" transform="translate(2.06 -607)"/><path class="cls-15" d="M137.48,635.09a29.4,29.4,0,0,0-7.66,1.82.55.55,0,1,0,.43,1,62,62,0,0,1,7.29-2.37c.25-.07.21-.48-.06-.46Z" transform="translate(2.06 -607)"/><path class="cls-15" d="M138.18,637a12.34,12.34,0,0,0-5.13,3.49c-.61.64.39,1.62,1,1a34.23,34.23,0,0,1,4.53-3.81c.31-.26,0-.75-.37-.65Z" transform="translate(2.06 -607)"/><path class="cls-16" d="M55.29,639.25,43.87,628.43c-1.76-1.67-3.7-3.43-6.12-3.67-2.14,3.58-2.61,7.89-3,12a35.24,35.24,0,0,0-.1,9.06A11.69,11.69,0,0,0,39,653.57Z" transform="translate(2.06 -607)"/><path class="cls-16" d="M64.72,638c3.21-6.39,6.7-13.09,12.72-16.95a1.1,1.1,0,0,1,1.83.46c4.12,6.29,4.74,14.17,5.25,21.68Z" transform="translate(2.06 -607)"/><path class="cls-16" d="M24.58,669.27c-6.62,1.62-11.66-.74-16.07-4.87-2.84-2.66-4.84-6.38-4-10.62.79-4.09,3.93-7.67,5.19-11.7a3.93,3.93,0,0,0,.21-2c-.53-2.34-4.08-1.84-6.33-2.71-3.58-1.39-3.38-7-.33-9.9s7.62-3.53,11.51-3a11.41,11.41,0,0,1,6.13,2.54c3.29,3.06,3,8.38,2.59,13.11-.7,7.31-5.42,20.74,3.15,24.1.24.1.49.19.72.31-.31,1-.78,2.53-1.3,4.11A6.55,6.55,0,0,1,24.58,669.27Z" transform="translate(2.06 -607)"/><path class="cls-17" d="M80.3,692.29c14.32-8.35,19.58-22.77,17.14-38.92-.93-6.14-3.78-15.16-9.4-18.71-5-3.11-14.08-3.89-19.8-3.82-9.85.12-19.54.73-28.61,4.87s-11.41,12.38-12.07,22.15c-.53,7.91,0,21,5.88,27.06C38,689.64,48,693.35,54,695.36,63.55,698.56,71.54,697.4,80.3,692.29Z" transform="translate(2.06 -607)"/><path class="cls-9" d="M51,643.23a4.61,4.61,0,0,0,5.53,2,5.07,5.07,0,0,0,3-5.57c-.13-.86-1.47-.5-1.31.36a3.85,3.85,0,0,1-2.17,4.15A4.36,4.36,0,0,1,51.29,643a.16.16,0,0,0-.25.19Z" transform="translate(2.06 -607)"/><path class="cls-9" d="M67.07,642.81a5.79,5.79,0,0,1-4.69-.83,5.72,5.72,0,0,1-1.64-1.61c-.46-.69-.5-1.53-.92-2.21a.64.64,0,0,0-1.16.15,3.75,3.75,0,0,0,.82,2.8,6.67,6.67,0,0,0,2.22,2,5.76,5.76,0,0,0,5.59.17c.28-.15.08-.59-.22-.51Z" transform="translate(2.06 -607)"/><path class="cls-9" d="M56.58,638.76a27.9,27.9,0,0,0,4,.36.66.66,0,0,0,0-1.32,27.81,27.81,0,0,0-4,.26c-.35.05-.34.64,0,.7Z" transform="translate(2.06 -607)"/><path class="cls-9" d="M72,637.37c.11-.49.17-1,.3-1.49h-2a12.33,12.33,0,0,0,.36,1.18,1.12,1.12,0,0,0,1.35.76,1.09,1.09,0,0,0,.76-1.34c-.2-.46-.36-1-.6-1.39a1,1,0,0,0-1.87.79c.14.49.22,1,.35,1.49a.69.69,0,0,0,1.33,0Z" transform="translate(2.06 -607)"/><path class="cls-9" d="M47.35,638.16c.11-.49.17-1,.3-1.49h-2c.09.4.24.79.36,1.18a1.12,1.12,0,0,0,1.35.76,1.09,1.09,0,0,0,.76-1.34,14.2,14.2,0,0,0-.6-1.39,1,1,0,0,0-1.87.79c.14.49.22,1,.35,1.49a.7.7,0,0,0,1.33,0Z" transform="translate(2.06 -607)"/><path class="cls-16" d="M85.58,697.69a8.65,8.65,0,0,1-1.33-1.61c-1.89-3.1-4.13-8.63-.51-11.39a3.17,3.17,0,0,1,1.33-.64c2.76-.5,3.56,0,4.21,2.53.87,3.42,1.79,7.27,1.62,10.83S87.45,699.49,85.58,697.69Z" transform="translate(2.06 -607)"/><path class="cls-16" d="M45.1,686.62c-.87-3.24-4.56-4.46-6.94-1.7-1.77,2.06-1.38,5.79-1.63,8.38-.13,1.39-.53,5.27.6,6.37,1.57,1.55,3.76-1.26,4.68-2.38C44.15,694.4,46.18,690.62,45.1,686.62Z" transform="translate(2.06 -607)"/><path class="cls-16" d="M69.55,640.89c.9.43,2.13.17,3.11.21a21.53,21.53,0,0,1,4.07.62.57.57,0,0,0,.3-1.1,13,13,0,0,0-4-.83c-1,0-2.68-.13-3.5.63a.3.3,0,0,0,.06.47Z" transform="translate(2.06 -607)"/><path class="cls-16" d="M70,643c1.18.43,2.4.67,3.56,1.18a.63.63,0,1,0,.49-1.16,10.69,10.69,0,0,0-3.92-.95A.47.47,0,0,0,70,643Z" transform="translate(2.06 -607)"/><path class="cls-16" d="M49.4,641.75c-1.29-.79-3.51.55-4.54,1.31a.71.71,0,1,0,.87,1.12A8,8,0,0,1,47.56,643a5.88,5.88,0,0,0,1.88-.92.18.18,0,0,0,0-.29Z" transform="translate(2.06 -607)"/><path class="cls-16" d="M49.26,644.17a7.23,7.23,0,0,0-1.89,1c-.77.46-1.5,1-2.24,1.48-.55.37,0,1.28.53.89s1.37-.95,2-1.47a7.79,7.79,0,0,0,1.79-1.59c.1-.15-.06-.32-.22-.29Z" transform="translate(2.06 -607)"/><path class="cls-18" d="M355.81,646.94A128.6,128.6,0,0,0,344,628.49a15.79,15.79,0,0,1-1.8,5.6,65.58,65.58,0,0,0-13.84-19.63,17.59,17.59,0,0,0,.08,6.82L313.61,607a45.54,45.54,0,0,0,5.83,23.92L315,628c-1.34,1-.34,3.1.73,4.38l5.76,6.88-4.79-1.55a52.62,52.62,0,0,0,33.15,15.07Z" transform="translate(2.06 -607)"/><path class="cls-19" d="M355.21,692.84a11.65,11.65,0,0,1-4.63,2.11c-3.23.49-6.43-1.5-8.33-4.16-6.73-9.45-3.63-25.58,1.76-35a40.71,40.71,0,0,1,35.11-20c14.76.19,28.66,8.88,37.18,20.94,3.3,4.66,6.25,8.79,8.06,14.24a63.07,63.07,0,0,1,3.51,19.61,8.74,8.74,0,0,1-.63,3.9c-1.49,3.1-7,2.58-8.46-.18-2.82-5.16-2.25-8.34-8.49-9.73-6.9-1.55-14.07-1.23-21.12-.64a92.74,92.74,0,0,0-14.65,2.14,81.63,81.63,0,0,1-8.35,2,22.17,22.17,0,0,0-8.65,3.18C356.74,691.77,356,692.32,355.21,692.84Z" transform="translate(2.06 -607)"/><path class="cls-17" d="M387.75,665a25.34,25.34,0,0,0,16.78,8.27,20.68,20.68,0,0,0,12.17-2.64,15.18,15.18,0,0,0,7.2-10,1.94,1.94,0,0,0-.41-1.95,2.11,2.11,0,0,0-1.55-.17,74.42,74.42,0,0,1-29.41-1.75c-4.8-1.27-7.09-4.29-11-6.52C381.45,655.5,384.32,661.16,387.75,665Z" transform="translate(2.06 -607)"/><path class="cls-18" d="M417.85,621.64c-.8-1.4-.13-3.14.54-4.6.49-1.06,2.3-6.14,3.54-2.84,1.06,2.86,2.15,5.82,2,8.87a1.71,1.71,0,0,1-1.14-.32Z" transform="translate(2.06 -607)"/><path class="cls-18" d="M386.31,623.1c.2,0,.17-.32.05-.49a21,21,0,0,0-3.22-3.69,2.81,2.81,0,0,0-2.53-1,10.17,10.17,0,0,0,1.16,10.22Z" transform="translate(2.06 -607)"/><path class="cls-19" d="M378.67,644.09l0,.11c.17.7.38,1.4.61,2.1s.52,1.44.81,2.14c.52,1.24,1.13,2.53,1.81,3.82,2.69,5.11,6.61,10.29,11.65,12.55,7.11,3.21,14.23,6.49,22.12,3.84,6-2,10.86-6.73,14.41-12a25.47,25.47,0,0,0,4-8.61,16.9,16.9,0,0,0,.3-1.89,24,24,0,0,0-.4-6.59c-.13-.72-.28-1.44-.44-2.16-.33-1.44-.7-2.87-1.05-4.26a16.89,16.89,0,0,0-.58-1.83,18.91,18.91,0,0,0-1-2.2c-.16-.3-.32-.59-.5-.89a25.82,25.82,0,0,0-10.33-9.61,35.85,35.85,0,0,0-13.54-3.31c-4.94-.35-8.32.86-12.77,2.62-3.5,1.39-6.52,2.33-9.35,5.05a20.66,20.66,0,0,0-5.05,7.84,21.76,21.76,0,0,0-1.14,4.63,21.06,21.06,0,0,0-.21,2.51h0A23,23,0,0,0,378.67,644.09Z" transform="translate(2.06 -607)"/><path class="cls-9" d="M412.39,634.6a2.57,2.57,0,0,1-3,2.15A2.18,2.18,0,0,1,408,634c.32-1-1.28-1.44-1.57-.43a3.66,3.66,0,0,0,2.58,4.53,3.19,3.19,0,0,0,3.73-3.54.16.16,0,0,0-.31,0Z" transform="translate(2.06 -607)"/><path class="cls-9" d="M400.93,635.59a2,2,0,0,0,.66,2,2.54,2.54,0,0,0,2.23.56,5,5,0,0,0,3.63-4.44c.1-.79-1-.78-1.28-.17-.48,1.16-.69,2.36-1.76,3.16a2.17,2.17,0,0,1-1.91.33,2,2,0,0,1-1.26-1.49.16.16,0,0,0-.31,0Z" transform="translate(2.06 -607)"/><path class="cls-9" d="M395.79,627.25a1.64,1.64,0,0,1-.2,1.68h1.19a.5.5,0,0,1-.07-.57,1,1,0,0,0-.73-1.28,1.06,1.06,0,0,0-1.33,1,2.23,2.23,0,0,0,1.11,2.17.86.86,0,0,0,1.24-.5,2.44,2.44,0,0,0-.8-2.82.28.28,0,0,0-.41.31Z" transform="translate(2.06 -607)"/><path class="cls-9" d="M415.11,627.2a3.48,3.48,0,0,0-.11.72,3.09,3.09,0,0,1-.33.77l1.32-.17s-.08-.15-.05-.07a.85.85,0,0,1,0-.17c0,.11,0,.1,0,0s0-.12,0,0a1.54,1.54,0,0,1,.05-.17c0,.11,0,.12,0,0-.08.1-.08.11,0,0h-1.54c.09.09.09.08,0,0l0-.09q0,.18,0,0t0,0c-.06.21,0-.06.06-.11a1.08,1.08,0,0,0,1.53,1.53,1.88,1.88,0,0,0,0-2.78,1.09,1.09,0,0,0-1.54,0,2.18,2.18,0,0,0,.54,3.25.84.84,0,0,0,1.23-.5,2,2,0,0,0,0-.69c0-.19-.06-.39-.09-.59a1.75,1.75,0,0,0-.41-1,.37.37,0,0,0-.62.16Z" transform="translate(2.06 -607)"/><path class="cls-9" d="M406.23,632.42c-.1-.11-.1-.1,0,0l.19.15a1.11,1.11,0,0,1,.32.25,1,1,0,0,1,.28.6l.22-.84a1.65,1.65,0,0,1-.29.26c-.18.11,0,0-.16.06a.17.17,0,0,1,.17,0,.4.4,0,0,1,.15.14c.11.17,0-.08,0,.14,0-.17,0,.11-.06.16a.56.56,0,0,1-.48.28,1,1,0,0,0,1-1,1,1,0,0,0-1.22-.93,1.46,1.46,0,0,0-1,1.84,1.55,1.55,0,0,0,2.12,1,2.34,2.34,0,0,0,1.08-.86,1.21,1.21,0,0,0-.26-1.46,2.25,2.25,0,0,0-.93-.68,1.92,1.92,0,0,0-.54-.11,1.32,1.32,0,0,0-.59.15.4.4,0,0,0,0,.77Z" transform="translate(2.06 -607)"/><path class="cls-18" d="M378.67,644.09l0,.11a30.6,30.6,0,0,0,3.41-1.41c1.6-.79,4.67-1.56,4.25-3.93-.29-1.61-2.12-2.07-3.44-2.14a10.66,10.66,0,0,0-4.91,1.2h0A23,23,0,0,0,378.67,644.09Z" transform="translate(2.06 -607)"/><path class="cls-18" d="M379.31,646.3c.25.72.52,1.44.81,2.14.52,1.24,1.13,2.53,1.81,3.82q2.47-1.68,4.82-3.54c1.14-.92,2.37-2.12,2.2-3.56a1.61,1.61,0,0,0-.88-1.32,2.09,2.09,0,0,0-.86-.12C384.42,643.77,382,645.4,379.31,646.3Z" transform="translate(2.06 -607)"/><path class="cls-18" d="M378.22,635.41c3.33.16,8.81-.19,7-3.17-.86-1.41-3.8-1.78-5.87-1.46A21.76,21.76,0,0,0,378.22,635.41Z" transform="translate(2.06 -607)"/><path class="cls-18" d="M424.76,635.32c.5,2.35,3.64,1.9,5.42,2a26.91,26.91,0,0,0,3.36,0c-.33-1.44-.7-2.87-1.05-4.26a16.89,16.89,0,0,0-.58-1.83,10.44,10.44,0,0,0-4.78.75C425.93,632.6,424.41,633.72,424.76,635.32Z" transform="translate(2.06 -607)"/><path class="cls-18" d="M424.75,642.12c.39,1.41,2,2.06,3.38,2.47q3.09.9,6.25,1.53a24,24,0,0,0-.4-6.59c-2.75.15-5.61-.39-8.16.6a2.16,2.16,0,0,0-.76.45A1.58,1.58,0,0,0,424.75,642.12Z" transform="translate(2.06 -607)"/><path class="cls-18" d="M430.9,629.08c-.16-.3-.32-.59-.5-.89a25.86,25.86,0,0,0-2.14-3c-2.06.47-4.7,1.94-5,3.6C422.76,632.17,427.87,630.48,430.9,629.08Z" transform="translate(2.06 -607)"/><path class="cls-4" d="M410.75,712.4l-.35.35Z" transform="translate(2.06 -607)"/><path class="cls-19" d="M341.53,687.54c1.26.7,1.2,2.54.68,3.87s-1.36,2.68-1.09,4.09a3.8,3.8,0,0,0,.76,1.58,6.68,6.68,0,0,0,6.41,2.5,8.81,8.81,0,0,0,5.2-3.47,26.46,26.46,0,0,0,3-5.62Z" transform="translate(2.06 -607)"/><path class="cls-20" d="M828.31,654.38l-.71,1c.91-2.91,2.06-5.7,3-8.62a6.57,6.57,0,0,1,1.17-2.49,2.29,2.29,0,0,1,2.49-.76,34.74,34.74,0,0,1,2.6,12.61Z" transform="translate(2.06 -607)"/><path class="cls-20" d="M816.36,681.94c-3.93-.44-6.61-4.12-10.14-5.92-6-3-13.45-.15-18.2,4.55-2.66,2.62-4.87,6.11-4.54,9.83s4.17,7.15,7.68,5.89c3.89-1.39,4.6-6.89,8.08-9.11,2.53-1.63,5.9-1.09,8.67.08s5.33,2.91,8.25,3.63,6.52.08,8-2.53Z" transform="translate(2.06 -607)"/><path class="cls-21" d="M820.89,691.38c10.08,6.21,23,4.86,34.54,2.19,8.14-1.89,16.59-4.6,22.14-10.84,4.16-4.67,6.24-10.89,6.94-17.1s.12-12.48-.45-18.7a56.67,56.67,0,0,0-.64-5.84c-4.8-.62-4.43,3-7.71,5.2-2.11,1.38-6.18,1.79-8.61,1.94q-19.79,1.24-39.48,3.72a71,71,0,0,0-7.27,1.17c-2.62.61-5.56,1.44-7.85,0-1.76-1.08-2.6-3.23-4.23-4.52-4.1-3.22-3.6,8.11-3.5,9.87.18,3.42,1.39,6.57,2.15,9.88C809,677.55,812.5,686.19,820.89,691.38Z" transform="translate(2.06 -607)"/><path class="cls-17" d="M859.19,689.92c-18.3-1.73-12.19-27.55-2.33-35.43a24.92,24.92,0,0,1,27.43-2.09,34.88,34.88,0,0,0-19.57,14.15c-3.36,5.05-8.09,17.15-5.49,22.93Z" transform="translate(2.06 -607)"/><path class="cls-21" d="M900.16,678.26a20.07,20.07,0,0,0,10.17-.69,31.79,31.79,0,0,1-8.4-7.36l-.3.8Z" transform="translate(2.06 -607)"/><path class="cls-21" d="M870.52,692.83l.12,9.38c2.41-.66,4.25-2.62,5.68-4.68s2.61-4.31,4.4-6.07Z" transform="translate(2.06 -607)"/><path class="cls-21" d="M853.67,669.22c-2.54,7.12-1.37,15.73,3.86,21.18,4.17,4.34,10.45,6.29,16.45,5.93a33.29,33.29,0,0,0,16.7-6.25c5.47-3.76,10.25-8.91,12.23-15.25s.67-13.94-4.31-18.34c-3-2.68-7-4-11-4.91C873.48,648.1,858.77,655,853.67,669.22Z" transform="translate(2.06 -607)"/><path class="cls-9" d="M882.06,671.36a4,4,0,0,1-.35-4.18,3.4,3.4,0,0,1,3.58-1.54,1,1,0,0,0,.51-1.85,4.84,4.84,0,0,0-5.54,2.54,4.31,4.31,0,0,0,1.44,5.39c.21.14.51-.15.36-.36Z" transform="translate(2.06 -607)"/><path class="cls-9" d="M881.43,670.86c-2.8-2.62-7.24-.19-7.72,3.25a.69.69,0,1,0,1.37.18,3.76,3.76,0,0,1,2.11-2.93,4.69,4.69,0,0,1,3.81.23c.42.17.72-.45.43-.73Z" transform="translate(2.06 -607)"/><path class="cls-9" d="M892.54,673.26a5.46,5.46,0,0,0,.77,2.48.79.79,0,0,0,1.43-.6,7.12,7.12,0,0,0-.93-2,1,1,0,0,0-1.63,1,7.48,7.48,0,0,0,1.25,1.77l1.11-1.11a3.33,3.33,0,0,1-1-1.67.52.52,0,0,0-1,.14Z" transform="translate(2.06 -607)"/><path class="cls-9" d="M878.93,685.67l0,.07,0-.31c-.19.63.42,1,.84,1.39a.85.85,0,0,0,1.42-.83,2.67,2.67,0,0,0-1.3-1.59,1,1,0,0,0-1.41.47,1,1,0,0,0,.64,1.35c.13,0,0,0,0,0a.71.71,0,0,0,.15.08l.11.07c.11,0-.16-.15,0,0l.19.18.06.06c-.08-.08,0,.06,0,.08l1.17-1.17c-.25-.12-.49-.24-.74-.34a1.6,1.6,0,0,0-.43-.11.77.77,0,0,0-.59.22l.28-.12h-.08c-.28,0-.44.33-.31.54Z" transform="translate(2.06 -607)"/><path class="cls-9" d="M881.31,671.13a2,2,0,0,0-.4.18,1,1,0,0,0-.52.91,1.06,1.06,0,0,0,.31.75,1.08,1.08,0,0,0,.75.31,1,1,0,0,0,.91-.52,2,2,0,0,0,.18-.4,1,1,0,0,0-1.23-1.23Z" transform="translate(2.06 -607)"/><path class="cls-22" d="M888.62,668.94a10.19,10.19,0,0,0,1.94-1.25c.61-.43,1.23-.84,1.86-1.25,1.35-.87,2.75-1.67,4.08-2.58a.57.57,0,0,0-.58-1,31.88,31.88,0,0,0-4.15,2.77L890,667a7.85,7.85,0,0,0-1.7,1.55c-.12.18.09.46.29.38Z" transform="translate(2.06 -607)"/><path class="cls-22" d="M890.67,670.07a10,10,0,0,0,3.55-.57,28.31,28.31,0,0,0,3.56-1.24c1.12-.47.43-2.12-.65-1.54a30,30,0,0,1-3.42,1.54,23.54,23.54,0,0,0-3.21,1.15.36.36,0,0,0,.17.66Z" transform="translate(2.06 -607)"/><path class="cls-22" d="M877.83,677.48a18.39,18.39,0,0,0-3.35,1.81,37.18,37.18,0,0,0-3.39,2.14c-.86.65-.12,2.05.87,1.49a37.41,37.41,0,0,0,3.32-2.27,18.72,18.72,0,0,0,3-2.36c.3-.34,0-1-.47-.81Z" transform="translate(2.06 -607)"/><path class="cls-22" d="M878.69,679.74c-1,.85-1.79,2-2.72,2.92a37.75,37.75,0,0,1-3,2.67c-.83.66.35,1.86,1.17,1.17a29,29,0,0,0,3-2.88,13.24,13.24,0,0,0,2.4-3.23.54.54,0,0,0-.85-.65Z" transform="translate(2.06 -607)"/><path class="cls-11" d="M864,650.31c-.23-3.7-6.61-2-7.06.85a4.08,4.08,0,0,0,2.37,4,6.21,6.21,0,0,0,5.1.06,5.75,5.75,0,0,0,3.48-3.76,3.23,3.23,0,0,0-3.08-4.11,7.62,7.62,0,0,0-5.39,2.29c-1.49,1.47-2.4,3.81-.69,5.51s4,1.26,5.71,0a5.44,5.44,0,0,0,2.2-5.23,4.5,4.5,0,0,0-3.92-3.66,4,4,0,0,0-4.22,3.51,3.65,3.65,0,1,0,7.29.11,3.84,3.84,0,0,0-3.32-3.55,5.26,5.26,0,0,0-4.93,1.68,3.65,3.65,0,0,0,1.16,5.84,4.25,4.25,0,0,0,5.48-2.31c1-2.15-.29-5.11-3-4.46a5.34,5.34,0,0,0-3.75,5.26,1.6,1.6,0,0,0,3.14.42,3.48,3.48,0,0,1,.78-1.92c.11-.12.71-.45.73-.51l-.84-.35a.13.13,0,0,1,0-.09c.31-.19-.1.32,0,.17-.2.33-.47.83-1,.8-.26,0-.31-.13-.43-.31.19.27-.09.15.07-.08s.12-.2.19-.29a1.94,1.94,0,0,1,1.44-.63,1.62,1.62,0,0,1,.78.15s.19.24.18.18c.15.83-1.06.46-.55-.12.81-.95,1.66.66,1.53,1.38a2.51,2.51,0,0,1-1,1.51c-.33.23-1.24.71-1.48.13.06.14,0,0,.14-.22s.14-.21.21-.31a4.88,4.88,0,0,1,.85-.85,5,5,0,0,1,2.43-1,1.62,1.62,0,0,1,.44,0c.09,0,.22.18.08,0,.14.2,0,.61-.06.78a3.32,3.32,0,0,1-1.57,1.59c-1.39.73-3.52.72-4.3-.88-.47-1,.52-1.49,1.26-1.87,1-.54,2.44-.83,3.07.46a.29.29,0,0,0,.53-.15Z" transform="translate(2.06 -607)"/><path class="cls-9" d="M860.84,648.48c.56,1,1.22,1.91,1.85,2.86a.68.68,0,1,0,1.07-.83c-.73-.86-1.43-1.76-2.23-2.57a.44.44,0,0,0-.69.54Z" transform="translate(2.06 -607)"/><path class="cls-9" d="M864,648.39a9.87,9.87,0,0,0-3.42,1.66c-.77.45,0,1.68.68,1.16.53-.4,1.06-.8,1.58-1.22a4.61,4.61,0,0,0,1.32-1.32c.06-.11,0-.3-.16-.28Z" transform="translate(2.06 -607)"/><path class="cls-23" d="M749,647.2a46.84,46.84,0,0,1,4.44-8.4c1.34-2,2.95-4,5.2-4.91s5.27-.27,6.32,1.92a2.54,2.54,0,0,1,.07,2.26c-.61,1.17-2.14,1.38-3.36,1.85-2.76,1.08-4.39,4-5.25,6.79s-1.19,5.85-2.44,8.53-3.81,5.09-6.77,4.93Z" transform="translate(2.06 -607)"/><path class="cls-23" d="M678.44,683.93c-5.2-6-9.09-14.43-6.23-21.88,1.15-3,3.31-5.56,4.39-8.59s.62-7.1-2.26-8.55a8.05,8.05,0,0,1,5.38-1.06,9.46,9.46,0,0,0-8.45-7.76c1.7-1.56,1.36-4.51-.17-6.24s-3.87-2.48-6.13-2.93a1.8,1.8,0,0,1-1.32-.68,1.63,1.63,0,0,1-.07-1,13.92,13.92,0,0,1,2.64-6.12c4.84-6.27,14.41-6.76,20.93-3,8.59,4.9,10.37,15,9,24a49,49,0,0,1-4.4,13.92c-2.32,4.79-5.63,7.91-5.66,13.6,0,4.12,2.21,12.3-.18,15.9A4.66,4.66,0,0,1,678.44,683.93Z" transform="translate(2.06 -607)"/><path class="cls-24" d="M726.19,618.64a18.21,18.21,0,0,0-9.38-7.37,22.87,22.87,0,0,0-1.4,7.85c0,2.09.37,4.34,1.85,5.81Z" transform="translate(2.06 -607)"/><path class="cls-24" d="M723.11,618.1a9.18,9.18,0,0,0-2.69.63,8.8,8.8,0,0,0-2.09,1.52,100.14,100.14,0,0,0-12.08,13c-10.45,13.41-17.3,29.22-24,44.83-1.16,2.68-2.34,5.69-1.35,8.45s3.72,4.29,6.36,5.4c11.13,4.71,23.57,5,35.66,5.2,5.83.11,11.73.2,17.41-1.16a16.93,16.93,0,0,0,6.75-3c5.39-4.32,5.63-12.32,5.23-19.22-.87-15.17-2.17-30.47-4.22-45.54C746.33,615.54,733.43,616.81,723.11,618.1Z" transform="translate(2.06 -607)"/><path class="cls-9" d="M744.27,623.94c1.2,1.4,2.25,3.33,1.7,5.22a2.45,2.45,0,0,1-3.49,1.42c-.77-.54-1.44.7-.72,1.25,1.75,1.35,4.09.2,5.06-1.53,1.36-2.4-.49-5.1-2.23-6.68a.23.23,0,0,0-.32.32Z" transform="translate(2.06 -607)"/><path class="cls-9" d="M745,622.3a2.25,2.25,0,0,0-3.13,1.2c-.15.37.17.71.48.83a3,3,0,0,0,3-.48,2.29,2.29,0,0,0,.38-2.67,1.86,1.86,0,0,0-1.12-.9,1.73,1.73,0,0,0-1.63.44,1.77,1.77,0,0,0,.15,2.86,1.07,1.07,0,0,0,1.46-.38,1.1,1.1,0,0,0-.39-1.46.58.58,0,0,1,.28.49c0-.19,0,0-.06.1q.11-.17,0,0c.12-.15,0,0-.08,0,.17,0,.12,0-.18,0-.13,0,.09.08,0,0s0,.13,0,.09a.62.62,0,0,1,0,.27.76.76,0,0,1-.34.27,2.3,2.3,0,0,1-1.22.1l.68.68a1.15,1.15,0,0,1,1.59-.9c.29.1.46-.34.2-.48Z" transform="translate(2.06 -607)"/><path class="cls-9" d="M731.79,626.71a4.29,4.29,0,0,1,5.21-3.66.67.67,0,0,0,.35-1.3,4.88,4.88,0,0,0-6.06,5,.25.25,0,0,0,.5,0Z" transform="translate(2.06 -607)"/><path class="cls-23" d="M737.23,698c.17,1.45.85,3.33,2.29,3.16.88-.1,1.43-1,1.81-1.77,2.12-4.45,2.82-9.42,3.49-14.3a9.65,9.65,0,0,0,0-3.86,5,5,0,0,0-4.77-3.61C731.84,677.75,736.7,693.4,737.23,698Z" transform="translate(2.06 -607)"/><path class="cls-23" d="M702,697.83c-6.21.48-12.22-2.32-17.39-5.8a4.18,4.18,0,0,1-1.21-1.08c-1-1.48.16-3.47,1.54-4.59,4.43-3.57,8.65-.17,13,2.17C700.7,690,710.17,697.21,702,697.83Z" transform="translate(2.06 -607)"/><path class="cls-25" d="M934.21,634.21c-.11-1.58-1.3-3.15-2.14-4.45a34.58,34.58,0,0,0-3.14-4.35,1.67,1.67,0,0,0-2.77.72,15,15,0,0,0,1,9.29,1.78,1.78,0,0,0,2.41.64,4.18,4.18,0,0,0,2.34-4.06l-3.5.48a3.09,3.09,0,0,0,1.43,2.12c1.67,1.21,3.36-1.34,2.11-2.74-.1-.1-.07-.16-.1-.33-.3-2-3.69-1.52-3.5.47a.84.84,0,0,1-.56,1l2.41.63a11.82,11.82,0,0,1-.85-6.64l-2.76.73c1.17,1.19,2.42,2.28,3.54,3.52s1.94,2.68,3.25,3.42a.55.55,0,0,0,.83-.47Z" transform="translate(2.06 -607)"/><path class="cls-25" d="M956,632.15a46.81,46.81,0,0,0-2.24-4.62c-.42-.8-.81-1.61-1.2-2.42-.22-.46-.44-.92-.67-1.38a4.74,4.74,0,0,1-.64-1.37,1.59,1.59,0,0,0-2.93-.8,17.17,17.17,0,0,0-2.63,7.84,1.8,1.8,0,0,0,1.32,1.72c1.43.56,2.64-.54,3.18-1.77l.28-.64c.15-.36.12-.15,0-.14.09,0-.12-.21-.08-.12s0,.29-.07.5c-.71,1.93,2.49,3.29,3.33,1.4,1-2.11.11-5-2.45-5.37a3.88,3.88,0,0,0-3.16.93,3,3,0,0,0-.77,1.17c-.07.18-.18.45-.27.65l-.1.21c-.33.52,0,.44,1.1-.27l1.31,1.73a22,22,0,0,1,1.92-6.63l-2.3.94c.69.35,1.25,1.5,1.71,2.11s1.08,1.44,1.56,2.2c1,1.5,1.86,3.07,2.88,4.53.32.46,1.2.19,1-.4Z" transform="translate(2.06 -607)"/><path class="cls-25" d="M924.49,665.28c-2.7,0-8.79-.5-11.1.68-8.68,4.42,10.67,10.48,14.11,11.51Z" transform="translate(2.06 -607)"/><path class="cls-25" d="M982.89,660.41a14.86,14.86,0,0,0,9.19,5.42c2.43.42,7.49,1,9.64-.24a5.8,5.8,0,0,0,2.6-4.86,11.12,11.12,0,0,0-1.53-5.47,26.82,26.82,0,0,1-2.34-4.63,8.39,8.39,0,0,1,.67-6.4,6.91,6.91,0,0,1,4.07-3.36c2.78-.77,5.77.66,7.76,2.75,4.92,5.19,4.63,13.55,2,20.2-1.87,4.73-4.9,9.19-9.33,11.67-9.07,5.09-17.18-2.24-24.14-7.54Z" transform="translate(2.06 -607)"/><path class="cls-26" d="M935.9,630.05a37.64,37.64,0,0,0-3.67,1.55c-11.06,5.37-11.58,20.06-10.63,30.84.72,8.19.86,16.72,6.61,23.28,5.6,6.37,14.26,7.72,22.23,8.72l16.68,2.08c4.25.53,8.54,1.06,12.79.5a18,18,0,0,0,11.47-5.74c9-10.37,6.69-21.25,1.27-33C982.62,636.58,960.17,621.26,935.9,630.05Z" transform="translate(2.06 -607)"/><path class="cls-9" d="M949.41,646.35a4.55,4.55,0,0,1-4.42,3.07,4,4,0,0,1-2.39-1.19,9.7,9.7,0,0,1-1.39-2.42.71.71,0,0,0-1.3.17c-.59,2.66,2.49,4.78,4.8,4.94a4.91,4.91,0,0,0,5.07-4.52c0-.22-.3-.23-.37,0Z" transform="translate(2.06 -607)"/><path class="cls-9" d="M933.75,649.3a1.71,1.71,0,0,0,.78,2c1,.72,2.49.26,3.52-.19,2-.87,3.77-3.23,3.13-5.46a1,1,0,0,0-1.91.52,2.93,2.93,0,0,1-1.2,3.06c-.93.81-3.41,1.76-4,.06a.17.17,0,0,0-.32,0Z" transform="translate(2.06 -607)"/><path class="cls-9" d="M940.47,644.62a.16.16,0,0,1,0-.07l-.22.17a.51.51,0,0,0,.28-.2h0c-.18.05.28,0,.19,0a.19.19,0,0,1-.13,0s-.2-.15-.09,0l-.07-.07c.05.08,0,.06,0,0,0,.07,0,.24,0,0,0,.11,0,.08,0-.07,0,.2.11-.19,0,0l.08-.11c-.08.08-.06.06.06,0-.18.12.22-.07,0,0,.17,0,.2,0,.08,0,.27,0,.14,0,0,0l.14.06c-.1-.06-.08,0,.07.06l.08.12c-.23,1.55-.86,1.73-1.91.54a1.28,1.28,0,1,0,2.34-1,1.47,1.47,0,0,0-1.2-.7,1.42,1.42,0,0,0-1,.41,1.45,1.45,0,0,0-.44,1,1.67,1.67,0,0,0,.47,1.07,1.87,1.87,0,0,0,2.93-.37,1.55,1.55,0,0,0-1.24-2.25,1.14,1.14,0,0,0-1.13,1.33.59.59,0,0,0,.32.41.25.25,0,0,0,.37-.15Z" transform="translate(2.06 -607)"/><path class="cls-9" d="M943.35,650c-.27,1-.45,3.65-2,3.35-1.37-.26-1.94-2.32-2.31-3.4-.18-.5-1-.61-1.14,0-.38,2,1.22,5.12,3.5,5.16a2.84,2.84,0,0,0,2.6-1.71,3.74,3.74,0,0,0-.31-3.45.2.2,0,0,0-.36,0Z" transform="translate(2.06 -607)"/><path class="cls-9" d="M934,639.74a2.48,2.48,0,0,0-.86-1,2.87,2.87,0,0,0-1.8-.27,3.06,3.06,0,0,0-2.64,2.35.7.7,0,0,0,1.35.37,2,2,0,0,1,1.48-1.28,2.87,2.87,0,0,1,2.06.25c.24.19.56-.17.41-.41Z" transform="translate(2.06 -607)"/><path class="cls-9" d="M944.11,638.68a2.13,2.13,0,0,1,3.24-1c.59.53,1.45-.31.88-.87a2.85,2.85,0,0,0-3-.58,2.6,2.6,0,0,0-1.83,2.4c0,.42.62.5.71.1Z" transform="translate(2.06 -607)"/><path class="cls-25" d="M956.4,697.08c-.38,1.25-.91,2.66-2.13,3.13-2.38-3.33-5.52-8.6-5.57-12.85,0-2.62,1.93-6.33,5.59-6.15a3.82,3.82,0,0,1,1.78.68C962.45,686,958.12,691.45,956.4,697.08Z" transform="translate(2.06 -607)"/><path class="cls-25" d="M930.71,648.35c-.51-.3-.93-.07-1.47,0s-1.15,0-1.73.06a1.51,1.51,0,0,0,0,3,4.88,4.88,0,0,0,2.52-.88,3.47,3.47,0,0,0,1-.87,1,1,0,0,0-.28-1.32Z" transform="translate(2.06 -607)"/><path class="cls-25" d="M952.49,644.44a5,5,0,0,0,3.62-.67,1.17,1.17,0,1,0-1.43-1.85,7.79,7.79,0,0,1-2.19,1.24c-.56.21-.7,1.13,0,1.28Z" transform="translate(2.06 -607)"/><path class="cls-25" d="M973.22,695.8c-.62,2.11,1.34,3.73,8,3.63a16.55,16.55,0,0,0,7.72-2.27c1.81-1,3.61-2.43,4-4.46C995.27,680.91,974.88,690.1,973.22,695.8Z" transform="translate(2.06 -607)"/><path class="cls-21" d="M845,651.9c3.37-1.86,2.93-5.32,4.68-8.18,2.6-.09,5,4.3,5.53,6.54Z" transform="translate(2.06 -607)"/></svg>