<svg id="Layer_1" xmlns="http://www.w3.org/2000/svg" viewBox="0 0 1981 1108"><defs><style>.cls-1{fill:#fff;}.cls-2{fill:#b4e2fa;}</style></defs><title>khlk</title><rect class="cls-1" x="46.5" y="-39.5" width="43" height="135" transform="translate(52.86 110.6) rotate(-83.84)"/><path d="M3.64-.07,136.87,14.32l-4.51,41.75L-.87,41.68,3.64-.07m-.88-1.1L-2,42.57l135.21,14.6L138,13.43,2.76-1.17Z" transform="translate(20 18)"/><rect class="cls-2" width="1981" height="1108"/><path class="cls-1" d="M253.61,495.05c3.67,1.1,5.52,1.77,6.69,3.12,2.32,2.67,1.46,5.69-1.22,8a8.94,8.94,0,0,1-4.73,2.34s-2.24-.06-5,2.58c-3.05,2.44-3.29,4.67-3.29,4.67a8.8,8.8,0,0,1-3,4.31c-2.68,2.32-5.79,2.74-8.1.07-1.18-1.35-1.57-3.29-2.13-7.08,0,0-1.29-7.41-.73-11.9a9.86,9.86,0,0,1,3.09-5.56l.82-.72h0s2.79-2.43,6-2.26C246.45,492.87,253.61,495.05,253.61,495.05Zm-27.4,2.6c2.8-2.42,2-7.92-1.77-12.27s-9.1-5.93-11.89-3.51-2,7.92,1.77,12.28S223.42,500.08,226.21,497.65ZM228,509.5c1.24-2.74-1.22-6.52-5.48-8.45s-8.72-1.27-10,1.47S213.76,509,218,511,226.74,512.23,228,509.5Zm10-22c2.79-2.43,2-7.92-1.77-12.28s-9.1-5.93-11.9-3.51-2,7.92,1.77,12.28S235.19,489.88,238,487.46Zm6.76-12.84c-2.88.83-4.17,5.15-2.87,9.65s4.69,7.46,7.58,6.63,4.17-5.16,2.87-9.65S247.64,473.78,244.75,474.62Z" transform="translate(20 18)"/><path class="cls-1" d="M440.73,77c.34,3.82.42,5.79-.4,7.38-1.62,3.14-4.74,3.46-7.89,1.84a8.83,8.83,0,0,1-3.94-3.52s-.77-2.09-4.27-3.72c-3.4-1.92-5.56-1.32-5.56-1.32a8.77,8.77,0,0,1-5.11-1.16c-3.15-1.62-4.7-4.35-3.08-7.49.82-1.6,2.47-2.68,5.78-4.61,0,0,6.4-4,10.78-5.11a9.89,9.89,0,0,1,6.3.8l1,.5h0s3.29,1.68,4.31,4.67C440.09,69.52,440.73,77,440.73,77ZM428.12,52.52c3.29,1.69,8.09-1.09,10.73-6.22S441,35.65,437.68,34s-8.1,1.08-10.74,6.21S424.83,50.82,428.12,52.52Zm-10.34,6c3,.13,5.6-3.55,5.8-8.22s-2.06-8.57-5.07-8.71-5.59,3.56-5.8,8.23S414.78,58.43,417.78,58.56ZM442,59.65c3.29,1.69,8.1-1.09,10.74-6.21s2.11-10.66-1.17-12.35-8.1,1.09-10.74,6.21S438.67,58,442,59.65Zm14.44,1.5c-1.85-2.37-6.34-1.95-10,.93s-5.18,7.13-3.33,9.5,6.34,2,10-.93S458.25,63.52,456.4,61.15Z" transform="translate(20 18)"/><path class="cls-1" d="M25.3,230.65c3.4,1.77,5.1,2.77,6,4.32,1.78,3.06.36,5.86-2.7,7.64A8.91,8.91,0,0,1,23.5,244s-2.18-.48-5.44,1.59c-3.45,1.82-4.11,4-4.11,4a8.73,8.73,0,0,1-3.74,3.67c-3.06,1.78-6.19,1.61-8-1.45-.9-1.55-.91-3.52-.76-7.35,0,0,.13-7.52,1.52-11.83a9.89,9.89,0,0,1,4.07-4.88l.95-.55H8s3.2-1.86,6.26-1.11C18.68,227.17,25.3,230.65,25.3,230.65Zm-27.4-2.58c3.21-1.85,3.46-7.4.57-12.39s-7.83-7.53-11-5.68-3.45,7.41-.56,12.4S-5.3,229.93-2.1,228.07Zm-.48,12c1.73-2.46,0-6.63-3.8-9.33s-8.33-2.88-10.06-.43,0,6.63,3.8,9.33S-4.31,242.49-2.58,240Zm14-19.78c3.2-1.85,3.46-7.4.57-12.39s-7.83-7.53-11-5.67-3.46,7.4-.57,12.39S8.18,222.12,11.38,220.26Zm9.06-11.34c-3,.28-5.07,4.28-4.63,8.94s3.21,8.21,6.2,7.93,5.06-4.28,4.63-8.94S23.43,208.64,20.44,208.92Z" transform="translate(20 18)"/><path class="cls-1" d="M316.81,866.36c1,3.69,1.45,5.62.93,7.33-1,3.39-4,4.27-7.42,3.24a8.88,8.88,0,0,1-4.51-2.75s-1.14-1.93-4.88-2.9c-3.68-1.28-5.7-.29-5.7-.29a8.85,8.85,0,0,1-5.24-.22c-3.39-1-5.4-3.43-4.38-6.82.52-1.71,1.95-3.07,4.85-5.57,0,0,5.59-5,9.69-7a9.86,9.86,0,0,1,6.34-.35l1.05.31h0s3.54,1.07,5.09,3.83C314.83,859.15,316.81,866.36,316.81,866.36ZM300,844.58c3.54,1.08,7.77-2.53,9.44-8s.16-10.86-3.38-11.94-7.76,2.53-9.44,8S296.45,843.51,300,844.58Zm-9.07,7.81c3-.41,4.86-4.5,4.22-9.14s-3.58-8-6.55-7.64-4.87,4.51-4.23,9.14S287.94,852.81,290.92,852.39Zm24-3.29c3.54,1.08,7.77-2.53,9.44-8s.16-10.86-3.38-11.94-7.77,2.53-9.44,8S311.36,848,314.9,849.1ZM329.37,848c-2.25-2-6.59-.78-9.69,2.71s-3.82,7.95-1.57,9.95,6.58.78,9.69-2.72S331.61,850,329.37,848Z" transform="translate(20 18)"/><path class="cls-1" d="M285.26,662.84c3.38,1.81,5.07,2.82,5.95,4.38,1.75,3.08.3,5.87-2.78,7.61a8.84,8.84,0,0,1-5.1,1.36s-2.18-.5-5.46,1.54c-3.47,1.78-4.15,3.92-4.15,3.92a8.71,8.71,0,0,1-3.77,3.64c-3.08,1.74-6.21,1.55-8-1.53-.88-1.56-.88-3.53-.68-7.36,0,0,.2-7.52,1.63-11.81a9.88,9.88,0,0,1,4.13-4.84l.95-.54h0s3.21-1.83,6.28-1.05C278.68,659.29,285.26,662.84,285.26,662.84ZM257.9,660c3.22-1.82,3.53-7.36.69-12.38s-7.75-7.61-11-5.79-3.53,7.37-.69,12.39S254.68,661.81,257.9,660Zm-.61,12c1.75-2.44.09-6.63-3.7-9.37s-8.3-3-10.06-.53-.09,6.63,3.7,9.36S255.53,674.38,257.29,672Zm14.16-19.64c3.22-1.82,3.53-7.36.69-12.38s-7.75-7.61-11-5.79-3.53,7.37-.69,12.39S268.23,654.14,271.45,652.31Zm9.17-11.25c-3,.25-5.1,4.23-4.72,8.9s3.13,8.24,6.12,8,5.11-4.23,4.72-8.89S283.62,640.82,280.62,641.06Z" transform="translate(20 18)"/><path class="cls-1" d="M344.67,331.94c-.3,3.82-.55,5.78-1.63,7.21-2.12,2.83-5.25,2.63-8.08.5a8.91,8.91,0,0,1-3.3-4.12s-.41-2.2-3.59-4.39c-3-2.46-5.26-2.23-5.26-2.23a8.76,8.76,0,0,1-4.85-2c-2.83-2.12-3.91-5.07-1.78-7.9,1.07-1.44,2.88-2.23,6.46-3.59,0,0,7-2.83,11.48-3.23a9.88,9.88,0,0,1,6.09,1.83l.87.66h0s3,2.21,3.48,5.33C345.28,324.49,344.67,331.94,344.67,331.94Zm-8.36-26.21c3,2.22,8.16.27,11.62-4.34s3.86-10.15.9-12.37-8.16-.28-11.62,4.34S333.35,303.51,336.31,305.73ZM325.11,310c2.94.62,6.11-2.57,7.09-7.15s-.61-8.79-3.54-9.42-6.12,2.57-7.09,7.14S322.17,309.34,325.11,310Zm23.66,5.1c3,2.22,8.17.28,11.63-4.34s3.86-10.15.9-12.37-8.17-.28-11.63,4.34S345.81,312.85,348.77,315.07Zm14,3.88c-1.43-2.64-5.92-3-10-.75s-6.3,6.17-4.87,8.81,5.92,3,10,.76S364.19,321.6,362.76,319Z" transform="translate(20 18)"/><path class="cls-1" d="M297,100.66c2.06,3.23,3,5,3,6.74,0,3.53-2.62,5.25-6.16,5.25a8.89,8.89,0,0,1-5.12-1.33s-1.64-1.51-5.5-1.35c-3.9-.15-5.55,1.37-5.55,1.37a8.68,8.68,0,0,1-5.07,1.31c-3.54,0-6.17-1.71-6.17-5.25,0-1.79,1-3.51,3-6.74,0,0,3.89-6.45,7.25-9.48a9.89,9.89,0,0,1,6-2.18h1.09s3.7,0,6,2.18C293.06,94.32,297,100.66,297,100.66Zm-22.41-16c3.7,0,6.7-4.67,6.7-10.44s-3-10.44-6.7-10.44-6.7,4.68-6.7,10.44S270.93,84.69,274.63,84.69ZM268.21,94.8c2.73-1.26,3.35-5.72,1.39-10s-5.76-6.67-8.49-5.41-3.35,5.72-1.39,10S265.48,96.06,268.21,94.8Zm22-10.11c3.7,0,6.7-4.67,6.7-10.44s-3-10.44-6.7-10.44-6.7,4.68-6.7,10.44S286.51,84.69,290.21,84.69Zm13.52-5.28c-2.73-1.25-6.53,1.17-8.49,5.42s-1.34,8.71,1.39,10,6.53-1.17,8.49-5.41S306.46,80.67,303.73,79.41Z" transform="translate(20 18)"/><path class="cls-1" d="M252.8,1018.68c1.26,3.62,1.81,5.51,1.39,7.25-.81,3.45-3.76,4.51-7.2,3.7a8.9,8.9,0,0,1-4.67-2.46s-1.26-1.85-5-2.58c-3.76-1-5.72.06-5.72.06a8.77,8.77,0,0,1-5.24.11c-3.44-.81-5.61-3.08-4.79-6.53.41-1.74,1.75-3.19,4.49-5.87,0,0,5.25-5.38,9.22-7.56a9.94,9.94,0,0,1,6.32-.75l1.06.25h0s3.6.84,5.32,3.49C250.38,1011.6,252.8,1018.68,252.8,1018.68ZM234.65,998c3.6.85,7.59-3,8.92-8.63s-.53-10.84-4.13-11.69-7.59,3-8.91,8.62S231.05,997.15,234.65,998Zm-8.57,8.36c2.95-.6,4.58-4.8,3.64-9.38s-4.07-7.82-7-7.22-4.57,4.8-3.64,9.39S223.14,1007,226.08,1006.36Zm23.73-4.79c3.6.85,7.59-3,8.92-8.62s-.53-10.85-4.13-11.7-7.59,3-8.91,8.62S246.21,1000.72,249.81,1001.57Zm14.37-2c-2.36-1.85-6.62-.37-9.5,3.32s-3.3,8.17-.94,10,6.62.36,9.51-3.33S266.55,1001.39,264.18,999.54Z" transform="translate(20 18)"/><path class="cls-1" d="M114.28,933.75c3.39,1.79,5.08,2.8,6,4.35,1.76,3.07.33,5.87-2.74,7.62a8.84,8.84,0,0,1-5.1,1.39s-2.18-.49-5.45,1.56c-3.46,1.8-4.13,4-4.13,4a8.72,8.72,0,0,1-3.75,3.65c-3.08,1.76-6.21,1.58-8-1.49-.89-1.56-.9-3.53-.72-7.35,0,0,.17-7.53,1.58-11.83a9.94,9.94,0,0,1,4.1-4.86l1-.54h0s3.2-1.84,6.27-1.07C107.68,930.23,114.28,933.75,114.28,933.75ZM86.9,931c3.21-1.84,3.49-7.39.63-12.39s-7.79-7.57-11-5.74-3.49,7.39-.63,12.39S83.69,932.86,86.9,931Zm-.55,12c1.74-2.45.06-6.63-3.75-9.34s-8.31-2.93-10-.49-.07,6.63,3.74,9.35S84.61,945.43,86.35,943Zm14.07-19.7c3.21-1.84,3.49-7.38.63-12.39s-7.79-7.57-11-5.73-3.49,7.38-.63,12.39S97.21,925.13,100.42,923.29ZM109.53,912c-3,.26-5.08,4.25-4.67,8.91s3.16,8.23,6.15,8,5.09-4.26,4.68-8.92S112.53,911.73,109.53,912Z" transform="translate(20 18)"/><path class="cls-1" d="M159.27,778.25c.69,3.77.94,5.73.26,7.39-1.33,3.27-4.41,3.87-7.69,2.53A8.85,8.85,0,0,1,147.6,785s-.95-2-4.59-3.33c-3.55-1.62-5.65-.82-5.65-.82a8.75,8.75,0,0,1-5.19-.71c-3.28-1.33-5.07-3.91-3.73-7.19.67-1.65,2.22-2.88,5.34-5.1,0,0,6-4.5,10.28-6a9.94,9.94,0,0,1,6.36.23l1,.41h0s3.43,1.39,4.71,4.28C158,770.89,159.27,778.25,159.27,778.25ZM144.54,755c3.43,1.4,8-1.8,10.14-7.14s1.16-10.8-2.26-12.19-8,1.8-10.14,7.14S141.12,753.62,144.54,755ZM134.78,762c3-.13,5.26-4,5.05-8.71S137,744.89,134,745s-5.26,4-5,8.71S131.78,762.09,134.78,762ZM159,760.89c3.42,1.39,8-1.8,10.14-7.14s1.16-10.8-2.27-12.2-8,1.8-10.14,7.14S155.54,759.49,159,760.89Zm14.51.21c-2-2.19-6.49-1.38-9.9,1.82s-4.53,7.56-2.48,9.75,6.49,1.39,9.9-1.81S175.53,763.3,173.48,761.1Z" transform="translate(20 18)"/><path class="cls-1" d="M66.16,591.38c-1.37,3.57-2.17,5.37-3.61,6.44-2.84,2.11-5.78,1-7.89-1.82a8.85,8.85,0,0,1-2-4.89s.22-2.22-2.2-5.23c-2.2-3.22-4.41-3.63-4.41-3.63A8.82,8.82,0,0,1,42,579c-2.11-2.84-2.3-6,.54-8.08,1.44-1.07,3.4-1.31,7.22-1.59,0,0,7.49-.73,11.93.16a10,10,0,0,1,5.31,3.5l.65.88h0s2.21,3,1.81,6.09C68.87,584.4,66.16,591.38,66.16,591.38Zm-.54-27.51c2.21,3,7.75,2.59,12.37-.85s6.6-8.63,4.39-11.6-7.74-2.59-12.37.85S63.41,560.9,65.62,563.87Zm-11.94.87c2.63,1.44,6.59-.72,8.83-4.83s1.92-8.6-.72-10-6.59.72-8.83,4.83S51,563.3,53.68,564.74Zm21.23,11.63c2.2,3,7.74,2.59,12.37-.84s6.59-8.64,4.39-11.61-7.75-2.59-12.38.85S72.7,573.4,74.91,576.37Zm12.29,7.71c-.61-2.94-4.82-4.54-9.41-3.59s-7.79,4.12-7.17,7.06,4.82,4.55,9.4,3.59S87.82,587,87.2,584.08Z" transform="translate(20 18)"/><path class="cls-1" d="M117,374.66c2.06,3.23,3,4.95,3,6.74,0,3.53-2.62,5.25-6.16,5.25a8.89,8.89,0,0,1-5.12-1.33s-1.64-1.51-5.5-1.35c-3.9-.15-5.55,1.37-5.55,1.37a8.68,8.68,0,0,1-5.07,1.31c-3.54,0-6.17-1.71-6.17-5.25,0-1.79,1-3.51,3-6.74,0,0,3.89-6.45,7.25-9.48a9.89,9.89,0,0,1,6-2.18h1.09s3.7,0,6,2.18C113.06,368.32,117,374.66,117,374.66Zm-22.41-16c3.7,0,6.7-4.67,6.7-10.44s-3-10.44-6.7-10.44-6.7,4.68-6.7,10.44S90.93,358.69,94.63,358.69ZM88.21,368.8c2.73-1.26,3.35-5.72,1.39-10s-5.76-6.67-8.49-5.41-3.35,5.72-1.39,10S85.48,370.06,88.21,368.8Zm22-10.11c3.7,0,6.7-4.67,6.7-10.44s-3-10.44-6.7-10.44-6.7,4.68-6.7,10.44S106.51,358.69,110.21,358.69Zm13.52-5.28c-2.73-1.25-6.53,1.17-8.49,5.42s-1.34,8.71,1.39,10,6.53-1.17,8.49-5.41S126.46,354.67,123.73,353.41Z" transform="translate(20 18)"/><path class="cls-1" d="M198.28,238.73c.47,3.81.6,5.77-.17,7.39-1.52,3.19-4.63,3.61-7.82,2.09a8.88,8.88,0,0,1-4-3.39s-.84-2.07-4.39-3.59c-3.45-1.82-5.6-1.15-5.6-1.15a8.76,8.76,0,0,1-5.14-1c-3.2-1.52-4.83-4.19-3.31-7.39.77-1.62,2.38-2.75,5.63-4.79,0,0,6.27-4.15,10.61-5.44a9.92,9.92,0,0,1,6.33.6l1,.47h0s3.34,1.58,4.46,4.54C197.41,231.3,198.28,238.73,198.28,238.73Zm-13.37-24c3.34,1.59,8.06-1.34,10.53-6.55s1.78-10.71-1.56-12.31-8,1.35-10.53,6.55S181.57,213.1,184.91,214.69Zm-10.14,6.37c3,0,5.48-3.73,5.54-8.41s-2.34-8.5-5.34-8.54-5.48,3.73-5.54,8.41S171.76,221,174.77,221.06Zm24.2.32c3.34,1.59,8.06-1.34,10.54-6.55s1.78-10.71-1.56-12.3-8.06,1.34-10.54,6.55S195.63,219.79,199,221.38Zm14.48,1.05c-1.92-2.31-6.4-1.76-10,1.24s-5,7.29-3,9.6,6.39,1.75,10-1.24S215.37,224.74,213.45,222.43Z" transform="translate(20 18)"/><path class="cls-1" d="M108.54,93.89c2.76,2.66,4.1,4.1,4.52,5.84.83,3.44-1.32,5.72-4.77,6.55a8.86,8.86,0,0,1-5.28-.09s-2-1.08-5.67,0c-3.82.77-5.07,2.64-5.07,2.64a8.79,8.79,0,0,1-4.62,2.46c-3.44.83-6.4-.22-7.23-3.66-.42-1.75.12-3.64,1.36-7.27,0,0,2.27-7.17,4.83-10.91a9.91,9.91,0,0,1,5.29-3.51L93,85.65h0s3.6-.88,6.33.72C103.19,88.66,108.54,93.89,108.54,93.89ZM83,83.61c3.6-.86,5.42-6.11,4.07-11.72s-5.36-9.44-9-8.58S72.71,69.43,74.06,75,79.42,84.48,83,83.61ZM79.14,94.94c2.36-1.86,1.92-6.34-1-10S71,79.79,68.64,81.65s-1.92,6.35,1,10S76.79,96.8,79.14,94.94Zm19-15c3.6-.87,5.42-6.12,4.07-11.72s-5.36-9.45-9-8.58-5.42,6.11-4.07,11.71S94.56,80.83,98.16,80Zm11.91-8.3c-2.95-.58-6.07,2.66-7,7.25s.73,8.79,3.68,9.37,6.07-2.66,7-7.25S113,72.26,110.07,71.67Z" transform="translate(20 18)"/><path class="cls-1" d="M1002.14,284.2c.22,3.83.23,5.8-.64,7.36-1.72,3.09-4.85,3.31-7.94,1.59a8.85,8.85,0,0,1-3.82-3.65s-.71-2.12-4.16-3.86c-3.32-2-5.51-1.5-5.51-1.5a8.81,8.81,0,0,1-5.07-1.33c-3.09-1.72-4.55-4.5-2.83-7.59.88-1.57,2.56-2.59,5.93-4.42,0,0,6.53-3.74,10.94-4.75a9.91,9.91,0,0,1,6.28,1l.95.54h0s3.24,1.79,4.16,4.81C1001.75,276.73,1002.14,284.2,1002.14,284.2Zm-11.8-24.85c3.23,1.8,8.13-.83,10.93-5.86s2.47-10.58-.76-12.38-8.13.82-10.94,5.86S987.11,257.54,990.34,259.35Zm-10.53,5.7c3,.23,5.71-3.37,6.07-8s-1.79-8.64-4.78-8.86-5.71,3.36-6.07,8S976.82,264.82,979.81,265.05Zm24.14,1.88c3.23,1.8,8.12-.82,10.93-5.86s2.46-10.58-.77-12.38-8.13.82-10.93,5.86S1000.71,265.13,1004,266.93Zm14.37,2c-1.77-2.42-6.26-2.16-10.05.6s-5.41,7-3.64,9.39,6.27,2.16,10-.6S1020.09,271.33,1018.32,268.9Z" transform="translate(20 18)"/><path class="cls-1" d="M986.19,742.24c3.81.34,5.76.63,7.18,1.72,2.8,2.16,2.56,5.29.4,8.09a9,9,0,0,1-4.18,3.24s-2.2.38-4.43,3.53c-2.5,3-2.3,5.23-2.3,5.23a8.69,8.69,0,0,1-2.06,4.82c-2.16,2.8-5.12,3.84-7.93,1.68-1.41-1.09-2.18-2.91-3.49-6.51,0,0-2.73-7-3.08-11.52a9.94,9.94,0,0,1,1.92-6.07l.67-.86h0s2.26-2.94,5.38-3.4C978.74,741.52,986.19,742.24,986.19,742.24Zm-26.33,8c2.26-2.93.39-8.16-4.18-11.68s-10.1-4-12.36-1.07-.38,8.16,4.18,11.68S957.6,753.17,959.86,750.24ZM964,761.49c.66-2.92-2.49-6.14-7.05-7.18s-8.8.49-9.47,3.42,2.49,6.14,7.05,7.18S963.28,764.42,964,761.49Zm5.42-23.59c2.26-2.93.39-8.16-4.18-11.68s-10.1-4-12.36-1.06-.38,8.16,4.18,11.67S967.11,740.83,969.37,737.9ZM973.44,724c-2.66,1.39-3.06,5.88-.89,10s6.08,6.38,8.75,5,3.06-5.88.89-10S976.11,722.58,973.44,724Z" transform="translate(20 18)"/><path class="cls-1" d="M949.92,1007.41c-1.23,3.63-2,5.46-3.35,6.59-2.76,2.21-5.74,1.25-8-1.51a8.9,8.9,0,0,1-2.18-4.81s.14-2.23-2.4-5.14c-2.32-3.13-4.55-3.46-4.55-3.46a8.74,8.74,0,0,1-4.2-3.13c-2.22-2.75-2.54-5.87.22-8.09,1.39-1.13,3.34-1.45,7.15-1.88,0,0,7.45-1,11.92-.31A9.92,9.92,0,0,1,950,989l.68.85h0s2.33,2.87,2.06,6C952.35,1000.34,949.92,1007.41,949.92,1007.41Zm-1.63-27.47c2.32,2.89,7.84,2.29,12.33-1.33s6.25-8.89,3.93-11.77-7.85-2.28-12.34,1.34S946,977.06,948.29,979.94Zm-11.9,1.35c2.69,1.33,6.56-1,8.63-5.18s1.58-8.67-1.11-10-6.55,1-8.63,5.17S933.7,980,936.39,981.29Zm21.67,10.78c2.32,2.88,7.85,2.29,12.34-1.33s6.24-8.89,3.92-11.77-7.84-2.28-12.33,1.34S955.74,989.19,958.06,992.07Zm12.6,7.22c-.74-2.92-5-4.35-9.55-3.21s-7.62,4.42-6.89,7.34,5,4.35,9.54,3.21S971.39,1002.2,970.66,999.29Z" transform="translate(20 18)"/><path class="cls-1" d="M898.38,433.14c3.45,1.67,5.17,2.63,6.11,4.15,1.86,3,.52,5.85-2.49,7.71a8.92,8.92,0,0,1-5,1.55s-2.19-.42-5.4,1.74c-3.39,1.91-4,4.08-4,4.08a8.72,8.72,0,0,1-3.63,3.77c-3,1.86-6.15,1.78-8-1.23-.94-1.53-1-3.5-1-7.33,0,0-.08-7.52,1.2-11.87a9.89,9.89,0,0,1,3.94-5l.93-.57h0s3.14-1.95,6.23-1.28C891.67,429.84,898.39,433.14,898.38,433.14Zm-27.45-1.84c3.15-1.94,3.25-7.49.23-12.4s-8-7.31-11.18-5.37-3.25,7.49-.23,12.4S867.78,433.24,870.93,431.3Zm-.16,12c1.66-2.51-.15-6.63-4-9.22s-8.4-2.66-10.07-.16.16,6.63,4.05,9.22S869.11,445.78,870.77,443.28Zm13.42-20.15c3.15-1.94,3.25-7.49.23-12.4s-8-7.31-11.18-5.37-3.25,7.49-.23,12.4S881,425.07,884.19,423.13Zm8.74-11.58c-3,.36-4.94,4.41-4.38,9.06s3.43,8.12,6.41,7.76,4.95-4.42,4.39-9.06S895.92,411.19,892.93,411.55Z" transform="translate(20 18)"/><path class="cls-1" d="M796.57,699.39c3.59,1.35,5.39,2.14,6.47,3.58,2.12,2.83,1.05,5.77-1.78,7.9a8.91,8.91,0,0,1-4.89,2s-2.22-.22-5.21,2.22c-3.21,2.22-3.62,4.43-3.62,4.43a8.72,8.72,0,0,1-3.27,4.09c-2.83,2.13-6,2.33-8.08-.5-1.08-1.43-1.33-3.38-1.63-7.2,0,0-.77-7.49.1-11.93a9.91,9.91,0,0,1,3.47-5.33L779,698h0s3-2.23,6.09-1.84C789.58,696.72,796.57,699.39,796.57,699.39Zm-27.51.69c3-2.23,2.56-7.76-.9-12.38s-8.67-6.54-11.63-4.32-2.55,7.76.91,12.37S766.11,702.3,769.06,700.08ZM770,712c1.42-2.64-.76-6.58-4.88-8.8s-8.61-1.88-10,.76.75,6.59,4.87,8.81S768.57,714.66,770,712Zm11.52-21.29c3-2.22,2.55-7.76-.91-12.37S772,671.81,769,674s-2.55,7.76.91,12.37S778.56,693,781.52,690.72Zm7.65-12.33c-2.94.63-4.52,4.85-3.54,9.42s4.16,7.78,7.1,7.14,4.52-4.85,3.53-9.42S792.1,677.76,789.17,678.39Z" transform="translate(20 18)"/><path class="cls-1" d="M845.94,157.21c3.83.13,5.79.31,7.27,1.32,2.91,2,2.84,5.14.84,8.06a9,9,0,0,1-4,3.46s-2.18.51-4.23,3.78c-2.34,3.12-2,5.35-2,5.35A8.77,8.77,0,0,1,842,184.1c-2,2.92-4.91,4.12-7.82,2.11-1.48-1-2.34-2.78-3.85-6.31,0,0-3.12-6.84-3.71-11.33a9.92,9.92,0,0,1,1.58-6.16l.62-.9h0s2.08-3.06,5.18-3.69C838.46,156.91,845.94,157.21,845.94,157.21Zm-25.85,9.44c2.1-3.05-.06-8.17-4.81-11.43s-10.31-3.44-12.4-.39.06,8.17,4.81,11.43S818,169.7,820.09,166.65Zm4.7,11c.51-3-2.82-6-7.43-6.78s-8.76,1-9.27,3.93,2.82,6,7.44,6.79S824.29,180.62,824.79,177.66Zm4.12-23.85c2.09-3.05-.07-8.17-4.82-11.43s-10.3-3.44-12.4-.39.07,8.17,4.82,11.43S826.81,156.86,828.91,153.81Zm3.3-14.14c-2.58,1.54-2.73,6.05-.34,10.07s6.42,6,9,4.49,2.73-6,.34-10.06S834.79,138.14,832.21,139.67Z" transform="translate(20 18)"/><path class="cls-1" d="M769,323.4c.62,3.78.83,5.74.13,7.39-1.39,3.25-4.48,3.8-7.74,2.41a9,9,0,0,1-4.18-3.23s-.92-2-4.53-3.41c-3.52-1.68-5.64-.92-5.64-.92a8.84,8.84,0,0,1-5.18-.79c-3.25-1.39-5-4-3.6-7.26.7-1.64,2.27-2.84,5.43-5,0,0,6.1-4.4,10.38-5.86a9.89,9.89,0,0,1,6.35.34l1,.43h0s3.4,1.44,4.64,4.35C767.81,316,769,323.4,769,323.4Zm-14.33-23.49c3.4,1.46,8-1.66,10.26-7s1.35-10.78-2-12.23-8,1.66-10.26,7S751.25,298.46,754.65,299.91Zm-9.88,6.77c3-.08,5.33-3.94,5.2-8.62s-2.67-8.4-5.68-8.31-5.33,3.94-5.19,8.62S741.77,306.77,744.77,306.68ZM769,306c3.4,1.45,8-1.67,10.27-7s1.34-10.78-2.06-12.23-8,1.66-10.26,7S765.57,304.58,769,306Zm14.51.46c-2-2.23-6.46-1.49-9.94,1.64s-4.65,7.49-2.64,9.72,6.46,1.49,9.93-1.64S785.49,308.73,783.48,306.5Z" transform="translate(20 18)"/><path class="cls-1" d="M780.17,879.54c0,3.83-.08,5.8-1,7.31-1.89,3-5,3-8,1.16a8.89,8.89,0,0,1-3.62-3.85s-.59-2.15-3.94-4.08c-3.21-2.2-5.42-1.79-5.42-1.79a8.75,8.75,0,0,1-5-1.6c-3-1.88-4.31-4.73-2.42-7.73.95-1.51,2.69-2.45,6.15-4.09,0,0,6.72-3.39,11.18-4.16a9.86,9.86,0,0,1,6.21,1.34l.93.58h0s3.13,2,3.89,5C780.18,872.05,780.17,879.54,780.17,879.54Zm-10.45-25.46c3.13,2,8.16-.38,11.23-5.26s3-10.43-.11-12.4-8.16.38-11.23,5.26S766.59,852.11,769.72,854.08Zm-10.82,5.14c3,.39,5.88-3.06,6.48-7.7s-1.31-8.72-4.29-9.1-5.89,3.05-6.49,7.69S755.92,858.83,758.9,859.22Zm24,3.16c3.13,2,8.16-.38,11.23-5.26s3-10.43-.11-12.4-8.16.38-11.23,5.26S779.76,860.41,782.9,862.38Zm14.25,2.75c-1.64-2.52-6.15-2.5-10.07,0s-5.78,6.66-4.14,9.18,6.15,2.49,10.07-.06S798.79,867.64,797.15,865.13Z" transform="translate(20 18)"/><path class="cls-1" d="M669,1011.66c2.06,3.23,3,5,3,6.74,0,3.53-2.62,5.25-6.16,5.25a8.89,8.89,0,0,1-5.12-1.33s-1.64-1.51-5.5-1.35c-3.9-.15-5.55,1.37-5.55,1.37a8.68,8.68,0,0,1-5.07,1.31c-3.54,0-6.17-1.71-6.17-5.25,0-1.79,1-3.51,3-6.74,0,0,3.89-6.45,7.25-9.48a9.89,9.89,0,0,1,6-2.18h1.09s3.7,0,6,2.18C665.06,1005.32,669,1011.66,669,1011.66Zm-22.41-16c3.7,0,6.7-4.67,6.7-10.44s-3-10.44-6.7-10.44-6.7,4.68-6.7,10.44S642.93,995.69,646.63,995.69Zm-6.42,10.11c2.73-1.26,3.35-5.72,1.39-10s-5.76-6.67-8.49-5.41-3.35,5.72-1.39,10S637.48,1007.06,640.21,1005.8Zm22-10.11c3.7,0,6.7-4.67,6.7-10.44s-3-10.44-6.7-10.44-6.7,4.68-6.7,10.44S658.51,995.69,662.21,995.69Zm13.52-5.28c-2.73-1.25-6.53,1.17-8.49,5.42s-1.34,8.71,1.39,10,6.53-1.17,8.49-5.41S678.46,991.67,675.73,990.41Z" transform="translate(20 18)"/><path class="cls-1" d="M628.18,759.24c3.35,1.87,5,2.92,5.86,4.5,1.68,3.11.18,5.87-2.94,7.55a8.88,8.88,0,0,1-5.13,1.25s-2.16-.54-5.49,1.42c-3.5,1.71-4.23,3.84-4.23,3.84a8.77,8.77,0,0,1-3.85,3.56c-3.11,1.68-6.24,1.42-7.92-1.7-.85-1.58-.81-3.55-.53-7.37,0,0,.36-7.51,1.88-11.78a9.88,9.88,0,0,1,4.23-4.75l1-.52h0s3.25-1.76,6.3-.91C621.67,755.55,628.18,759.24,628.18,759.24Zm-27.3-3.43c3.26-1.76,3.68-7.3,1-12.37s-7.59-7.77-10.85-6-3.68,7.3-.94,12.37S597.63,757.56,600.88,755.81ZM600,767.75c1.81-2.4.24-6.63-3.5-9.44s-8.24-3.14-10-.74-.24,6.63,3.5,9.44S598.22,770.15,600,767.75Zm14.58-19.33c3.25-1.75,3.68-7.29.95-12.37s-7.6-7.76-10.85-6-3.69,7.29-1,12.37S611.34,750.18,614.6,748.42Zm9.4-11c-3,.18-5.2,4.12-4.91,8.79s2.95,8.3,5.95,8.12,5.2-4.12,4.91-8.79S627,737.18,624,737.37Z" transform="translate(20 18)"/><path class="cls-1" d="M570,515.66c2.06,3.23,3,5,3,6.74,0,3.53-2.62,5.25-6.16,5.25a8.89,8.89,0,0,1-5.12-1.33s-1.64-1.51-5.5-1.35c-3.9-.15-5.55,1.37-5.55,1.37a8.68,8.68,0,0,1-5.07,1.31c-3.54,0-6.17-1.71-6.17-5.25,0-1.79,1-3.51,3-6.74,0,0,3.89-6.45,7.25-9.48a9.89,9.89,0,0,1,6-2.18h1.09s3.7,0,6,2.18C566.06,509.32,570,515.66,570,515.66Zm-22.41-16c3.7,0,6.7-4.67,6.7-10.44s-3-10.44-6.7-10.44-6.7,4.68-6.7,10.44S543.93,499.69,547.63,499.69Zm-6.42,10.11c2.73-1.26,3.35-5.72,1.39-10s-5.76-6.67-8.49-5.41-3.35,5.72-1.39,10S538.48,511.06,541.21,509.8Zm22-10.11c3.7,0,6.7-4.67,6.7-10.44s-3-10.44-6.7-10.44-6.7,4.68-6.7,10.44S559.51,499.69,563.21,499.69Zm13.52-5.28c-2.73-1.25-6.53,1.17-8.49,5.42s-1.34,8.71,1.39,10,6.53-1.17,8.49-5.41S579.46,495.67,576.73,494.41Z" transform="translate(20 18)"/><path class="cls-1" d="M704.47,540.44c.08,3.83,0,5.8-.91,7.33-1.84,3-5,3.13-8,1.29a8.89,8.89,0,0,1-3.68-3.79s-.63-2.14-4-4c-3.25-2.15-5.45-1.7-5.45-1.7a8.78,8.78,0,0,1-5-1.52c-3-1.83-4.38-4.66-2.54-7.69.93-1.53,2.65-2.49,6.08-4.19,0,0,6.66-3.5,11.11-4.35a9.91,9.91,0,0,1,6.24,1.24l.93.57h0s3.17,1.91,4,5C704.35,533,704.47,540.44,704.47,540.44ZM693.6,515.16c3.16,1.92,8.15-.52,11.14-5.45s2.85-10.48-.31-12.4-8.15.52-11.14,5.45S690.44,513.24,693.6,515.16Zm-10.73,5.31c3,.34,5.83-3.15,6.36-7.8s-1.47-8.69-4.45-9-5.83,3.15-6.36,7.8S679.88,520.13,682.87,520.47Zm24,2.77c3.17,1.92,8.16-.52,11.15-5.44s2.85-10.48-.31-12.4-8.16.52-11.15,5.44S703.75,521.32,706.91,523.24Zm14.3,2.51c-1.68-2.49-6.18-2.39-10.07.22s-5.66,6.76-4,9.25,6.18,2.39,10.06-.23S722.89,528.24,721.21,525.75Z" transform="translate(20 18)"/><path class="cls-1" d="M559,316.9c3.27,2,4.9,3.1,5.69,4.71,1.57,3.17,0,5.87-3.2,7.44a8.93,8.93,0,0,1-5.17,1.07s-2.15-.62-5.54,1.23c-3.56,1.58-4.37,3.68-4.37,3.68a8.73,8.73,0,0,1-4,3.42c-3.17,1.57-6.29,1.19-7.85-2-.8-1.61-.68-3.57-.27-7.38,0,0,.62-7.5,2.3-11.71a9.9,9.9,0,0,1,4.39-4.6l1-.48h0s3.31-1.65,6.32-.69C552.66,313,559,316.9,559,316.9Zm-27.16-4.4c3.32-1.63,3.94-7.15,1.39-12.32s-7.31-8-10.63-6.4-3.94,7.16-1.39,12.33S528.55,314.14,531.87,312.5Zm-1.29,11.91c1.89-2.34.48-6.61-3.16-9.56s-8.12-3.43-10-1.09-.47,6.61,3.17,9.55S528.7,326.74,530.58,324.41Zm15.25-18.8c3.32-1.64,3.94-7.16,1.39-12.33s-7.31-8-10.62-6.39-3.94,7.15-1.39,12.32S542.52,307.25,545.83,305.61Zm9.79-10.71c-3,.07-5.33,3.93-5.21,8.61s2.65,8.4,5.66,8.32,5.33-3.93,5.21-8.61S558.63,294.82,555.62,294.9Z" transform="translate(20 18)"/><path class="cls-1" d="M648.75,77c.35,3.82.42,5.79-.39,7.38-1.62,3.15-4.74,3.47-7.89,1.86a9,9,0,0,1-3.94-3.52s-.78-2.1-4.28-3.72c-3.39-1.92-5.56-1.31-5.56-1.31a8.77,8.77,0,0,1-5.11-1.16c-3.15-1.62-4.71-4.34-3.09-7.49.82-1.59,2.47-2.67,5.77-4.61,0,0,6.4-4,10.78-5.12a9.89,9.89,0,0,1,6.31.79l1,.5h0s3.29,1.68,4.32,4.67C648.1,69.51,648.75,77,648.75,77ZM636.11,52.52c3.29,1.69,8.09-1.09,10.73-6.22s2.1-10.66-1.19-12.35-8.09,1.1-10.73,6.23S632.82,50.83,636.11,52.52Zm-10.33,6.06c3,.13,5.59-3.56,5.79-8.23s-2.08-8.57-5.08-8.7-5.59,3.56-5.79,8.24S622.78,58.45,625.78,58.58ZM650,59.64c3.29,1.69,8.1-1.1,10.73-6.22s2.11-10.66-1.19-12.35-8.09,1.09-10.72,6.22S646.67,58,650,59.64Zm14.44,1.48c-1.85-2.36-6.34-1.94-10,.94s-5.17,7.14-3.32,9.51,6.34,1.94,10-.94S666.25,63.49,664.4,61.12Z" transform="translate(20 18)"/><path class="cls-1" d="M413.65,601c1.46,3.54,2.11,5.4,1.8,7.16-.62,3.48-3.51,4.72-7,4.1a8.84,8.84,0,0,1-4.8-2.2s-1.36-1.77-5.19-2.3c-3.81-.83-5.7.39-5.7.39a8.74,8.74,0,0,1-5.22.4c-3.49-.62-5.78-2.76-5.16-6.25.31-1.76,1.57-3.28,4.15-6.11,0,0,4.95-5.66,8.79-8.06a9.93,9.93,0,0,1,6.26-1.11l1.08.19h0s3.64.64,5.5,3.19C410.83,594.09,413.65,601,413.65,601Zm-19.28-19.64c3.64.65,7.41-3.43,8.42-9.1s-1.13-10.81-4.78-11.45-7.41,3.43-8.42,9.11S390.73,580.74,394.37,581.38Zm-8.09,8.84c2.91-.76,4.3-5.05,3.11-9.58s-4.51-7.57-7.41-6.81-4.3,5-3.11,9.58S383.38,591,386.28,590.22Zm23.42-6.12c3.65.65,7.42-3.43,8.42-9.11s-1.13-10.8-4.77-11.44-7.41,3.43-8.42,9.11S406.06,583.46,409.7,584.1Zm14.24-2.83c-2.47-1.72-6.63,0-9.3,3.85s-2.84,8.34-.38,10.06,6.63,0,9.31-3.85S426.41,583,423.94,581.27Z" transform="translate(20 18)"/><path class="cls-1" d="M494.59,956.48c3.7,1,5.58,1.6,6.79,2.92,2.39,2.6,1.62,5.64-1,8a8.77,8.77,0,0,1-4.66,2.48s-2.23,0-5,2.73c-3,2.53-3.15,4.77-3.15,4.77a8.81,8.81,0,0,1-2.85,4.4c-2.61,2.39-5.7,2.91-8.1.3-1.21-1.32-1.65-3.23-2.33-7,0,0-1.51-7.37-1.08-11.88a9.91,9.91,0,0,1,2.92-5.64l.8-.74h0s2.72-2.51,5.88-2.44C487.37,954.51,494.59,956.48,494.59,956.48Zm-27.3,3.42c2.72-2.51,1.77-8-2.13-12.22s-9.28-5.66-12-3.15-1.77,8,2.13,12.21S464.57,962.4,467.29,959.9Zm2.11,11.78c1.16-2.77-1.4-6.48-5.72-8.28s-8.76-1-9.91,1.76,1.4,6.48,5.72,8.28S468.25,974.45,469.4,971.68Zm9.36-22.33c2.72-2.5,1.76-8-2.14-12.21s-9.27-5.66-12-3.16-1.77,8,2.13,12.22S476,951.86,478.76,949.35Zm6.38-13c-2.86.92-4,5.27-2.59,9.73s4.91,7.32,7.78,6.4,4-5.27,2.58-9.73S488,935.4,485.14,936.32Z" transform="translate(20 18)"/><path class="cls-1" d="M440.25,757.07c1.13,3.66,1.62,5.57,1.14,7.3-.93,3.41-3.91,4.37-7.33,3.44a8.91,8.91,0,0,1-4.58-2.63s-1.19-1.89-5-2.75c-3.71-1.18-5.71-.14-5.71-.14a8.74,8.74,0,0,1-5.24-.07c-3.41-.93-5.5-3.28-4.56-6.69.47-1.73,1.86-3.13,4.69-5.71,0,0,5.44-5.19,9.48-7.23a9.89,9.89,0,0,1,6.34-.54l1.05.29h0s3.57,1,5.19,3.68C438.08,749.91,440.25,757.07,440.25,757.07Zm-17.41-21.31c3.57,1,7.69-2.74,9.21-8.3s-.15-10.86-3.72-11.84-7.69,2.75-9.21,8.31S419.27,734.79,422.84,735.76ZM414,743.83c3-.5,4.74-4.64,4-9.26s-3.8-8-6.77-7.45-4.73,4.64-4,9.25S411,744.32,414,743.83Zm23.88-4c3.57,1,7.7-2.74,9.22-8.3s-.15-10.86-3.72-11.84-7.69,2.75-9.21,8.31S434.29,738.89,437.86,739.86Zm14.44-1.53c-2.3-1.93-6.61-.59-9.62,3s-3.58,8.06-1.28,10,6.6.59,9.61-3S454.6,740.27,452.3,738.33Z" transform="translate(20 18)"/><path class="cls-1" d="M493,196.41c-1,3.69-1.65,5.56-3,6.76-2.62,2.37-5.66,1.57-8-1a8.87,8.87,0,0,1-2.44-4.68s0-2.24-2.69-5c-2.5-3-4.74-3.19-4.74-3.19a8.68,8.68,0,0,1-4.37-2.89c-2.38-2.62-2.87-5.72-.24-8.09,1.33-1.21,3.25-1.64,7-2.28,0,0,7.38-1.44,11.89-1a9.87,9.87,0,0,1,5.62,3l.73.81h0s2.49,2.74,2.39,5.89C495,189.21,493,196.41,493,196.41Zm-3.19-27.33c2.49,2.74,8,1.83,12.24-2s5.74-9.23,3.25-12-8-1.84-12.23,2S487.34,166.33,489.82,169.08Zm-11.8,2c2.76,1.18,6.49-1.35,8.33-5.65s1.08-8.75-1.68-9.93-6.49,1.35-8.33,5.66S475.26,169.91,478,171.09Zm22.25,9.54c2.48,2.75,8,1.84,12.24-2s5.73-9.22,3.25-12-8-1.83-12.24,2S497.79,177.89,500.27,180.63Zm13,6.5c-.9-2.87-5.24-4.06-9.71-2.67s-7.36,4.85-6.47,7.72,5.24,4.06,9.71,2.66S514.14,190,513.25,187.13Z" transform="translate(20 18)"/><path class="cls-1" d="M951.14,598.2c.22,3.83.23,5.8-.64,7.36-1.72,3.09-4.85,3.31-7.94,1.59a8.85,8.85,0,0,1-3.82-3.65s-.71-2.12-4.16-3.86c-3.32-2-5.51-1.5-5.51-1.5a8.81,8.81,0,0,1-5.07-1.33c-3.09-1.72-4.55-4.5-2.83-7.59.88-1.57,2.56-2.59,5.93-4.42,0,0,6.53-3.74,10.94-4.75a9.91,9.91,0,0,1,6.28,1l.95.54h0s3.24,1.79,4.16,4.81C950.75,590.73,951.14,598.2,951.14,598.2Zm-11.8-24.85c3.23,1.8,8.13-.83,10.93-5.86s2.47-10.58-.76-12.38-8.13.82-10.94,5.86S936.11,571.54,939.34,573.35Zm-10.53,5.7c3,.23,5.71-3.37,6.07-8s-1.79-8.64-4.78-8.86-5.71,3.36-6.07,8S925.82,578.82,928.81,579.05ZM953,580.93c3.23,1.8,8.12-.82,10.93-5.86s2.46-10.58-.77-12.38-8.13.82-10.93,5.86S949.71,579.13,953,580.93Zm14.37,2c-1.77-2.42-6.26-2.16-10.05.6s-5.41,7-3.64,9.39,6.27,2.16,10-.6S969.09,585.33,967.32,582.9Z" transform="translate(20 18)"/><path class="cls-1" d="M1575.49,91c2.73,2.68,4.07,4.13,4.48,5.87.8,3.45-1.37,5.72-4.81,6.52a8.92,8.92,0,0,1-5.28-.12s-2-1.1-5.67-.07c-3.83.74-5.09,2.6-5.09,2.6a8.7,8.7,0,0,1-4.64,2.43c-3.45.81-6.4-.26-7.2-3.71-.41-1.74.14-3.63,1.4-7.25,0,0,2.31-7.16,4.9-10.88a9.93,9.93,0,0,1,5.32-3.48l1.06-.25h0s3.6-.85,6.32.76C1570.17,85.74,1575.49,91,1575.49,91ZM1550,80.56c3.6-.85,5.46-6.08,4.14-11.69s-5.29-9.48-8.9-8.64-5.46,6.08-4.14,11.69S1546.43,81.4,1550,80.56Zm-4,11.3c2.37-1.84,2-6.33-.92-10s-7.13-5.18-9.5-3.34-2,6.34.92,10S1543.71,93.71,1546.08,91.86ZM1565.19,77c3.61-.84,5.46-6.08,4.15-11.69s-5.3-9.48-8.9-8.64-5.46,6.08-4.15,11.69S1561.59,77.85,1565.19,77Zm12-8.22c-3-.6-6.09,2.62-7,7.21s.68,8.79,3.62,9.39,6.09-2.62,7-7.21S1580.1,69.4,1577.16,68.79Z" transform="translate(20 18)"/><path class="cls-1" d="M1695.14,725.2c.22,3.83.23,5.8-.64,7.36-1.72,3.09-4.85,3.31-7.94,1.59a8.85,8.85,0,0,1-3.82-3.65s-.71-2.12-4.16-3.86c-3.32-2-5.51-1.5-5.51-1.5a8.81,8.81,0,0,1-5.07-1.33c-3.09-1.72-4.55-4.5-2.83-7.59.88-1.57,2.56-2.59,5.93-4.42,0,0,6.53-3.74,10.94-4.75a9.91,9.91,0,0,1,6.28,1l1,.54h0s3.24,1.79,4.16,4.81C1694.75,717.73,1695.14,725.2,1695.14,725.2Zm-11.8-24.85c3.23,1.8,8.13-.83,10.93-5.86s2.47-10.58-.76-12.38-8.13.82-10.94,5.86S1680.11,698.54,1683.34,700.35Zm-10.53,5.7c3,.23,5.71-3.37,6.07-8s-1.79-8.64-4.78-8.86-5.71,3.36-6.07,8S1669.82,705.82,1672.81,706.05Zm24.14,1.88c3.23,1.8,8.12-.82,10.93-5.86s2.46-10.58-.77-12.38-8.13.82-10.93,5.86S1693.71,706.13,1697,707.93Zm14.37,2c-1.77-2.42-6.26-2.16-10,.6s-5.41,7-3.64,9.39,6.27,2.16,10-.6S1713.09,712.33,1711.32,709.9Z" transform="translate(20 18)"/><path class="cls-1" d="M1573.45,571.16c2.16,3.17,3.18,4.85,3.24,6.64.12,3.53-2.45,5.34-6,5.45a8.8,8.8,0,0,1-5.15-1.15s-1.7-1.45-5.55-1.17c-3.9,0-5.5,1.56-5.5,1.56a8.77,8.77,0,0,1-5,1.47c-3.54.12-6.23-1.5-6.34-5-.06-1.79.85-3.54,2.79-6.84,0,0,3.67-6.57,6.93-9.71a9.92,9.92,0,0,1,5.9-2.38l1.09,0h0s3.69-.13,6,2C1569.26,565,1573.45,571.16,1573.45,571.16ZM1550.52,556c3.7-.12,6.54-4.89,6.35-10.66s-3.35-10.33-7-10.21-6.54,4.9-6.34,10.66S1546.82,556.07,1550.52,556Zm-6.08,10.32c2.68-1.35,3.15-5.83,1-10s-6-6.48-8.66-5.13-3.16,5.83-1.06,10S1541.75,567.62,1544.44,566.27Zm21.64-10.84c3.7-.12,6.54-4.89,6.35-10.65s-3.34-10.34-7-10.21-6.54,4.89-6.35,10.65S1562.39,555.56,1566.08,555.43Zm13.34-5.72c-2.77-1.17-6.48,1.38-8.3,5.69s-1,8.76,1.72,9.92,6.48-1.38,8.3-5.69S1582.19,550.88,1579.42,549.71Z" transform="translate(20 18)"/><path class="cls-1" d="M1483.61,200.15c3.66,1.12,5.51,1.79,6.68,3.15,2.3,2.69,1.42,5.7-1.27,8a8.84,8.84,0,0,1-4.74,2.32s-2.23-.07-5.06,2.56c-3.06,2.42-3.32,4.65-3.32,4.65a8.81,8.81,0,0,1-3,4.3c-2.69,2.3-5.8,2.71-8.1,0-1.17-1.36-1.55-3.29-2.09-7.09,0,0-1.25-7.41-.67-11.91a9.9,9.9,0,0,1,3.12-5.54l.83-.71h0s2.8-2.41,6-2.23C1476.46,197.93,1483.61,200.15,1483.61,200.15Zm-27.41,2.46c2.81-2.41,2-7.91-1.71-12.29s-9.07-6-11.87-3.56-2,7.91,1.7,12.28S1453.39,205,1456.2,202.61Zm1.71,11.85c1.25-2.73-1.19-6.52-5.44-8.47s-8.72-1.32-10,1.41,1.18,6.53,5.44,8.48S1456.65,217.19,1457.91,214.46Zm10.12-22c2.81-2.41,2-7.91-1.71-12.29s-9.07-6-11.88-3.57-2,7.91,1.71,12.29S1465.22,194.88,1468,192.48Zm6.83-12.81c-2.89.82-4.2,5.13-2.92,9.64s4.65,7.48,7.54,6.66,4.2-5.13,2.92-9.63S1477.75,178.85,1474.86,179.67Z" transform="translate(20 18)"/><path class="cls-1" d="M1465.14,1030.2c.22,3.83.23,5.8-.64,7.36-1.72,3.09-4.85,3.31-7.94,1.59a8.85,8.85,0,0,1-3.82-3.65s-.71-2.12-4.16-3.86c-3.32-2-5.51-1.5-5.51-1.5a8.81,8.81,0,0,1-5.07-1.33c-3.09-1.72-4.55-4.5-2.83-7.59.88-1.57,2.56-2.59,5.93-4.42,0,0,6.53-3.74,10.94-4.75a9.91,9.91,0,0,1,6.28,1l1,.54h0s3.24,1.79,4.16,4.81C1464.75,1022.73,1465.14,1030.2,1465.14,1030.2Zm-11.8-24.85c3.23,1.8,8.13-.83,10.93-5.86s2.47-10.58-.76-12.38-8.13.82-10.94,5.86S1450.11,1003.54,1453.34,1005.35Zm-10.53,5.7c3,.23,5.71-3.37,6.07-8s-1.79-8.64-4.78-8.86-5.71,3.36-6.07,8S1439.82,1010.82,1442.81,1011.05Zm24.14,1.88c3.23,1.8,8.12-.82,10.93-5.86s2.46-10.58-.77-12.38-8.13.82-10.93,5.86S1463.71,1011.13,1467,1012.93Zm14.37,2c-1.77-2.42-6.26-2.16-10,.6s-5.41,7-3.64,9.39,6.27,2.16,10-.6S1483.09,1017.33,1481.32,1014.9Z" transform="translate(20 18)"/><path class="cls-1" d="M1549,869.59c3.82.22,5.78.43,7.24,1.48,2.87,2.06,2.73,5.19.67,8.07a8.91,8.91,0,0,1-4.06,3.38s-2.18.46-4.31,3.69c-2.39,3.07-2.12,5.3-2.12,5.3a8.71,8.71,0,0,1-1.89,4.89c-2.06,2.87-5,4-7.86,2-1.46-1.05-2.28-2.83-3.72-6.39,0,0-3-6.91-3.47-11.41a9.83,9.83,0,0,1,1.71-6.12l.63-.89h0s2.15-3,5.26-3.59C1541.57,869.14,1549,869.59,1549,869.59Zm-26,8.91c2.16-3,.11-8.17-4.58-11.53s-10.23-3.65-12.38-.64-.11,8.16,4.57,11.52S1520.85,881.5,1523,878.5Zm4.47,11.11c.57-3-2.69-6.06-7.29-6.94s-8.78.79-9.35,3.74,2.7,6.05,7.3,6.94S1526.91,892.55,1527.47,889.61Zm4.61-23.77c2.16-3,.11-8.17-4.58-11.53s-10.23-3.65-12.38-.64-.11,8.17,4.57,11.53S1529.92,868.85,1532.08,865.84Zm3.6-14.06c-2.62,1.48-2.86,6-.55,10.05s6.3,6.17,8.91,4.69,2.86-6,.55-10.06S1538.29,850.3,1535.68,851.78Z" transform="translate(20 18)"/><path class="cls-1" d="M1513.14,380.2c.22,3.83.23,5.8-.64,7.36-1.72,3.09-4.85,3.31-7.94,1.59a8.85,8.85,0,0,1-3.82-3.65s-.71-2.12-4.16-3.86c-3.32-2-5.51-1.5-5.51-1.5a8.81,8.81,0,0,1-5.07-1.33c-3.09-1.72-4.55-4.5-2.83-7.59.88-1.57,2.56-2.59,5.93-4.42,0,0,6.53-3.74,10.94-4.75a9.91,9.91,0,0,1,6.28,1l1,.54h0s3.24,1.79,4.16,4.81C1512.75,372.73,1513.14,380.2,1513.14,380.2Zm-11.8-24.85c3.23,1.8,8.13-.83,10.93-5.86s2.47-10.58-.76-12.38-8.13.82-10.94,5.86S1498.11,353.54,1501.34,355.35Zm-10.53,5.7c3,.23,5.71-3.37,6.07-8s-1.79-8.64-4.78-8.86-5.71,3.36-6.07,8S1487.82,360.82,1490.81,361.05Zm24.14,1.88c3.23,1.8,8.12-.82,10.93-5.86s2.46-10.58-.77-12.38-8.13.82-10.93,5.86S1511.71,361.13,1515,362.93Zm14.37,2c-1.77-2.42-6.26-2.16-10,.6s-5.41,7-3.64,9.39,6.27,2.16,10-.6S1531.09,367.33,1529.32,364.9Z" transform="translate(20 18)"/><path class="cls-1" d="M1312.14,156.2c.22,3.83.23,5.8-.64,7.36-1.72,3.09-4.85,3.31-7.94,1.59a8.85,8.85,0,0,1-3.82-3.65s-.71-2.12-4.16-3.86c-3.32-2-5.51-1.5-5.51-1.5a8.81,8.81,0,0,1-5.07-1.33c-3.09-1.72-4.55-4.5-2.83-7.59.88-1.57,2.56-2.59,5.93-4.42,0,0,6.53-3.74,10.94-4.75a9.91,9.91,0,0,1,6.28,1l1,.54h0s3.24,1.79,4.16,4.81C1311.75,148.73,1312.14,156.2,1312.14,156.2Zm-11.8-24.85c3.23,1.8,8.13-.83,10.93-5.86s2.47-10.58-.76-12.38-8.13.82-10.94,5.86S1297.11,129.54,1300.34,131.35Zm-10.53,5.7c3,.23,5.71-3.37,6.07-8s-1.79-8.64-4.78-8.86-5.71,3.36-6.07,8S1286.82,136.82,1289.81,137.05Zm24.14,1.88c3.23,1.8,8.12-.82,10.93-5.86s2.46-10.58-.77-12.38-8.13.82-10.93,5.86S1310.71,137.13,1314,138.93Zm14.37,2c-1.77-2.42-6.26-2.16-10,.6s-5.41,7-3.64,9.39,6.27,2.16,10-.6S1330.09,143.33,1328.32,140.9Z" transform="translate(20 18)"/><path class="cls-1" d="M1483.58,684.25c3.71.94,5.6,1.53,6.82,2.83,2.43,2.58,1.69,5.63-.88,8a8.9,8.9,0,0,1-4.63,2.54s-2.24,0-4.94,2.79c-2.94,2.56-3.09,4.81-3.09,4.81a8.85,8.85,0,0,1-2.8,4.43c-2.58,2.43-5.66,3-8.09.41-1.23-1.31-1.7-3.22-2.42-7,0,0-1.6-7.36-1.23-11.87a9.91,9.91,0,0,1,2.85-5.68l.8-.75h0s2.68-2.55,5.84-2.51C1476.34,682.37,1483.58,684.25,1483.58,684.25ZM1456.32,688c2.7-2.53,1.67-8-2.28-12.19s-9.34-5.54-12-3-1.68,8,2.28,12.19S1453.63,690.53,1456.32,688Zm2.26,11.77c1.12-2.79-1.48-6.47-5.82-8.21s-8.77-.91-9.9,1.88,1.49,6.46,5.83,8.21S1457.46,702.54,1458.58,699.76Zm9.08-22.45c2.69-2.53,1.67-8-2.28-12.19s-9.35-5.54-12-3-1.67,8,2.28,12.19S1465,679.85,1467.66,677.31Zm6.22-13.11c-2.85,1-4,5.33-2.46,9.76s5,7.26,7.85,6.31,4-5.33,2.46-9.76S1476.73,663.25,1473.88,664.2Z" transform="translate(20 18)"/><path class="cls-1" d="M1147.14,97.2c.22,3.83.23,5.8-.64,7.36-1.72,3.09-4.85,3.31-7.94,1.59a8.85,8.85,0,0,1-3.82-3.65s-.71-2.12-4.16-3.86c-3.32-2-5.51-1.5-5.51-1.5a8.81,8.81,0,0,1-5.07-1.33c-3.09-1.72-4.55-4.5-2.83-7.59.88-1.57,2.56-2.59,5.93-4.42,0,0,6.53-3.74,10.94-4.75a9.91,9.91,0,0,1,6.28,1l1,.54h0s3.24,1.79,4.16,4.81C1146.75,89.73,1147.14,97.2,1147.14,97.2Zm-11.8-24.85c3.23,1.8,8.13-.83,10.93-5.86s2.47-10.58-.76-12.38-8.13.82-10.94,5.86S1132.11,70.54,1135.34,72.35Zm-10.53,5.7c3,.23,5.71-3.37,6.07-8s-1.79-8.64-4.78-8.86-5.71,3.36-6.07,8S1121.82,77.82,1124.81,78.05ZM1149,79.93c3.23,1.8,8.12-.82,10.93-5.86s2.46-10.58-.77-12.38-8.13.82-10.93,5.86S1145.71,78.13,1149,79.93Zm14.37,2c-1.77-2.42-6.26-2.16-10,.6s-5.41,7-3.64,9.39,6.27,2.16,10-.6S1165.09,84.33,1163.32,81.9Z" transform="translate(20 18)"/><path class="cls-1" d="M1336.14,921.2c.22,3.83.23,5.8-.64,7.36-1.72,3.09-4.85,3.31-7.94,1.59a8.85,8.85,0,0,1-3.82-3.65s-.71-2.12-4.16-3.86c-3.32-2-5.51-1.5-5.51-1.5a8.81,8.81,0,0,1-5.07-1.33c-3.09-1.72-4.55-4.5-2.83-7.59.88-1.57,2.56-2.59,5.93-4.42,0,0,6.53-3.74,10.94-4.75a9.91,9.91,0,0,1,6.28,1l1,.54h0s3.24,1.79,4.16,4.81C1335.75,913.73,1336.14,921.2,1336.14,921.2Zm-11.8-24.85c3.23,1.8,8.13-.83,10.93-5.86s2.47-10.58-.76-12.38-8.13.82-10.94,5.86S1321.11,894.54,1324.34,896.35Zm-10.53,5.7c3,.23,5.71-3.37,6.07-8s-1.79-8.64-4.78-8.86-5.71,3.36-6.07,8S1310.82,901.82,1313.81,902.05Zm24.14,1.88c3.23,1.8,8.12-.82,10.93-5.86s2.46-10.58-.77-12.38-8.13.82-10.93,5.86S1334.71,902.13,1338,903.93Zm14.37,2c-1.77-2.42-6.26-2.16-10,.6s-5.41,7-3.64,9.39,6.27,2.16,10-.6S1354.09,908.33,1352.32,905.9Z" transform="translate(20 18)"/><path class="cls-1" d="M1173.4,1003c3.46,1.65,5.19,2.6,6.14,4.12,1.87,3,.55,5.84-2.45,7.72a8.91,8.91,0,0,1-5,1.58s-2.19-.4-5.39,1.77c-3.38,1.94-4,4.11-4,4.11a8.72,8.72,0,0,1-3.61,3.79c-3,1.88-6.14,1.82-8-1.18-1-1.52-1-3.49-1-7.32,0,0-.13-7.52,1.12-11.88a9.9,9.9,0,0,1,3.91-5l.93-.58h0s3.13-2,6.22-1.32C1166.67,999.76,1173.4,1003,1173.4,1003Zm-27.46-1.67c3.14-2,3.2-7.51.15-12.4s-8.08-7.26-11.21-5.3-3.21,7.51-.15,12.4S1142.8,1003.32,1145.94,1001.35Zm-.09,12c1.65-2.51-.19-6.63-4.11-9.19s-8.42-2.61-10.06-.1.19,6.63,4.1,9.2S1144.2,1015.84,1145.85,1013.33Zm13.3-20.23c3.13-2,3.2-7.51.15-12.4s-8.08-7.26-11.22-5.3-3.2,7.51-.15,12.4S1156,995.06,1159.15,993.1Zm8.67-11.64c-3,.38-4.92,4.45-4.33,9.09s3.48,8.1,6.46,7.72,4.92-4.44,4.33-9.09S1170.8,981.09,1167.82,981.46Z" transform="translate(20 18)"/><path class="cls-1" d="M1336.14,511.2c.22,3.83.23,5.8-.64,7.36-1.72,3.09-4.85,3.31-7.94,1.59a8.85,8.85,0,0,1-3.82-3.65s-.71-2.12-4.16-3.86c-3.32-2-5.51-1.5-5.51-1.5a8.81,8.81,0,0,1-5.07-1.33c-3.09-1.72-4.55-4.5-2.83-7.59.88-1.57,2.56-2.59,5.93-4.42,0,0,6.53-3.74,10.94-4.75a9.91,9.91,0,0,1,6.28,1l1,.54h0s3.24,1.79,4.16,4.81C1335.75,503.73,1336.14,511.2,1336.14,511.2Zm-11.8-24.85c3.23,1.8,8.13-.83,10.93-5.86s2.47-10.58-.76-12.38-8.13.82-10.94,5.86S1321.11,484.54,1324.34,486.35Zm-10.53,5.7c3,.23,5.71-3.37,6.07-8s-1.79-8.64-4.78-8.86-5.71,3.36-6.07,8S1310.82,491.82,1313.81,492.05Zm24.14,1.88c3.23,1.8,8.12-.82,10.93-5.86s2.46-10.58-.77-12.38-8.13.82-10.93,5.86S1334.71,492.13,1338,493.93Zm14.37,2c-1.77-2.42-6.26-2.16-10,.6s-5.41,7-3.64,9.39,6.27,2.16,10-.6S1354.09,498.33,1352.32,495.9Z" transform="translate(20 18)"/><path class="cls-1" d="M1297.61,325.18c3.66,1.12,5.51,1.8,6.67,3.16,2.3,2.69,1.42,5.7-1.27,8a8.92,8.92,0,0,1-4.75,2.31s-2.23-.07-5.07,2.55c-3.06,2.41-3.32,4.65-3.32,4.65a8.79,8.79,0,0,1-3,4.29c-2.69,2.3-5.8,2.7-8.1,0-1.16-1.36-1.54-3.29-2.08-7.09,0,0-1.24-7.42-.65-11.91a10,10,0,0,1,3.13-5.54l.83-.71h0s2.8-2.41,6-2.22C1290.46,323,1297.61,325.18,1297.61,325.18Zm-27.41,2.42c2.81-2.41,2-7.91-1.69-12.29s-9.06-6-11.87-3.59-2.06,7.91,1.68,12.29S1267.38,330,1270.2,327.6Zm1.68,11.86c1.26-2.73-1.17-6.53-5.42-8.49s-8.71-1.33-10,1.4,1.17,6.53,5.42,8.48S1270.63,342.18,1271.88,339.46Zm10.16-22c2.81-2.4,2.06-7.9-1.69-12.29s-9.06-6-11.87-3.58-2.06,7.9,1.68,12.29S1279.23,319.88,1282,317.48Zm6.85-12.79c-2.89.81-4.2,5.12-2.93,9.63s4.64,7.49,7.53,6.68,4.2-5.13,2.94-9.63S1291.78,303.87,1288.89,304.69Z" transform="translate(20 18)"/><path class="cls-1" d="M1163.56,234.63c3.56,1.4,5.36,2.21,6.41,3.66,2.09,2.85,1,5.79-1.87,7.88a8.91,8.91,0,0,1-4.91,1.94s-2.22-.24-5.25,2.16c-3.23,2.18-3.66,4.38-3.66,4.38a8.82,8.82,0,0,1-3.33,4.06c-2.85,2.08-6,2.25-8.08-.6-1-1.45-1.28-3.41-1.53-7.23,0,0-.68-7.49.25-11.93a9.89,9.89,0,0,1,3.53-5.28l.89-.65h0s3-2.19,6.11-1.76C1156.6,231.87,1163.56,234.63,1163.56,234.63ZM1136,235c3-2.18,2.65-7.73-.75-12.38s-8.58-6.66-11.57-4.47-2.65,7.72.75,12.38S1133.06,237.15,1136,235Zm.79,11.95c1.46-2.63-.68-6.6-4.77-8.87s-8.59-2-10,.64.68,6.6,4.77,8.87S1135.37,249.54,1136.83,246.92Zm11.78-21.14c3-2.19,2.65-7.73-.75-12.38s-8.58-6.66-11.57-4.48-2.65,7.73.76,12.38S1145.63,228,1148.61,225.78Zm7.81-12.24c-3,.59-4.59,4.79-3.66,9.38s4.06,7.82,7,7.23,4.58-4.8,3.65-9.38S1159.36,212.94,1156.42,213.54Z" transform="translate(20 18)"/><path class="cls-1" d="M1255.14,732.2c.22,3.83.23,5.8-.64,7.36-1.72,3.09-4.85,3.31-7.94,1.59a8.85,8.85,0,0,1-3.82-3.65s-.71-2.12-4.16-3.86c-3.32-2-5.51-1.5-5.51-1.5a8.81,8.81,0,0,1-5.07-1.33c-3.09-1.72-4.55-4.5-2.83-7.59.88-1.57,2.56-2.59,5.93-4.42,0,0,6.53-3.74,10.94-4.75a9.91,9.91,0,0,1,6.28,1l1,.54h0s3.24,1.79,4.16,4.81C1254.75,724.73,1255.14,732.2,1255.14,732.2Zm-11.8-24.85c3.23,1.8,8.13-.83,10.93-5.86s2.47-10.58-.76-12.38-8.13.82-10.94,5.86S1240.11,705.54,1243.34,707.35Zm-10.53,5.7c3,.23,5.71-3.37,6.07-8s-1.79-8.64-4.78-8.86-5.71,3.36-6.07,8S1229.82,712.82,1232.81,713.05Zm24.14,1.88c3.23,1.8,8.12-.82,10.93-5.86s2.46-10.58-.77-12.38-8.13.82-10.93,5.86S1253.71,713.13,1257,714.93Zm14.37,2c-1.77-2.42-6.26-2.16-10,.6s-5.41,7-3.64,9.39,6.27,2.16,10-.6S1273.09,719.33,1271.32,716.9Z" transform="translate(20 18)"/><path class="cls-1" d="M1112.14,428.2c.22,3.83.23,5.8-.64,7.36-1.72,3.09-4.85,3.31-7.94,1.59a8.85,8.85,0,0,1-3.82-3.65s-.71-2.12-4.16-3.86c-3.32-2-5.51-1.5-5.51-1.5a8.81,8.81,0,0,1-5.07-1.33c-3.09-1.72-4.55-4.5-2.83-7.59.88-1.57,2.56-2.59,5.93-4.42,0,0,6.53-3.74,10.94-4.75a9.91,9.91,0,0,1,6.28,1l1,.54h0s3.24,1.79,4.16,4.81C1111.75,420.73,1112.14,428.2,1112.14,428.2Zm-11.8-24.85c3.23,1.8,8.13-.83,10.93-5.86s2.47-10.58-.76-12.38-8.13.82-10.94,5.86S1097.11,401.54,1100.34,403.35Zm-10.53,5.7c3,.23,5.71-3.37,6.07-8s-1.79-8.64-4.78-8.86-5.71,3.36-6.07,8S1086.82,408.82,1089.81,409.05Zm24.14,1.88c3.23,1.8,8.12-.82,10.93-5.86s2.46-10.58-.77-12.38-8.13.82-10.93,5.86S1110.71,409.13,1114,410.93Zm14.37,2c-1.77-2.42-6.26-2.16-10,.6s-5.41,7-3.64,9.39,6.27,2.16,10-.6S1130.09,415.33,1128.32,412.9Z" transform="translate(20 18)"/><path class="cls-1" d="M1179,593.56c3.83.21,5.78.43,7.24,1.47,2.88,2.05,2.75,5.19.69,8.07a8.93,8.93,0,0,1-4,3.38s-2.19.47-4.31,3.7c-2.39,3.08-2.11,5.31-2.11,5.31a8.79,8.79,0,0,1-1.88,4.89c-2.06,2.87-5,4-7.86,2-1.46-1-2.29-2.83-3.73-6.38,0,0-3-6.91-3.49-11.41a9.86,9.86,0,0,1,1.7-6.12l.63-.89h0s2.14-3,5.25-3.6C1171.56,593.12,1179,593.56,1179,593.56Zm-26,9c2.15-3,.09-8.17-4.6-11.52s-10.23-3.64-12.38-.63-.1,8.17,4.59,11.52S1150.86,605.52,1153,602.51Zm4.49,11.1c.56-3-2.71-6.05-7.31-6.93s-8.77.81-9.34,3.76,2.71,6,7.31,6.93S1156.93,616.56,1157.5,613.61Zm4.57-23.77c2.15-3,.09-8.17-4.6-11.52s-10.23-3.64-12.39-.63-.09,8.17,4.6,11.53S1159.92,592.85,1162.07,589.84Zm3.57-14.07c-2.61,1.49-2.85,6-.53,10.05s6.31,6.16,8.92,4.67,2.84-6,.53-10S1168.25,574.28,1165.64,575.77Z" transform="translate(20 18)"/><path class="cls-1" d="M1127.14,869.2c.22,3.83.23,5.8-.64,7.36-1.72,3.09-4.85,3.31-7.94,1.59a8.85,8.85,0,0,1-3.82-3.65s-.71-2.12-4.16-3.86c-3.32-2-5.51-1.5-5.51-1.5a8.81,8.81,0,0,1-5.07-1.33c-3.09-1.72-4.55-4.5-2.83-7.59.88-1.57,2.56-2.59,5.93-4.42,0,0,6.53-3.74,10.94-4.75a9.91,9.91,0,0,1,6.28,1l1,.54h0s3.24,1.79,4.16,4.81C1126.75,861.73,1127.14,869.2,1127.14,869.2Zm-11.8-24.85c3.23,1.8,8.13-.83,10.93-5.86s2.47-10.58-.76-12.38-8.13.82-10.94,5.86S1112.11,842.54,1115.34,844.35Zm-10.53,5.7c3,.23,5.71-3.37,6.07-8s-1.79-8.64-4.78-8.86-5.71,3.36-6.07,8S1101.82,849.82,1104.81,850.05Zm24.14,1.88c3.23,1.8,8.12-.82,10.93-5.86s2.46-10.58-.77-12.38-8.13.82-10.93,5.86S1125.71,850.13,1129,851.93Zm14.37,2c-1.77-2.42-6.26-2.16-10,.6s-5.41,7-3.64,9.39,6.27,2.16,10-.6S1145.09,856.33,1143.32,853.9Z" transform="translate(20 18)"/><path class="cls-1" d="M967.34,85.09c3,2.37,4.49,3.66,5.09,5.35,1.18,3.34-.73,5.83-4.07,7a8.91,8.91,0,0,1-5.26.44s-2.06-.87-5.65.56c-3.72,1.15-4.77,3.14-4.77,3.14a8.79,8.79,0,0,1-4.35,2.92c-3.34,1.17-6.39.43-7.56-2.91-.6-1.69-.25-3.63.61-7.36,0,0,1.52-7.37,3.68-11.35a9.89,9.89,0,0,1,4.91-4l1-.36h0s3.48-1.24,6.36.07C961.48,80.44,967.34,85.09,967.34,85.09ZM940.9,77.48c3.49-1.23,4.76-6.63,2.85-12.07s-6.3-8.85-9.79-7.62-4.77,6.63-2.85,12.07S937.41,78.71,940.9,77.48Zm-2.7,11.67c2.16-2.09,1.26-6.51-2-9.87s-7.65-4.37-9.81-2.28-1.25,6.51,2,9.86S936.05,91.24,938.2,89.15ZM955.59,72.3c3.49-1.23,4.76-6.63,2.85-12.07s-6.3-8.85-9.79-7.62-4.77,6.64-2.85,12.07S952.1,73.53,955.59,72.3Zm11-9.47c-3-.28-5.77,3.27-6.21,7.93S962,79.42,965,79.7s5.77-3.26,6.21-7.92S969.58,63.11,966.59,62.83Z" transform="translate(20 18)"/><path class="cls-1" d="M1024.6,478c2.21,3.14,3.25,4.81,3.34,6.59.16,3.54-2.38,5.37-5.92,5.54a8.89,8.89,0,0,1-5.17-1.09s-1.71-1.43-5.56-1.09c-3.9,0-5.48,1.63-5.48,1.63a8.72,8.72,0,0,1-5,1.54c-3.54.16-6.25-1.43-6.41-5-.08-1.79.81-3.55,2.71-6.88,0,0,3.57-6.61,6.79-9.8a9.94,9.94,0,0,1,5.87-2.46l1.09-.05h0s3.69-.18,6.07,1.9C1020.33,471.82,1024.6,478,1024.6,478Zm-23.13-14.9c3.7-.18,6.48-5,6.21-10.74s-3.48-10.29-7.18-10.12-6.47,5-6.2,10.74S997.78,463.23,1001.47,463.06Zm-5.94,10.39c2.67-1.38,3.08-5.87.92-10s-6.06-6.4-8.73-5-3.07,5.87-.92,10S992.87,474.84,995.53,473.45Zm21.5-11.12c3.7-.17,6.48-5,6.21-10.74s-3.48-10.29-7.18-10.11-6.47,5-6.2,10.74S1013.34,462.5,1017,462.33Zm13.26-5.9c-2.78-1.13-6.46,1.47-8.22,5.8s-.94,8.77,1.85,9.9,6.46-1.47,8.23-5.8S1033.08,457.56,1030.29,456.43Z" transform="translate(20 18)"/><path class="cls-1" d="M1861.14,355.2c.22,3.83.23,5.8-.64,7.36-1.72,3.09-4.85,3.31-7.94,1.59a8.85,8.85,0,0,1-3.82-3.65s-.71-2.12-4.16-3.86c-3.32-2-5.51-1.5-5.51-1.5a8.81,8.81,0,0,1-5.07-1.33c-3.09-1.72-4.55-4.5-2.83-7.59.88-1.57,2.56-2.59,5.93-4.42,0,0,6.53-3.74,10.94-4.75a9.91,9.91,0,0,1,6.28,1l1,.54h0s3.24,1.79,4.16,4.81C1860.75,347.73,1861.14,355.2,1861.14,355.2Zm-11.8-24.85c3.23,1.8,8.13-.83,10.93-5.86s2.47-10.58-.76-12.38-8.13.82-10.94,5.86S1846.11,328.54,1849.34,330.35Zm-10.53,5.7c3,.23,5.71-3.37,6.07-8s-1.79-8.64-4.78-8.86-5.71,3.36-6.07,8S1835.82,335.82,1838.81,336.05Zm24.14,1.88c3.23,1.8,8.12-.82,10.93-5.86s2.46-10.58-.77-12.38-8.13.82-10.93,5.86S1859.71,336.13,1863,337.93Zm14.37,2c-1.77-2.42-6.26-2.16-10,.6s-5.41,7-3.64,9.39,6.27,2.16,10-.6S1879.09,342.33,1877.32,339.9Z" transform="translate(20 18)"/><path class="cls-1" d="M1771.14,86.2c.22,3.83.23,5.8-.64,7.36-1.72,3.09-4.85,3.31-7.94,1.59a8.85,8.85,0,0,1-3.82-3.65s-.71-2.12-4.16-3.86c-3.32-2-5.51-1.5-5.51-1.5a8.81,8.81,0,0,1-5.07-1.33c-3.09-1.72-4.55-4.5-2.83-7.59.88-1.57,2.56-2.59,5.93-4.42,0,0,6.53-3.74,10.94-4.75a9.91,9.91,0,0,1,6.28,1l1,.54h0s3.24,1.79,4.16,4.81C1770.75,78.73,1771.14,86.2,1771.14,86.2Zm-11.8-24.85c3.23,1.8,8.13-.83,10.93-5.86s2.47-10.58-.76-12.38-8.13.82-10.94,5.86S1756.11,59.54,1759.34,61.35Zm-10.53,5.7c3,.23,5.71-3.37,6.07-8s-1.79-8.64-4.78-8.86-5.71,3.36-6.07,8S1745.82,66.82,1748.81,67.05ZM1773,68.93c3.23,1.8,8.12-.82,10.93-5.86s2.46-10.58-.77-12.38-8.13.82-10.93,5.86S1769.71,67.13,1773,68.93Zm14.37,2c-1.77-2.42-6.26-2.16-10,.6s-5.41,7-3.64,9.39,6.27,2.16,10-.6S1789.09,73.33,1787.32,70.9Z" transform="translate(20 18)"/><path class="cls-1" d="M1861.38,171.24c1.39,3.57,2,5.44,1.66,7.2-.68,3.47-3.59,4.64-7.06,4a8.86,8.86,0,0,1-4.76-2.28s-1.33-1.8-5.14-2.39c-3.8-.9-5.71.28-5.71.28a8.72,8.72,0,0,1-5.23.3c-3.47-.68-5.72-2.86-5-6.34.34-1.75,1.63-3.25,4.26-6,0,0,5.05-5.58,8.94-7.91a9.94,9.94,0,0,1,6.28-1l1.07.21h0s3.63.7,5.44,3.29C1858.69,164.26,1861.38,171.24,1861.38,171.24Zm-18.92-20c3.63.71,7.47-3.3,8.58-9s-.93-10.82-4.56-11.53-7.48,3.3-8.59,8.95S1838.83,150.54,1842.46,151.26Zm-8.25,8.68c2.92-.71,4.39-5,3.28-9.52s-4.36-7.65-7.28-6.94-4.39,5-3.28,9.51S1831.29,160.65,1834.21,159.94Zm23.53-5.68c3.63.71,7.48-3.3,8.59-9s-.94-10.82-4.57-11.53-7.47,3.29-8.58,8.95S1854.11,153.54,1857.74,154.26Zm14.29-2.58c-2.44-1.76-6.63-.11-9.38,3.68s-3,8.29-.55,10,6.63.11,9.37-3.68S1874.46,153.44,1872,151.68Z" transform="translate(20 18)"/><path class="cls-1" d="M1714.11,256.8c3.81-.37,5.78-.46,7.38.35,3.15,1.6,3.5,4.72,1.9,7.88a8.92,8.92,0,0,1-3.49,4s-2.1.79-3.7,4.3c-1.9,3.41-1.28,5.57-1.28,5.57a8.71,8.71,0,0,1-1.13,5.12c-1.6,3.15-4.31,4.72-7.47,3.12-1.6-.81-2.69-2.45-4.65-5.74,0,0-4-6.38-5.18-10.75a9.92,9.92,0,0,1,.76-6.31l.49-1h0s1.66-3.31,4.65-4.35C1706.66,257.49,1714.11,256.8,1714.11,256.8Zm-24.37,12.78c1.67-3.3-1.14-8.09-6.28-10.69s-10.67-2.05-12.34,1.25,1.14,8.09,6.28,10.7S1688.07,272.88,1689.74,269.58Zm6.12,10.29c.11-3-3.59-5.57-8.27-5.74s-8.55,2.12-8.66,5.13,3.59,5.57,8.26,5.74S1695.75,282.88,1695.86,279.87Zm.92-24.18c1.67-3.31-1.14-8.09-6.29-10.7s-10.66-2-12.34,1.26,1.15,8.09,6.29,10.69S1695.11,259,1696.78,255.69Zm1.4-14.45c-2.35,1.86-1.91,6.35,1,10s7.16,5.13,9.52,3.27,1.91-6.35-1-10S1700.54,239.37,1698.18,241.24Z" transform="translate(20 18)"/><path class="cls-1" d="M1683.5,433.27c3.52,1.51,5.28,2.39,6.29,3.87,2,2.92.79,5.82-2.14,7.81a8.89,8.89,0,0,1-5,1.78s-2.21-.32-5.31,2c-3.31,2.07-3.81,4.26-3.81,4.26a8.75,8.75,0,0,1-3.46,3.94c-2.92,2-6.06,2.06-8-.87-1-1.48-1.17-3.44-1.3-7.27,0,0-.42-7.51.65-11.91a9.94,9.94,0,0,1,3.71-5.17l.9-.61h0s3-2.09,6.17-1.57C1676.64,430.27,1683.5,433.27,1683.5,433.27Zm-27.51-.58c3.06-2.08,2.9-7.63-.34-12.4s-8.36-6.94-11.42-4.85-2.9,7.63.35,12.39S1652.93,434.77,1656,432.69Zm.39,12c1.54-2.58-.46-6.62-4.47-9s-8.52-2.27-10.06.3.45,6.62,4.46,9S1654.83,447.23,1656.38,444.66Zm12.48-20.74c3.06-2.08,2.91-7.63-.34-12.4s-8.36-6.94-11.41-4.85-2.91,7.63.34,12.4S1665.8,426,1668.86,423.92Zm8.2-12c-3,.49-4.73,4.64-4,9.25s3.8,8,6.76,7.46,4.74-4.64,4-9.25S1680,411.45,1677.06,412Z" transform="translate(20 18)"/><path class="cls-1" d="M1820.14,537.2c.22,3.83.23,5.8-.64,7.36-1.72,3.09-4.85,3.31-7.94,1.59a8.85,8.85,0,0,1-3.82-3.65s-.71-2.12-4.16-3.86c-3.32-2-5.51-1.5-5.51-1.5a8.81,8.81,0,0,1-5.07-1.33c-3.09-1.72-4.55-4.5-2.83-7.59.88-1.57,2.56-2.59,5.93-4.42,0,0,6.53-3.74,10.94-4.75a9.91,9.91,0,0,1,6.28,1l1,.54h0s3.24,1.79,4.16,4.81C1819.75,529.73,1820.14,537.2,1820.14,537.2Zm-11.8-24.85c3.23,1.8,8.13-.83,10.93-5.86s2.47-10.58-.76-12.38-8.13.82-10.94,5.86S1805.11,510.54,1808.34,512.35Zm-10.53,5.7c3,.23,5.71-3.37,6.07-8s-1.79-8.64-4.78-8.86-5.71,3.36-6.07,8S1794.82,517.82,1797.81,518.05Zm24.14,1.88c3.23,1.8,8.12-.82,10.93-5.86s2.46-10.58-.77-12.38-8.13.82-10.93,5.86S1818.71,518.13,1822,519.93Zm14.37,2c-1.77-2.42-6.26-2.16-10,.6s-5.41,7-3.64,9.39,6.27,2.16,10-.6S1838.09,524.33,1836.32,521.9Z" transform="translate(20 18)"/><path class="cls-1" d="M1876.14,974.2c.22,3.83.23,5.8-.64,7.36-1.72,3.09-4.85,3.31-7.94,1.59a8.85,8.85,0,0,1-3.82-3.65s-.71-2.12-4.16-3.86c-3.32-2-5.51-1.5-5.51-1.5a8.81,8.81,0,0,1-5.07-1.33c-3.09-1.72-4.55-4.5-2.83-7.59.88-1.57,2.56-2.59,5.93-4.42,0,0,6.53-3.74,10.94-4.75a9.91,9.91,0,0,1,6.28,1l1,.54h0s3.24,1.79,4.16,4.81C1875.75,966.73,1876.14,974.2,1876.14,974.2Zm-11.8-24.85c3.23,1.8,8.13-.83,10.93-5.86s2.47-10.58-.76-12.38-8.13.82-10.94,5.86S1861.11,947.54,1864.34,949.35Zm-10.53,5.7c3,.23,5.71-3.37,6.07-8s-1.79-8.64-4.78-8.86-5.71,3.36-6.07,8S1850.82,954.82,1853.81,955.05Zm24.14,1.88c3.23,1.8,8.12-.82,10.93-5.86s2.46-10.58-.77-12.38-8.13.82-10.93,5.86S1874.71,955.13,1878,956.93Zm14.37,2c-1.77-2.42-6.26-2.16-10,.6s-5.41,7-3.64,9.39,6.27,2.16,10-.6S1894.09,961.33,1892.32,958.9Z" transform="translate(20 18)"/><path class="cls-1" d="M1888.32,723.32c3.82-.26,5.79-.29,7.37.57,3.1,1.69,3.35,4.82,1.66,7.93a8.81,8.81,0,0,1-3.6,3.85s-2.12.73-3.82,4.19c-2,3.35-1.45,5.53-1.45,5.53a8.73,8.73,0,0,1-1.27,5.08c-1.69,3.11-4.45,4.6-7.56,2.91-1.58-.85-2.62-2.52-4.48-5.87,0,0-3.81-6.49-4.87-10.9a9.88,9.88,0,0,1,.94-6.28l.53-1h0s1.76-3.25,4.78-4.2C1880.85,723.8,1888.32,723.32,1888.32,723.32Zm-24.73,12.06c1.77-3.25-.91-8.12-6-10.87s-10.61-2.35-12.37.9.9,8.11,6,10.87S1861.82,738.63,1863.59,735.38Zm5.81,10.47c.2-3-3.43-5.67-8.09-6s-8.62,1.87-8.82,4.87,3.43,5.67,8.1,6S1869.2,748.85,1869.4,745.85ZM1871,721.7c1.77-3.25-.91-8.12-6-10.87s-10.6-2.36-12.37.89.9,8.12,6,10.88S1869.26,725,1871,721.7Zm1.82-14.4c-2.41,1.8-2.09,6.29.7,10s7,5.34,9.43,3.55,2.09-6.29-.7-10S1875.26,705.51,1872.85,707.3Z" transform="translate(20 18)"/><path class="cls-1" d="M1704,1010.44c2.31,3.06,3.41,4.7,3.55,6.48.29,3.53-2.2,5.45-5.72,5.73a8.88,8.88,0,0,1-5.2-.91s-1.77-1.37-5.6-.91c-3.9.16-5.42,1.81-5.42,1.81a8.66,8.66,0,0,1-4.95,1.71c-3.53.29-6.29-1.21-6.57-4.74-.15-1.78.68-3.57,2.47-7,0,0,3.35-6.73,6.46-10a10,10,0,0,1,5.78-2.65l1.09-.09h0s3.69-.3,6.13,1.7C1699.51,1004.45,1704,1010.44,1704,1010.44Zm-23.62-14.11c3.69-.3,6.31-5.2,5.84-11s-3.82-10.16-7.51-9.87-6.3,5.2-5.84,11S1676.68,996.62,1680.37,996.33Zm-5.59,10.59c2.62-1.48,2.88-6,.59-10s-6.28-6.19-8.9-4.72-2.88,6-.58,10.05S1672.17,1008.39,1674.78,1006.92Zm21.12-11.84c3.69-.3,6.3-5.2,5.84-10.94s-3.83-10.17-7.52-9.87-6.3,5.19-5.84,10.94S1692.21,995.37,1695.9,995.08Zm13-6.35c-2.82-1-6.41,1.69-8,6.08s-.64,8.79,2.18,9.83,6.41-1.69,8-6.08S1711.77,989.77,1709,988.73Z" transform="translate(20 18)"/><path class="cls-1" d="M1763.48,852.4c3.51,1.54,5.27,2.42,6.27,3.91,2,2.93.75,5.82-2.19,7.8a8.91,8.91,0,0,1-5,1.74s-2.21-.33-5.33,1.95c-3.32,2-3.84,4.23-3.84,4.23a8.81,8.81,0,0,1-3.48,3.92c-2.94,2-6.08,2-8-.93-1-1.48-1.15-3.45-1.25-7.28,0,0-.37-7.51.73-11.9a9.87,9.87,0,0,1,3.75-5.14l.9-.61h0s3.07-2.07,6.18-1.52C1756.65,849.36,1763.48,852.4,1763.48,852.4Zm-27.5-.77c3.07-2.06,3-7.61-.26-12.4s-8.31-7-11.38-4.93-3,7.61.26,12.4S1732.91,853.7,1736,851.63Zm.3,12c1.57-2.57-.4-6.62-4.4-9.06s-8.5-2.32-10.07.24.41,6.62,4.41,9.05S1734.72,866.17,1736.28,863.61ZM1748.91,843c3.07-2.06,3-7.61-.26-12.4s-8.31-7-11.38-4.93-3,7.61.26,12.4S1745.84,845,1748.91,843Zm8.28-11.92c-3,.48-4.77,4.61-4,9.23s3.74,8,6.71,7.5,4.77-4.6,4-9.22S1760.16,830.56,1757.19,831Z" transform="translate(20 18)"/></svg>